<svg xmlns="http://www.w3.org/2000/svg" xmlns:xlink="http://www.w3.org/1999/xlink" contentStyleType="text/css" data-diagram-type="CLASS" height="707px" preserveAspectRatio="none" style="width:1404px;height:707px;background:#FFFFFF;" version="1.1" viewBox="0 0 1404 707" width="1404px" zoomAndPan="magnify"><defs><filter height="300%" id="f5a9eg0ppr4m8" width="300%" x="-1" y="-1"><feGaussianBlur result="blurOut" stdDeviation="2"/><feColorMatrix in="blurOut" result="blurOut2" type="matrix" values="0 0 0 0 0 0 0 0 0 0 0 0 0 0 0 0 0 0 .4 0"/><feOffset dx="4" dy="4" in="blurOut2" result="blurOut3"/><feBlend in="SourceGraphic" in2="blurOut3" mode="normal"/></filter></defs><g><!--cluster BDIAgentInterface--><g class="cluster" data-entity="BDIAgentInterface" data-source-line="4" data-uid="ent0002" id="cluster_BDIAgentInterface"><rect fill="none" filter="url(#f5a9eg0ppr4m8)" height="686" style="stroke:#A80036;stroke-width:1;" width="1383" x="7" y="7"/><rect fill="none" height="10" style="stroke:#A80036;stroke-width:1;" width="15" x="1370" y="12"/><rect fill="none" height="2" style="stroke:#A80036;stroke-width:1;" width="4" x="1368" y="14"/><rect fill="none" height="2" style="stroke:#A80036;stroke-width:1;" width="4" x="1368" y="18"/><text fill="#000000" font-family="sans-serif" font-size="14" font-weight="bold" lengthAdjust="spacing" textLength="146.1113" x="625.4443" y="32.9951">BDIAgentInterface</text></g><!--class CommandModel--><g class="entity" data-entity="CommandModel" data-source-line="6" data-uid="ent0003" id="entity_CommandModel"><rect fill="#FEFECE" filter="url(#f5a9eg0ppr4m8)" height="80.5938" style="stroke:#A80036;stroke-width:1;" width="288.0557" x="73" y="414"/><ellipse cx="155.7832" cy="430" fill="#FEFECE" rx="11" ry="11" style="stroke:#A80036;stroke-width:1;"/><path d="M155.377,425.8125 L155.377,433.7969 L156.0332,433.7969 Q157.4707,433.7969 158.0801,432.8906 Q158.7051,431.9688 158.7051,429.7969 Q158.7051,427.625 158.0801,426.7188 Q157.4707,425.8125 156.0332,425.8125 L155.377,425.8125 Z M152.9238,423.6094 L155.5488,423.6094 Q158.5801,423.6094 159.9082,425.0625 Q161.252,426.5 161.252,429.7969 Q161.252,433.0938 159.9082,434.5469 Q158.5801,436 155.5488,436 L152.9238,436 L152.9238,423.6094 Z " fill="#000000"/><text fill="#000000" font-family="sans-serif" font-size="14" lengthAdjust="spacing" textLength="113.9893" x="176.2832" y="434.8467">CommandModel</text><line style="stroke:#A80036;stroke-width:1;" x1="74" x2="360.0557" y1="446" y2="446"/><ellipse cx="84" cy="459.6484" fill="none" rx="3" ry="3" style="stroke:#038048;stroke-width:1;"/><text fill="#000000" font-family="sans-serif" font-size="14" lengthAdjust="spacing" textLength="94.042" x="93" y="462.9951">action: String</text><ellipse cx="84" cy="475.9453" fill="none" rx="3" ry="3" style="stroke:#038048;stroke-width:1;"/><text fill="#000000" font-family="sans-serif" font-size="14" lengthAdjust="spacing" textLength="262.0557" x="93" y="479.292">parameters: Dictionary&lt;String, any&gt;</text><line style="stroke:#A80036;stroke-width:1;" x1="74" x2="360.0557" y1="486.5938" y2="486.5938"/></g><!--class CommandBuilder--><g class="entity" data-entity="CommandBuilder" data-source-line="10" data-uid="ent0004" id="entity_CommandBuilder"><rect fill="#FEFECE" filter="url(#f5a9eg0ppr4m8)" height="80.5938" style="stroke:#A80036;stroke-width:1;" width="387.1904" x="23.5" y="248"/><ellipse cx="152.1113" cy="264" fill="#ADD1B2" rx="11" ry="11" style="stroke:#A80036;stroke-width:1;"/><path d="M155.0801,269.6406 Q154.502,269.9375 153.8613,270.0781 Q153.2207,270.2344 152.5176,270.2344 Q150.0176,270.2344 148.6895,268.5938 Q147.377,266.9375 147.377,263.8125 Q147.377,260.6875 148.6895,259.0313 Q150.0176,257.375 152.5176,257.375 Q153.2207,257.375 153.8613,257.5313 Q154.5176,257.6875 155.0801,257.9844 L155.0801,260.7031 Q154.4551,260.125 153.8613,259.8594 Q153.2676,259.5781 152.6426,259.5781 Q151.2988,259.5781 150.6113,260.6563 Q149.9238,261.7188 149.9238,263.8125 Q149.9238,265.9063 150.6113,266.9844 Q151.2988,268.0469 152.6426,268.0469 Q153.2676,268.0469 153.8613,267.7813 Q154.4551,267.5 155.0801,266.9219 L155.0801,269.6406 Z " fill="#000000"/><text fill="#000000" font-family="sans-serif" font-size="14" lengthAdjust="spacing" textLength="121.4678" x="172.6113" y="268.8467">CommandBuilder</text><line style="stroke:#A80036;stroke-width:1;" x1="24.5" x2="409.6904" y1="280" y2="280"/><line style="stroke:#A80036;stroke-width:1;" x1="24.5" x2="409.6904" y1="288" y2="288"/><ellipse cx="34.5" cy="301.6484" fill="#84BE84" rx="3" ry="3" style="stroke:#038048;stroke-width:1;"/><text fill="#000000" font-family="sans-serif" font-size="14" lengthAdjust="spacing" textLength="361.1904" x="43.5" y="304.9951">parse_command(data: jsonString): CommandModel</text><ellipse cx="34.5" cy="317.9453" fill="#84BE84" rx="3" ry="3" style="stroke:#038048;stroke-width:1;"/><text fill="#000000" font-family="sans-serif" font-size="14" lengthAdjust="spacing" textLength="353.5547" x="43.5" y="321.292">push_command(command: CommandModel): void</text></g><!--class SubmodelStateExtractor--><g class="entity" data-entity="SubmodelStateExtractor" data-source-line="16" data-uid="ent0005" id="entity_SubmodelStateExtractor"><rect fill="#FEFECE" filter="url(#f5a9eg0ppr4m8)" height="80.5938" style="stroke:#A80036;stroke-width:1;" width="419.9277" x="446" y="248"/><ellipse cx="565.834" cy="264" fill="#ADD1B2" rx="11" ry="11" style="stroke:#A80036;stroke-width:1;"/><path d="M568.8027,269.6406 Q568.2246,269.9375 567.584,270.0781 Q566.9434,270.2344 566.2402,270.2344 Q563.7402,270.2344 562.4121,268.5938 Q561.0996,266.9375 561.0996,263.8125 Q561.0996,260.6875 562.4121,259.0313 Q563.7402,257.375 566.2402,257.375 Q566.9434,257.375 567.584,257.5313 Q568.2402,257.6875 568.8027,257.9844 L568.8027,260.7031 Q568.1777,260.125 567.584,259.8594 Q566.9902,259.5781 566.3652,259.5781 Q565.0215,259.5781 564.334,260.6563 Q563.6465,261.7188 563.6465,263.8125 Q563.6465,265.9063 564.334,266.9844 Q565.0215,268.0469 566.3652,268.0469 Q566.9902,268.0469 567.584,267.7813 Q568.1777,267.5 568.8027,266.9219 L568.8027,269.6406 Z " fill="#000000"/><text fill="#000000" font-family="sans-serif" font-size="14" lengthAdjust="spacing" textLength="171.7598" x="586.334" y="268.8467">SubmodelStateExtractor</text><line style="stroke:#A80036;stroke-width:1;" x1="447" x2="864.9277" y1="280" y2="280"/><line style="stroke:#A80036;stroke-width:1;" x1="447" x2="864.9277" y1="288" y2="288"/><ellipse cx="457" cy="301.6484" fill="#84BE84" rx="3" ry="3" style="stroke:#038048;stroke-width:1;"/><text fill="#000000" font-family="sans-serif" font-size="14" lengthAdjust="spacing" textLength="393.9277" x="466" y="304.9951">extract_state(data: jsonString): RawResourceDataModel</text><ellipse cx="457" cy="317.9453" fill="#84BE84" rx="3" ry="3" style="stroke:#038048;stroke-width:1;"/><text fill="#000000" font-family="sans-serif" font-size="14" lengthAdjust="spacing" textLength="393.3467" x="466" y="321.292">update_state(data: RawResourceDataModel): jsonString</text></g><!--class ResourceDataParser--><g class="entity" data-entity="ResourceDataParser" data-source-line="22" data-uid="ent0006" id="entity_ResourceDataParser"><rect fill="#FEFECE" filter="url(#f5a9eg0ppr4m8)" height="64.2969" style="stroke:#A80036;stroke-width:1;" width="473.3848" x="901.5" y="256.5"/><ellipse cx="1062.4385" cy="272.5" fill="#ADD1B2" rx="11" ry="11" style="stroke:#A80036;stroke-width:1;"/><path d="M1065.4072,278.1406 Q1064.8291,278.4375 1064.1885,278.5781 Q1063.5479,278.7344 1062.8447,278.7344 Q1060.3447,278.7344 1059.0166,277.0938 Q1057.7041,275.4375 1057.7041,272.3125 Q1057.7041,269.1875 1059.0166,267.5313 Q1060.3447,265.875 1062.8447,265.875 Q1063.5479,265.875 1064.1885,266.0313 Q1064.8447,266.1875 1065.4072,266.4844 L1065.4072,269.2031 Q1064.7822,268.625 1064.1885,268.3594 Q1063.5947,268.0781 1062.9697,268.0781 Q1061.626,268.0781 1060.9385,269.1563 Q1060.251,270.2188 1060.251,272.3125 Q1060.251,274.4063 1060.9385,275.4844 Q1061.626,276.5469 1062.9697,276.5469 Q1063.5947,276.5469 1064.1885,276.2813 Q1064.7822,276 1065.4072,275.4219 L1065.4072,278.1406 Z " fill="#000000"/><text fill="#000000" font-family="sans-serif" font-size="14" lengthAdjust="spacing" textLength="143.0078" x="1082.9385" y="277.3467">ResourceDataParser</text><line style="stroke:#A80036;stroke-width:1;" x1="902.5" x2="1373.8848" y1="288.5" y2="288.5"/><line style="stroke:#A80036;stroke-width:1;" x1="902.5" x2="1373.8848" y1="296.5" y2="296.5"/><ellipse cx="912.5" cy="310.1484" fill="#84BE84" rx="3" ry="3" style="stroke:#038048;stroke-width:1;"/><text fill="#000000" font-family="sans-serif" font-size="14" lengthAdjust="spacing" textLength="447.3848" x="921.5" y="313.4951">parse_resource_data(data: jsonString): RawResourceDataModel</text></g><!--class ResourceDataType--><g class="entity" data-entity="ResourceDataType" data-source-line="25" data-uid="ent0007" id="entity_ResourceDataType"><rect fill="#FEFECE" filter="url(#f5a9eg0ppr4m8)" height="96.8906" style="stroke:#A80036;stroke-width:1;" width="164.9043" x="814.5" y="580"/><ellipse cx="829.5" cy="596" fill="#EB937F" rx="11" ry="11" style="stroke:#A80036;stroke-width:1;"/><path d="M833.6094,602 L825.8906,602 L825.8906,589.6094 L833.6094,589.6094 L833.6094,591.7656 L828.3438,591.7656 L828.3438,594.4375 L833.1094,594.4375 L833.1094,596.5938 L828.3438,596.5938 L828.3438,599.8438 L833.6094,599.8438 L833.6094,602 Z " fill="#000000"/><text fill="#000000" font-family="sans-serif" font-size="14" lengthAdjust="spacing" textLength="132.9043" x="843.5" y="600.8467">ResourceDataType</text><line style="stroke:#A80036;stroke-width:1;" x1="815.5" x2="978.4043" y1="612" y2="612"/><text fill="#000000" font-family="sans-serif" font-size="14" lengthAdjust="spacing" textLength="44.4131" x="820.5" y="628.9951">STATE</text><text fill="#000000" font-family="sans-serif" font-size="14" lengthAdjust="spacing" textLength="57.8389" x="820.5" y="645.292">SENSOR</text><text fill="#000000" font-family="sans-serif" font-size="14" lengthAdjust="spacing" textLength="77.0273" x="820.5" y="661.5889">ACTUATOR</text><line style="stroke:#A80036;stroke-width:1;" x1="815.5" x2="978.4043" y1="668.8906" y2="668.8906"/></g><!--class RawResourceDataModel--><g class="entity" data-entity="RawResourceDataModel" data-source-line="30" data-uid="ent0008" id="entity_RawResourceDataModel"><rect fill="#FEFECE" filter="url(#f5a9eg0ppr4m8)" height="96.8906" style="stroke:#A80036;stroke-width:1;" width="240.2861" x="777" y="406"/><ellipse cx="809.0675" cy="422" fill="#FEFECE" rx="11" ry="11" style="stroke:#A80036;stroke-width:1;"/><path d="M808.6612,417.8125 L808.6612,425.7969 L809.3175,425.7969 Q810.755,425.7969 811.3644,424.8906 Q811.9894,423.9688 811.9894,421.7969 Q811.9894,419.625 811.3644,418.7188 Q810.755,417.8125 809.3175,417.8125 L808.6612,417.8125 Z M806.2081,415.6094 L808.8331,415.6094 Q811.8644,415.6094 813.1925,417.0625 Q814.5362,418.5 814.5362,421.7969 Q814.5362,425.0938 813.1925,426.5469 Q811.8644,428 808.8331,428 L806.2081,428 L806.2081,415.6094 Z " fill="#000000"/><text fill="#000000" font-family="sans-serif" font-size="14" lengthAdjust="spacing" textLength="170.3584" x="826.8603" y="426.8467">RawResourceDataModel</text><line style="stroke:#A80036;stroke-width:1;" x1="778" x2="1016.2861" y1="438" y2="438"/><ellipse cx="788" cy="451.6484" fill="none" rx="3" ry="3" style="stroke:#038048;stroke-width:1;"/><text fill="#000000" font-family="sans-serif" font-size="14" lengthAdjust="spacing" textLength="214.2861" x="797" y="454.9951">DataType : ResourceDataType</text><ellipse cx="788" cy="467.9453" fill="none" rx="3" ry="3" style="stroke:#038048;stroke-width:1;"/><text fill="#000000" font-family="sans-serif" font-size="14" lengthAdjust="spacing" textLength="73.1445" x="797" y="471.292">value: any</text><ellipse cx="788" cy="484.2422" fill="none" rx="3" ry="3" style="stroke:#038048;stroke-width:1;"/><text fill="#000000" font-family="sans-serif" font-size="14" lengthAdjust="spacing" textLength="126.4648" x="797" y="487.5889">timestamp: String</text><line style="stroke:#A80036;stroke-width:1;" x1="778" x2="1016.2861" y1="494.8906" y2="494.8906"/></g><!--class BDIAgentInterfaceClass--><g class="entity" data-entity="BDIAgentInterfaceClass" data-source-line="35" data-uid="ent0009" id="entity_BDIAgentInterfaceClass"><rect fill="#FEFECE" filter="url(#f5a9eg0ppr4m8)" height="129.4844" style="stroke:#A80036;stroke-width:1;" width="504.8848" x="403.5" y="42"/><ellipse cx="587.3765" cy="58" fill="#ADD1B2" rx="11" ry="11" style="stroke:#A80036;stroke-width:1;"/><path d="M590.3452,63.6406 Q589.7671,63.9375 589.1265,64.0781 Q588.4858,64.2344 587.7827,64.2344 Q585.2827,64.2344 583.9546,62.5938 Q582.6421,60.9375 582.6421,57.8125 Q582.6421,54.6875 583.9546,53.0313 Q585.2827,51.375 587.7827,51.375 Q588.4858,51.375 589.1265,51.5313 Q589.7827,51.6875 590.3452,51.9844 L590.3452,54.7031 Q589.7202,54.125 589.1265,53.8594 Q588.5327,53.5781 587.9077,53.5781 Q586.564,53.5781 585.8765,54.6563 Q585.189,55.7188 585.189,57.8125 Q585.189,59.9063 585.8765,60.9844 Q586.564,62.0469 587.9077,62.0469 Q588.5327,62.0469 589.1265,61.7813 Q589.7202,61.5 590.3452,60.9219 L590.3452,63.6406 Z " fill="#000000"/><text fill="#000000" font-family="sans-serif" font-size="14" lengthAdjust="spacing" textLength="128.6318" x="607.8765" y="62.8467">BDIAgentInterface</text><line style="stroke:#A80036;stroke-width:1;" x1="404.5" x2="907.3848" y1="74" y2="74"/><rect fill="none" height="6" style="stroke:#C82930;stroke-width:1;" width="6" x="411.5" y="84.6484"/><text fill="#000000" font-family="sans-serif" font-size="14" lengthAdjust="spacing" textLength="256.5527" x="423.5" y="90.9951">CommandBuilder : CommandBuilder</text><rect fill="none" height="6" style="stroke:#C82930;stroke-width:1;" width="6" x="411.5" y="100.9453"/><text fill="#000000" font-family="sans-serif" font-size="14" lengthAdjust="spacing" textLength="357.1367" x="423.5" y="107.292">SubmodelStateExtractor : SubmodelStateExtractor</text><rect fill="none" height="6" style="stroke:#C82930;stroke-width:1;" width="6" x="411.5" y="117.2422"/><text fill="#000000" font-family="sans-serif" font-size="14" lengthAdjust="spacing" textLength="299.6328" x="423.5" y="123.5889">ResourceDataParser : ResourceDataParser</text><line style="stroke:#A80036;stroke-width:1;" x1="404.5" x2="907.3848" y1="130.8906" y2="130.8906"/><ellipse cx="414.5" cy="144.5391" fill="#84BE84" rx="3" ry="3" style="stroke:#038048;stroke-width:1;"/><text fill="#000000" font-family="sans-serif" font-size="14" lengthAdjust="spacing" textLength="478.8848" x="423.5" y="147.8857">receive_data_from_agent(data: jsonString): RawResourceDataModel</text><ellipse cx="414.5" cy="160.8359" fill="#84BE84" rx="3" ry="3" style="stroke:#038048;stroke-width:1;"/><text fill="#000000" font-family="sans-serif" font-size="14" lengthAdjust="spacing" textLength="342.2959" x="423.5" y="164.1826">send_data_to_agent(data: jsonString): jsonString</text></g><!--reverse link BDIAgentInterfaceClass to CommandBuilder--><g class="link" data-entity-1="BDIAgentInterfaceClass" data-entity-2="CommandBuilder" data-source-line="44" data-uid="lnk10" id="link_BDIAgentInterfaceClass_CommandBuilder"><path codeLine="44" d="M489.8172,175.6428 C427.3872,201.2428 368.43,225.41 313.53,247.92" fill="none" id="BDIAgentInterfaceClass-backto-CommandBuilder" style="stroke:#A80036;stroke-width:1;"/><polygon fill="#A80036" points="500.92,171.09,493.851,169.6655,489.8172,175.6428,496.8862,177.0673,500.92,171.09" style="stroke:#A80036;stroke-width:1;"/></g><!--reverse link BDIAgentInterfaceClass to SubmodelStateExtractor--><g class="link" data-entity-1="BDIAgentInterfaceClass" data-entity-2="SubmodelStateExtractor" data-source-line="45" data-uid="lnk11" id="link_BDIAgentInterfaceClass_SubmodelStateExtractor"><path codeLine="45" d="M656,183.21 C656,208.8 656,225.5 656,247.98" fill="none" id="BDIAgentInterfaceClass-backto-SubmodelStateExtractor" style="stroke:#A80036;stroke-width:1;"/><polygon fill="#A80036" points="656,171.21,652,177.21,656,183.21,660,177.21,656,171.21" style="stroke:#A80036;stroke-width:1;"/><text fill="#000000" font-family="sans-serif" font-size="13" lengthAdjust="spacing" textLength="8.271" x="657" y="214.0669">1</text></g><!--reverse link BDIAgentInterfaceClass to ResourceDataParser--><g class="link" data-entity-1="BDIAgentInterfaceClass" data-entity-2="ResourceDataParser" data-source-line="46" data-uid="lnk12" id="link_BDIAgentInterfaceClass_ResourceDataParser"><path codeLine="46" d="M837.5121,175.2871 C915.0021,204.2171 991.95,232.96 1054.7,256.39" fill="none" id="BDIAgentInterfaceClass-backto-ResourceDataParser" style="stroke:#A80036;stroke-width:1;"/><polygon fill="#A80036" points="826.27,171.09,830.492,176.9359,837.5121,175.2871,833.2901,169.4412,826.27,171.09" style="stroke:#A80036;stroke-width:1;"/><text fill="#000000" font-family="sans-serif" font-size="13" lengthAdjust="spacing" textLength="8.271" x="941" y="214.0669">1</text></g><!--link CommandBuilder to CommandModel--><g class="link" data-entity-1="CommandBuilder" data-entity-2="CommandModel" data-source-line="47" data-uid="lnk13" id="link_CommandBuilder_CommandModel"><path codeLine="47" d="M217,329.2 C217,354.89 217,388.21 217,413.88" fill="none" id="CommandBuilder-CommandModel" style="stroke:#A80036;stroke-width:1;"/><text fill="#000000" font-family="sans-serif" font-size="13" lengthAdjust="spacing" textLength="8.271" x="218" y="372.0669">1</text></g><!--link ResourceDataParser to RawResourceDataModel--><g class="link" data-entity-1="ResourceDataParser" data-entity-2="RawResourceDataModel" data-source-line="48" data-uid="lnk14" id="link_ResourceDataParser_RawResourceDataModel"><path codeLine="48" d="M1092.39,320.54 C1057.04,344.59 1007.46,378.33 967.09,405.81" fill="none" id="ResourceDataParser-RawResourceDataModel" style="stroke:#A80036;stroke-width:1;"/><text fill="#000000" font-family="sans-serif" font-size="13" lengthAdjust="spacing" textLength="8.271" x="1032" y="372.0669">1</text></g><!--link SubmodelStateExtractor to RawResourceDataModel--><g class="link" data-entity-1="SubmodelStateExtractor" data-entity-2="RawResourceDataModel" data-source-line="49" data-uid="lnk15" id="link_SubmodelStateExtractor_RawResourceDataModel"><path codeLine="49" d="M714.34,329.2 C748.33,352.33 791.41,381.64 827.19,406" fill="none" id="SubmodelStateExtractor-RawResourceDataModel" style="stroke:#A80036;stroke-width:1;"/><text fill="#000000" font-family="sans-serif" font-size="13" lengthAdjust="spacing" textLength="8.271" x="777" y="372.0669">1</text></g><!--link RawResourceDataModel to ResourceDataType--><g class="link" data-entity-1="RawResourceDataModel" data-entity-2="ResourceDataType" data-source-line="50" data-uid="lnk16" id="link_RawResourceDataModel_ResourceDataType"><path codeLine="50" d="M897,503.41 C897,527.27 897,556.02 897,579.85" fill="none" id="RawResourceDataModel-ResourceDataType" style="stroke:#A80036;stroke-width:1;"/><text fill="#000000" font-family="sans-serif" font-size="13" lengthAdjust="spacing" textLength="8.271" x="898" y="546.0669">1</text></g><!--SRC=[bLF9ReCm4BtdAwoSkkMGgrLLIfCSUkYYGC_8XKdg5jl8DccZAlzUEsOnOBfm0TwyDtupdb7lb2Cf54n8deiFHZyftqqGIWKh10UkqVHsTRVOcQyxha5kIGfJH1GQeEXhOdId9oEQf3bH2asNWZ72itkHGNxI-O2HeFgvH2JLL72C8YsTXoPI44aOc7CKHYjweX5vk7R4AqJuuQQc7-kFxlct9SqpaBw32l8zkACK9AcZdDb2C7fJWhkppd77VrTPgjT6MBsxTAFU2vgrLYSzir7vmYmnqaJ3-bDBqnBXJ8T3FVFWy4HPKiZyXdniG8bIfh0oqM4HPM5Kq4aGqfpxUSVhyNLFjh6kbY4Sl0HPqHBhux_LD7C0l6HT9_6XW84F2tPSHF4YNll_wuVeSUC1YsNyl8XRw1YO_f13TtGWqDs6nXGU-FHfUvANWEqA-AYc3CmTigA_JRN9ojyVLtjvOhVsPlqTmZt0OuuCBXu9UCh0cE00s0oTgLj22dJl9YRPIi4IOWlvzofS8WKySscq64yoM89ZxMQaXnUpMRXLF_17EpZ_NHliOQthNM9hpOrZImnaiRb3CzoAHcp_BWo6UxLKcp6txJOz_mO0]--></g></svg>