<svg xmlns="http://www.w3.org/2000/svg" xmlns:xlink="http://www.w3.org/1999/xlink" contentStyleType="text/css" data-diagram-type="CLASS" height="904px" preserveAspectRatio="none" style="width:1291px;height:904px;background:#FFFFFF;" version="1.1" viewBox="0 0 1291 904" width="1291px" zoomAndPan="magnify"><defs><filter height="300%" id="fufee9algfanm" width="300%" x="-1" y="-1"><feGaussianBlur result="blurOut" stdDeviation="2"/><feColorMatrix in="blurOut" result="blurOut2" type="matrix" values="0 0 0 0 0 0 0 0 0 0 0 0 0 0 0 0 0 0 .4 0"/><feOffset dx="4" dy="4" in="blurOut2" result="blurOut3"/><feBlend in="SourceGraphic" in2="blurOut3" mode="normal"/></filter></defs><g><!--cluster DataTranslator--><g class="cluster" data-entity="DataTranslator" data-source-line="6" data-uid="ent0002" id="cluster_DataTranslator"><rect fill="none" filter="url(#fufee9algfanm)" height="883" style="stroke:#A80036;stroke-width:1;" width="1270" x="7" y="7"/><rect fill="none" height="10" style="stroke:#A80036;stroke-width:1;" width="15" x="1257" y="12"/><rect fill="none" height="2" style="stroke:#A80036;stroke-width:1;" width="4" x="1255" y="14"/><rect fill="none" height="2" style="stroke:#A80036;stroke-width:1;" width="4" x="1255" y="18"/><text fill="#000000" font-family="sans-serif" font-size="14" font-weight="bold" lengthAdjust="spacing" textLength="118.8701" x="582.5649" y="32.9951">DataTranslator</text></g><!--class AASDataTypes--><g class="entity" data-entity="AASDataTypes" data-source-line="8" data-uid="ent0003" id="entity_AASDataTypes"><rect fill="#FEFECE" filter="url(#fufee9algfanm)" height="80.5938" style="stroke:#A80036;stroke-width:1;" width="135.0996" x="624.5" y="653"/><ellipse cx="639.5" cy="669" fill="#EB937F" rx="11" ry="11" style="stroke:#A80036;stroke-width:1;"/><path d="M643.6094,675 L635.8906,675 L635.8906,662.6094 L643.6094,662.6094 L643.6094,664.7656 L638.3438,664.7656 L638.3438,667.4375 L643.1094,667.4375 L643.1094,669.5938 L638.3438,669.5938 L638.3438,672.8438 L643.6094,672.8438 L643.6094,675 Z " fill="#000000"/><text fill="#000000" font-family="sans-serif" font-size="14" lengthAdjust="spacing" textLength="103.0996" x="653.5" y="673.8467">AASDataTypes</text><line style="stroke:#A80036;stroke-width:1;" x1="625.5" x2="758.5996" y1="685" y2="685"/><text fill="#000000" font-family="sans-serif" font-size="14" lengthAdjust="spacing" textLength="44.4131" x="630.5" y="701.9951">STATE</text><text fill="#000000" font-family="sans-serif" font-size="14" lengthAdjust="spacing" textLength="75.7832" x="630.5" y="718.292">COMMAND</text><line style="stroke:#A80036;stroke-width:1;" x1="625.5" x2="758.5996" y1="725.5938" y2="725.5938"/></g><g class="entity" data-entity="GMN4" data-source-line="13" data-uid="ent0005" id="entity_GMN4"><path d="M584.5,803 L584.5,873.5313 A0,0 0 0 0 584.5,873.5313 L1063.5405,873.5313 A0,0 0 0 0 1063.5405,873.5313 L1063.5405,813 L1053.5405,803 L795.91,803 L728.77,734.33 L787.91,803 L584.5,803 A0,0 0 0 0 584.5,803" fill="#90EE90" filter="url(#fufee9algfanm)" style="stroke:#A80036;stroke-width:1;"/><path d="M1053.5405,803 L1053.5405,813 L1063.5405,813 L1053.5405,803" fill="#90EE90" style="stroke:#A80036;stroke-width:1;"/><text fill="#000000" font-family="sans-serif" font-size="13" lengthAdjust="spacing" textLength="436.4268" x="590.5" y="820.0669">The Submodels mainly have 2 types of data the concern the Agent</text><text fill="#000000" font-family="sans-serif" font-size="13" lengthAdjust="spacing" textLength="275.3042" x="590.5" y="835.1997">- STATE: e.g Current State, Historical Data</text><text fill="#000000" font-family="sans-serif" font-size="13" lengthAdjust="spacing" textLength="138.8359" x="590.5" y="850.3325">- COMMAND: e.g Skill</text><text fill="#000000" font-family="sans-serif" font-size="13" lengthAdjust="spacing" textLength="458.0405" x="590.5" y="865.4653">so this enum defines those two types to be used in the AASDataModel</text></g><!--class AASDataModel--><g class="entity" data-entity="AASDataModel" data-source-line="19" data-uid="ent0007" id="entity_AASDataModel"><rect fill="#FEFECE" filter="url(#fufee9algfanm)" height="96.8906" style="stroke:#A80036;stroke-width:1;" width="208.0752" x="676" y="471"/><ellipse cx="724.0361" cy="487" fill="#FEFECE" rx="11" ry="11" style="stroke:#A80036;stroke-width:1;"/><path d="M723.6299,482.8125 L723.6299,490.7969 L724.2861,490.7969 Q725.7236,490.7969 726.333,489.8906 Q726.958,488.9688 726.958,486.7969 Q726.958,484.625 726.333,483.7188 Q725.7236,482.8125 724.2861,482.8125 L723.6299,482.8125 Z M721.1768,480.6094 L723.8018,480.6094 Q726.833,480.6094 728.1611,482.0625 Q729.5049,483.5 729.5049,486.7969 Q729.5049,490.0938 728.1611,491.5469 Q726.833,493 723.8018,493 L721.1768,493 L721.1768,480.6094 Z " fill="#000000"/><text fill="#000000" font-family="sans-serif" font-size="14" lengthAdjust="spacing" textLength="103.5029" x="744.5361" y="491.8467">AASDataModel</text><line style="stroke:#A80036;stroke-width:1;" x1="677" x2="883.0752" y1="503" y2="503"/><ellipse cx="687" cy="516.6484" fill="none" rx="3" ry="3" style="stroke:#038048;stroke-width:1;"/><text fill="#000000" font-family="sans-serif" font-size="14" lengthAdjust="spacing" textLength="182.0752" x="696" y="519.9951">data_type: AASDataTypes</text><ellipse cx="687" cy="532.9453" fill="none" rx="3" ry="3" style="stroke:#038048;stroke-width:1;"/><text fill="#000000" font-family="sans-serif" font-size="14" lengthAdjust="spacing" textLength="73.1445" x="696" y="536.292">value: any</text><ellipse cx="687" cy="549.2422" fill="none" rx="3" ry="3" style="stroke:#038048;stroke-width:1;"/><text fill="#000000" font-family="sans-serif" font-size="14" lengthAdjust="spacing" textLength="126.4648" x="696" y="552.5889">timestamp: String</text><line style="stroke:#A80036;stroke-width:1;" x1="677" x2="883.0752" y1="559.8906" y2="559.8906"/></g><g class="entity" data-entity="GMN8" data-source-line="25" data-uid="ent0009" id="entity_GMN8"><path d="M795,650.5 L795,736.1641 A0,0 0 0 0 795,736.1641 L1261.2437,736.1641 A0,0 0 0 0 1261.2437,736.1641 L1261.2437,660.5 L1251.2437,650.5 L971.15,650.5 L848.75,568.18 L963.15,650.5 L795,650.5 A0,0 0 0 0 795,650.5" fill="#90EE90" filter="url(#fufee9algfanm)" style="stroke:#A80036;stroke-width:1;"/><path d="M1251.2437,650.5 L1251.2437,660.5 L1261.2437,660.5 L1251.2437,650.5" fill="#90EE90" style="stroke:#A80036;stroke-width:1;"/><text fill="#000000" font-family="sans-serif" font-size="13" lengthAdjust="spacing" textLength="201.9126" x="801" y="667.5669">Represents a generic AAS data</text><text fill="#000000" font-family="sans-serif" font-size="13" lengthAdjust="spacing" textLength="305.7603" x="801" y="682.6997">model with a data type, value, and timestamp.</text><text fill="#000000" font-family="sans-serif" font-size="13" lengthAdjust="spacing" textLength="341.4531" x="801" y="697.8325">where if the data type is command then the value is</text><text fill="#000000" font-family="sans-serif" font-size="13" lengthAdjust="spacing" textLength="445.2437" x="801" y="712.9653">ASL string that contains a command to be executed by the resource</text><text fill="#000000" font-family="sans-serif" font-size="13" lengthAdjust="spacing" textLength="285.3462" x="801" y="728.0981">agent e.g "Drill at 3000 rpm for 5cm depth"</text></g><!--class SubmodelTypes--><g class="entity" data-entity="SubmodelTypes" data-source-line="32" data-uid="ent0011" id="entity_SubmodelTypes"><rect fill="#FEFECE" filter="url(#fufee9algfanm)" height="96.8906" style="stroke:#A80036;stroke-width:1;" width="143.8701" x="23" y="645"/><ellipse cx="38" cy="661" fill="#EB937F" rx="11" ry="11" style="stroke:#A80036;stroke-width:1;"/><path d="M42.1094,667 L34.3906,667 L34.3906,654.6094 L42.1094,654.6094 L42.1094,656.7656 L36.8438,656.7656 L36.8438,659.4375 L41.6094,659.4375 L41.6094,661.5938 L36.8438,661.5938 L36.8438,664.8438 L42.1094,664.8438 L42.1094,667 Z " fill="#000000"/><text fill="#000000" font-family="sans-serif" font-size="14" lengthAdjust="spacing" textLength="111.8701" x="52" y="665.8467">SubmodelTypes</text><line style="stroke:#A80036;stroke-width:1;" x1="24" x2="165.8701" y1="677" y2="677"/><text fill="#000000" font-family="sans-serif" font-size="14" lengthAdjust="spacing" textLength="44.4131" x="29" y="693.9951">STATE</text><text fill="#000000" font-family="sans-serif" font-size="14" lengthAdjust="spacing" textLength="57.8389" x="29" y="710.292">SENSOR</text><text fill="#000000" font-family="sans-serif" font-size="14" lengthAdjust="spacing" textLength="77.0273" x="29" y="726.5889">ACTUATOR</text><line style="stroke:#A80036;stroke-width:1;" x1="24" x2="165.8701" y1="733.8906" y2="733.8906"/></g><g class="entity" data-entity="GMN12" data-source-line="38" data-uid="ent0013" id="entity_GMN12"><path d="M23,811 L23,866.3984 A0,0 0 0 0 23,866.3984 L549.1846,866.3984 A0,0 0 0 0 549.1846,866.3984 L549.1846,821 L539.1846,811 L254.5,811 L158.6,742.12 L246.5,811 L23,811 A0,0 0 0 0 23,811" fill="#90EE90" filter="url(#fufee9algfanm)" style="stroke:#A80036;stroke-width:1;"/><path d="M539.1846,811 L539.1846,821 L549.1846,821 L539.1846,811" fill="#90EE90" style="stroke:#A80036;stroke-width:1;"/><text fill="#000000" font-family="sans-serif" font-size="13" lengthAdjust="spacing" textLength="386.6611" x="29" y="828.0669">Those three Types define the mapping of the submodel id /</text><text fill="#000000" font-family="sans-serif" font-size="13" lengthAdjust="spacing" textLength="137.6934" x="29" y="843.1997">submodelElement id.</text><text fill="#000000" font-family="sans-serif" font-size="13" lengthAdjust="spacing" textLength="505.1846" x="29" y="858.3325">e.g data from real asset is State data --&gt; map to submodel id "Current State"</text></g><!--class ResourceDataModel--><g class="entity" data-entity="ResourceDataModel" data-source-line="42" data-uid="ent0015" id="entity_ResourceDataModel"><rect fill="#FEFECE" filter="url(#fufee9algfanm)" height="96.8906" style="stroke:#A80036;stroke-width:1;" width="172.6016" x="210.5" y="471"/><ellipse cx="225.5" cy="487" fill="#FEFECE" rx="11" ry="11" style="stroke:#A80036;stroke-width:1;"/><path d="M225.0938,482.8125 L225.0938,490.7969 L225.75,490.7969 Q227.1875,490.7969 227.7969,489.8906 Q228.4219,488.9688 228.4219,486.7969 Q228.4219,484.625 227.7969,483.7188 Q227.1875,482.8125 225.75,482.8125 L225.0938,482.8125 Z M222.6406,480.6094 L225.2656,480.6094 Q228.2969,480.6094 229.625,482.0625 Q230.9688,483.5 230.9688,486.7969 Q230.9688,490.0938 229.625,491.5469 Q228.2969,493 225.2656,493 L222.6406,493 L222.6406,480.6094 Z " fill="#000000"/><text fill="#000000" font-family="sans-serif" font-size="14" lengthAdjust="spacing" textLength="140.6016" x="239.5" y="491.8467">ResourceDataModel</text><line style="stroke:#A80036;stroke-width:1;" x1="211.5" x2="382.1016" y1="503" y2="503"/><ellipse cx="221.5" cy="516.6484" fill="none" rx="3" ry="3" style="stroke:#038048;stroke-width:1;"/><text fill="#000000" font-family="sans-serif" font-size="14" lengthAdjust="spacing" textLength="143.8213" x="230.5" y="519.9951">submodel_id : String</text><ellipse cx="221.5" cy="532.9453" fill="none" rx="3" ry="3" style="stroke:#038048;stroke-width:1;"/><text fill="#000000" font-family="sans-serif" font-size="14" lengthAdjust="spacing" textLength="73.1445" x="230.5" y="536.292">value: any</text><ellipse cx="221.5" cy="549.2422" fill="none" rx="3" ry="3" style="stroke:#038048;stroke-width:1;"/><text fill="#000000" font-family="sans-serif" font-size="14" lengthAdjust="spacing" textLength="126.4648" x="230.5" y="552.5889">timestamp: String</text><line style="stroke:#A80036;stroke-width:1;" x1="211.5" x2="382.1016" y1="559.8906" y2="559.8906"/></g><g class="entity" data-entity="GMN16" data-source-line="48" data-uid="ent0017" id="entity_GMN16"><path d="M202.5,673.5 L202.5,713.7656 A0,0 0 0 0 202.5,713.7656 L589.1948,713.7656 A0,0 0 0 0 589.1948,713.7656 L589.1948,683.5 L579.1948,673.5 L388.84,673.5 L324.58,568.41 L380.84,673.5 L202.5,673.5 A0,0 0 0 0 202.5,673.5" fill="#90EE90" filter="url(#fufee9algfanm)" style="stroke:#A80036;stroke-width:1;"/><path d="M579.1948,673.5 L579.1948,683.5 L589.1948,683.5 L579.1948,673.5" fill="#90EE90" style="stroke:#A80036;stroke-width:1;"/><text fill="#000000" font-family="sans-serif" font-size="13" lengthAdjust="spacing" textLength="361.5625" x="208.5" y="690.5669">Represents a generic submodel/submodelElement data</text><text fill="#000000" font-family="sans-serif" font-size="13" lengthAdjust="spacing" textLength="325.0254" x="216.7646" y="705.6997">model with a submodel ID, value, and timestamp.</text></g><!--class DataParser--><g class="entity" data-entity="DataParser" data-source-line="52" data-uid="ent0019" id="entity_DataParser"><rect fill="#FEFECE" filter="url(#fufee9algfanm)" height="64.2969" style="stroke:#A80036;stroke-width:1;" width="222.0615" x="419" y="487.5"/><ellipse cx="486.8467" cy="503.5" fill="#A9DCDF" rx="11" ry="11" style="stroke:#A80036;stroke-width:1;"/><path d="M486.9561,498.8438 L485.7998,503.9219 L488.1279,503.9219 L486.9561,498.8438 Z M485.4717,496.6094 L488.4561,496.6094 L491.8154,509 L489.3623,509 L488.5967,505.9375 L485.3154,505.9375 L484.5654,509 L482.1279,509 L485.4717,496.6094 Z " fill="#000000"/><text fill="#000000" font-family="sans-serif" font-size="14" font-style="italic" lengthAdjust="spacing" textLength="77.8682" x="507.3467" y="508.3467">DataParser</text><line style="stroke:#A80036;stroke-width:1;" x1="420" x2="640.0615" y1="519.5" y2="519.5"/><line style="stroke:#A80036;stroke-width:1;" x1="420" x2="640.0615" y1="527.5" y2="527.5"/><ellipse cx="430" cy="541.1484" fill="#84BE84" rx="3" ry="3" style="stroke:#038048;stroke-width:1;"/><text fill="#000000" font-family="sans-serif" font-size="14" lengthAdjust="spacing" textLength="196.0615" x="439" y="544.4951">parse(data: jsonString): any</text></g><!--class AASDataModelToResourceDataParser--><g class="entity" data-entity="AASDataModelToResourceDataParser" data-source-line="56" data-uid="ent0020" id="entity_AASDataModelToResourceDataParser"><rect fill="#FEFECE" filter="url(#fufee9algfanm)" height="145.7813" style="stroke:#A80036;stroke-width:1;" width="320.8203" x="198.5" y="248"/><ellipse cx="224.8366" cy="264" fill="#ADD1B2" rx="11" ry="11" style="stroke:#A80036;stroke-width:1;"/><path d="M227.8053,269.6406 Q227.2272,269.9375 226.5866,270.0781 Q225.9459,270.2344 225.2428,270.2344 Q222.7428,270.2344 221.4147,268.5938 Q220.1022,266.9375 220.1022,263.8125 Q220.1022,260.6875 221.4147,259.0313 Q222.7428,257.375 225.2428,257.375 Q225.9459,257.375 226.5866,257.5313 Q227.2428,257.6875 227.8053,257.9844 L227.8053,260.7031 Q227.1803,260.125 226.5866,259.8594 Q225.9928,259.5781 225.3678,259.5781 Q224.0241,259.5781 223.3366,260.6563 Q222.6491,261.7188 222.6491,263.8125 Q222.6491,265.9063 223.3366,266.9844 Q224.0241,268.0469 225.3678,268.0469 Q225.9928,268.0469 226.5866,267.7813 Q227.1803,267.5 227.8053,266.9219 L227.8053,269.6406 Z " fill="#000000"/><text fill="#000000" font-family="sans-serif" font-size="14" lengthAdjust="spacing" textLength="263.6279" x="241.3558" y="268.8467">AASDataModelToResourceDataParser</text><line style="stroke:#A80036;stroke-width:1;" x1="199.5" x2="518.3203" y1="280" y2="280"/><rect fill="none" height="6" style="stroke:#C82930;stroke-width:1;" width="6" x="206.5" y="290.6484"/><text fill="#000000" font-family="sans-serif" font-size="14" lengthAdjust="spacing" textLength="294.8203" x="218.5" y="296.9951">ResourceDataModel : ResourceDataModel</text><rect fill="none" height="6" style="stroke:#C82930;stroke-width:1;" width="6" x="206.5" y="306.9453"/><text fill="#000000" font-family="sans-serif" font-size="14" lengthAdjust="spacing" textLength="237.3574" x="218.5" y="313.292">SubmodelTypes : SubmodelTypes</text><line style="stroke:#A80036;stroke-width:1;" x1="199.5" x2="518.3203" y1="320.5938" y2="320.5938"/><ellipse cx="209.5" cy="334.2422" fill="#84BE84" rx="3" ry="3" style="stroke:#038048;stroke-width:1;"/><text fill="#000000" font-family="sans-serif" font-size="14" lengthAdjust="spacing" textLength="129.623" x="218.5" y="337.5889">parse(): jsonString</text><rect fill="#F24D5C" height="6" style="stroke:#C82930;stroke-width:1;" width="6" x="206.5" y="347.5391"/><text fill="#000000" font-family="sans-serif" font-size="14" lengthAdjust="spacing" textLength="196.4238" x="218.5" y="353.8857">parse_submodel_id(): String</text><rect fill="#F24D5C" height="6" style="stroke:#C82930;stroke-width:1;" width="6" x="206.5" y="363.8359"/><text fill="#000000" font-family="sans-serif" font-size="14" lengthAdjust="spacing" textLength="130.1973" x="218.5" y="370.1826">parse_value(): any</text><rect fill="#F24D5C" height="6" style="stroke:#C82930;stroke-width:1;" width="6" x="206.5" y="380.1328"/><text fill="#000000" font-family="sans-serif" font-size="14" lengthAdjust="spacing" textLength="183.5176" x="218.5" y="386.4795">parse_timestamp(): String</text></g><!--class ResourceDataModelToAASDataModelParser--><g class="entity" data-entity="ResourceDataModelToAASDataModelParser" data-source-line="64" data-uid="ent0021" id="entity_ResourceDataModelToAASDataModelParser"><rect fill="#FEFECE" filter="url(#fufee9algfanm)" height="129.4844" style="stroke:#A80036;stroke-width:1;" width="337.6621" x="555" y="256.5"/><ellipse cx="570" cy="272.5" fill="#ADD1B2" rx="11" ry="11" style="stroke:#A80036;stroke-width:1;"/><path d="M572.9688,278.1406 Q572.3906,278.4375 571.75,278.5781 Q571.1094,278.7344 570.4063,278.7344 Q567.9063,278.7344 566.5781,277.0938 Q565.2656,275.4375 565.2656,272.3125 Q565.2656,269.1875 566.5781,267.5313 Q567.9063,265.875 570.4063,265.875 Q571.1094,265.875 571.75,266.0313 Q572.4063,266.1875 572.9688,266.4844 L572.9688,269.2031 Q572.3438,268.625 571.75,268.3594 Q571.1563,268.0781 570.5313,268.0781 Q569.1875,268.0781 568.5,269.1563 Q567.8125,270.2188 567.8125,272.3125 Q567.8125,274.4063 568.5,275.4844 Q569.1875,276.5469 570.5313,276.5469 Q571.1563,276.5469 571.75,276.2813 Q572.3438,276 572.9688,275.4219 L572.9688,278.1406 Z " fill="#000000"/><text fill="#000000" font-family="sans-serif" font-size="14" lengthAdjust="spacing" textLength="305.6621" x="584" y="277.3467">ResourceDataModelToAASDataModelParser</text><line style="stroke:#A80036;stroke-width:1;" x1="556" x2="891.6621" y1="288.5" y2="288.5"/><rect fill="none" height="6" style="stroke:#C82930;stroke-width:1;" width="6" x="563" y="299.1484"/><text fill="#000000" font-family="sans-serif" font-size="14" lengthAdjust="spacing" textLength="220.623" x="575" y="305.4951">AASDataModel : AASDataModel</text><line style="stroke:#A80036;stroke-width:1;" x1="556" x2="891.6621" y1="312.7969" y2="312.7969"/><ellipse cx="566" cy="326.4453" fill="#84BE84" rx="3" ry="3" style="stroke:#038048;stroke-width:1;"/><text fill="#000000" font-family="sans-serif" font-size="14" lengthAdjust="spacing" textLength="129.623" x="575" y="329.792">parse(): jsonString</text><rect fill="#F24D5C" height="6" style="stroke:#C82930;stroke-width:1;" width="6" x="563" y="339.7422"/><text fill="#000000" font-family="sans-serif" font-size="14" lengthAdjust="spacing" textLength="239.1279" x="575" y="346.0889">parse_data_type(): AASDataTypes</text><rect fill="#F24D5C" height="6" style="stroke:#C82930;stroke-width:1;" width="6" x="563" y="356.0391"/><text fill="#000000" font-family="sans-serif" font-size="14" lengthAdjust="spacing" textLength="130.1973" x="575" y="362.3857">parse_value(): any</text><rect fill="#F24D5C" height="6" style="stroke:#C82930;stroke-width:1;" width="6" x="563" y="372.3359"/><text fill="#000000" font-family="sans-serif" font-size="14" lengthAdjust="spacing" textLength="183.5176" x="575" y="378.6826">parse_timestamp(): String</text></g><!--class DataTranslatorClass--><g class="entity" data-entity="DataTranslatorClass" data-source-line="72" data-uid="ent0022" id="entity_DataTranslatorClass"><rect fill="#FEFECE" filter="url(#fufee9algfanm)" height="129.4844" style="stroke:#A80036;stroke-width:1;" width="650.9414" x="398.5" y="42"/><ellipse cx="667.3403" cy="58" fill="#ADD1B2" rx="11" ry="11" style="stroke:#A80036;stroke-width:1;"/><path d="M670.3091,63.6406 Q669.731,63.9375 669.0903,64.0781 Q668.4497,64.2344 667.7466,64.2344 Q665.2466,64.2344 663.9185,62.5938 Q662.606,60.9375 662.606,57.8125 Q662.606,54.6875 663.9185,53.0313 Q665.2466,51.375 667.7466,51.375 Q668.4497,51.375 669.0903,51.5313 Q669.7466,51.6875 670.3091,51.9844 L670.3091,54.7031 Q669.6841,54.125 669.0903,53.8594 Q668.4966,53.5781 667.8716,53.5781 Q666.5278,53.5781 665.8403,54.6563 Q665.1528,55.7188 665.1528,57.8125 Q665.1528,59.9063 665.8403,60.9844 Q666.5278,62.0469 667.8716,62.0469 Q668.4966,62.0469 669.0903,61.7813 Q669.6841,61.5 670.3091,60.9219 L670.3091,63.6406 Z " fill="#000000"/><text fill="#000000" font-family="sans-serif" font-size="14" lengthAdjust="spacing" textLength="104.7607" x="687.8403" y="62.8467">DataTranslator</text><line style="stroke:#A80036;stroke-width:1;" x1="399.5" x2="1048.4414" y1="74" y2="74"/><rect fill="none" height="6" style="stroke:#C82930;stroke-width:1;" width="6" x="406.5" y="84.6484"/><text fill="#000000" font-family="sans-serif" font-size="14" lengthAdjust="spacing" textLength="348.8926" x="418.5" y="90.9951">DataTranslatorConfiguration : DataTranslatorUtils</text><rect fill="none" height="6" style="stroke:#C82930;stroke-width:1;" width="6" x="406.5" y="100.9453"/><text fill="#000000" font-family="sans-serif" font-size="14" lengthAdjust="spacing" textLength="540.873" x="418.5" y="107.292">AASDataModelToResourceDataParser : AASDataModelToResourceDataParser</text><rect fill="none" height="6" style="stroke:#C82930;stroke-width:1;" width="6" x="406.5" y="117.2422"/><text fill="#000000" font-family="sans-serif" font-size="14" lengthAdjust="spacing" textLength="624.9414" x="418.5" y="123.5889">ResourceDataModelToAASDataModelParser : ResourceDataModelToAASDataModelParser</text><line style="stroke:#A80036;stroke-width:1;" x1="399.5" x2="1048.4414" y1="130.8906" y2="130.8906"/><ellipse cx="409.5" cy="144.5391" fill="#84BE84" rx="3" ry="3" style="stroke:#038048;stroke-width:1;"/><text fill="#000000" font-family="sans-serif" font-size="14" lengthAdjust="spacing" textLength="416.2881" x="418.5" y="147.8857">translate_aas_to_resource(aas_data: jsonString): jsonString</text><ellipse cx="409.5" cy="160.8359" fill="#84BE84" rx="3" ry="3" style="stroke:#038048;stroke-width:1;"/><text fill="#000000" font-family="sans-serif" font-size="14" lengthAdjust="spacing" textLength="453.0039" x="418.5" y="164.1826">translate_resource_to_aas(resource_data: jsonString): jsonString</text></g><!--class DataTranslatorUtils--><g class="entity" data-entity="DataTranslatorUtils" data-source-line="81" data-uid="ent0023" id="entity_DataTranslatorUtils"><rect fill="#FEFECE" filter="url(#fufee9algfanm)" height="80.5938" style="stroke:#A80036;stroke-width:1;" width="308.0371" x="928" y="280.5"/><ellipse cx="1009.9834" cy="296.5" fill="#ADD1B2" rx="11" ry="11" style="stroke:#A80036;stroke-width:1;"/><path d="M1012.9521,302.1406 Q1012.374,302.4375 1011.7334,302.5781 Q1011.0928,302.7344 1010.3896,302.7344 Q1007.8896,302.7344 1006.5615,301.0938 Q1005.249,299.4375 1005.249,296.3125 Q1005.249,293.1875 1006.5615,291.5313 Q1007.8896,289.875 1010.3896,289.875 Q1011.0928,289.875 1011.7334,290.0313 Q1012.3896,290.1875 1012.9521,290.4844 L1012.9521,293.2031 Q1012.3271,292.625 1011.7334,292.3594 Q1011.1396,292.0781 1010.5146,292.0781 Q1009.1709,292.0781 1008.4834,293.1563 Q1007.7959,294.2188 1007.7959,296.3125 Q1007.7959,298.4063 1008.4834,299.4844 Q1009.1709,300.5469 1010.5146,300.5469 Q1011.1396,300.5469 1011.7334,300.2813 Q1012.3271,300 1012.9521,299.4219 L1012.9521,302.1406 Z " fill="#000000"/><text fill="#000000" font-family="sans-serif" font-size="14" lengthAdjust="spacing" textLength="135.5703" x="1030.4834" y="301.3467">DataTranslatorUtils</text><line style="stroke:#A80036;stroke-width:1;" x1="929" x2="1235.0371" y1="312.5" y2="312.5"/><ellipse cx="939" cy="326.1484" fill="none" rx="3" ry="3" style="stroke:#038048;stroke-width:1;"/><text fill="#000000" font-family="sans-serif" font-size="14" lengthAdjust="spacing" textLength="282.0371" x="948" y="329.4951">DataTranslatorConfigurationPath: String</text><line style="stroke:#A80036;stroke-width:1;" x1="929" x2="1235.0371" y1="336.7969" y2="336.7969"/><ellipse cx="939" cy="350.4453" fill="#84BE84" rx="3" ry="3" style="stroke:#038048;stroke-width:1;"/><text fill="#000000" font-family="sans-serif" font-size="14" lengthAdjust="spacing" textLength="263.1631" x="948" y="353.792">getDataTranslatorConfig(): jsonString</text></g><!--reverse link DataTranslatorClass to DataTranslatorUtils--><g class="link" data-entity-1="DataTranslatorClass" data-entity-2="DataTranslatorUtils" data-source-line="86" data-uid="lnk24" id="link_DataTranslatorClass_DataTranslatorUtils"><path codeLine="86" d="M841.7294,177.3846 C901.4594,212.8346 963.6,249.72 1015.21,280.35" fill="none" id="DataTranslatorClass-backto-DataTranslatorUtils" style="stroke:#A80036;stroke-width:1;"/><polygon fill="#A80036" points="831.41,171.26,834.5282,177.7621,841.7294,177.3846,838.6112,170.8825,831.41,171.26" style="stroke:#A80036;stroke-width:1;"/><text fill="#000000" font-family="sans-serif" font-size="13" lengthAdjust="spacing" textLength="8.271" x="904" y="214.0669">1</text></g><!--reverse link DataTranslatorClass to AASDataModelToResourceDataParser--><g class="link" data-entity-1="DataTranslatorClass" data-entity-2="AASDataModelToResourceDataParser" data-source-line="87" data-uid="lnk25" id="link_DataTranslatorClass_AASDataModelToResourceDataParser"><path codeLine="87" d="M604.1191,177.297 C562.6491,201.437 525.52,223.05 482.82,247.91" fill="none" id="DataTranslatorClass-backto-AASDataModelToResourceDataParser" style="stroke:#A80036;stroke-width:1;"/><polygon fill="#A80036" points="614.49,171.26,607.2922,170.8215,604.1191,177.297,611.3169,177.7354,614.49,171.26" style="stroke:#A80036;stroke-width:1;"/><text fill="#000000" font-family="sans-serif" font-size="13" lengthAdjust="spacing" textLength="8.271" x="564" y="214.0669">1</text></g><!--reverse link DataTranslatorClass to ResourceDataModelToAASDataModelParser--><g class="link" data-entity-1="DataTranslatorClass" data-entity-2="ResourceDataModelToAASDataModelParser" data-source-line="88" data-uid="lnk26" id="link_DataTranslatorClass_ResourceDataModelToAASDataModelParser"><path codeLine="88" d="M724,183.26 C724,210.15 724,229.4 724,256.29" fill="none" id="DataTranslatorClass-backto-ResourceDataModelToAASDataModelParser" style="stroke:#A80036;stroke-width:1;"/><polygon fill="#A80036" points="724,171.26,720,177.26,724,183.26,728,177.26,724,171.26" style="stroke:#A80036;stroke-width:1;"/><text fill="#000000" font-family="sans-serif" font-size="13" lengthAdjust="spacing" textLength="8.271" x="725" y="214.0669">1</text></g><!--link AASDataModelToResourceDataParser to DataParser--><g class="link" data-entity-1="AASDataModelToResourceDataParser" data-entity-2="DataParser" data-source-line="89" data-uid="lnk27" id="link_AASDataModelToResourceDataParser_DataParser"><path codeLine="89" d="M421.7,394.05 C449.63,426.15 469.2442,448.6811 491.0242,473.7111" fill="none" id="AASDataModelToResourceDataParser-to-DataParser" style="stroke:#A80036;stroke-width:1;stroke-dasharray:7,7;"/><polygon fill="none" points="502.84,487.29,495.5505,469.7725,486.4979,477.6497,502.84,487.29" style="stroke:#A80036;stroke-width:1;"/></g><!--link ResourceDataModelToAASDataModelParser to DataParser--><g class="link" data-entity-1="ResourceDataModelToAASDataModelParser" data-entity-2="DataParser" data-source-line="90" data-uid="lnk28" id="link_ResourceDataModelToAASDataModelParser_DataParser"><path codeLine="90" d="M661.28,385.53 C627.63,419.61 600.3078,447.2925 573.3778,474.5625" fill="none" id="ResourceDataModelToAASDataModelParser-to-DataParser" style="stroke:#A80036;stroke-width:1;stroke-dasharray:7,7;"/><polygon fill="none" points="560.73,487.37,577.647,478.7784,569.1087,470.3465,560.73,487.37" style="stroke:#A80036;stroke-width:1;"/></g><!--link AASDataModel to AASDataTypes--><g class="link" data-entity-1="AASDataModel" data-entity-2="AASDataTypes" data-source-line="91" data-uid="lnk29" id="link_AASDataModel_AASDataTypes"><path codeLine="91" d="M755.49,568.41 C741.86,595.05 725.1,627.8 712.23,652.97" fill="none" id="AASDataModel-AASDataTypes" style="stroke:#A80036;stroke-width:1;"/><text fill="#000000" font-family="sans-serif" font-size="13" lengthAdjust="spacing" textLength="8.271" x="739" y="611.0669">1</text></g><!--link ResourceDataModel to SubmodelTypes--><g class="link" data-entity-1="ResourceDataModel" data-entity-2="SubmodelTypes" data-source-line="92" data-uid="lnk30" id="link_ResourceDataModel_SubmodelTypes"><path codeLine="92" d="M241,568.18 C212.98,592.04 179.15,620.85 151.11,644.72" fill="none" id="ResourceDataModel-SubmodelTypes" style="stroke:#A80036;stroke-width:1;"/><text fill="#000000" font-family="sans-serif" font-size="13" lengthAdjust="spacing" textLength="8.271" x="203" y="611.0669">1</text></g><!--link AASDataModelToResourceDataParser to ResourceDataModel--><g class="link" data-entity-1="AASDataModelToResourceDataParser" data-entity-2="ResourceDataModel" data-source-line="93" data-uid="lnk31" id="link_AASDataModelToResourceDataParser_ResourceDataModel"><path codeLine="93" d="M336.27,394.05 C328.18,419.68 319.28,447.88 312,470.94" fill="none" id="AASDataModelToResourceDataParser-ResourceDataModel" style="stroke:#A80036;stroke-width:1;"/><text fill="#000000" font-family="sans-serif" font-size="13" lengthAdjust="spacing" textLength="8.271" x="327" y="437.0669">1</text></g><!--link ResourceDataModelToAASDataModelParser to AASDataModel--><g class="link" data-entity-1="ResourceDataModelToAASDataModelParser" data-entity-2="AASDataModel" data-source-line="94" data-uid="lnk32" id="link_ResourceDataModelToAASDataModelParser_AASDataModel"><path codeLine="94" d="M742.1,385.53 C750,413.22 759.09,445.14 766.4,470.77" fill="none" id="ResourceDataModelToAASDataModelParser-AASDataModel" style="stroke:#A80036;stroke-width:1;"/><text fill="#000000" font-family="sans-serif" font-size="13" lengthAdjust="spacing" textLength="8.271" x="758" y="437.0669">1</text></g><!--SRC=[fLLBRnen4BxpAqRqGjeiILhrieT8AuZKIir3MN961WphPdUziaq8QlFVEnulopuSe4eE0NiUdlc-RmRzB79GKlDUZwMft6JYLUIhNWzWBhD2vZmtq1ypmoQAvJfbHge-C0tDA_XZ8m1uliwW7qKncRS5r-HSlq1NeBzu4arkok-Z-zlRw6vCfpVwdql3OIQDaHd8PJF3frIi4hDIdEVaEqaunEjP9XSyrP0naQTRIDWBXwzWA08pB30S37hEPJxdAgVlqShsHqa2Lr08VBY2qLefQuaDC_mSVWYDJOevIwdlqhyisaN4po9DoQ0bfXRQOR7WIv5Z0IP1YC5iP5cGaJ3ZiDPy0Q8inNLuQvieiLmG2WvPM_uePLfNy99d7LwwgE3zGY5J-rpOWA-olx1qZJQMRwih8pAk3SkA45jNLWZ7676FjXbvv8NY6X7Km00nvWYUZN0ia0kn1HjX4dHnv61rvwwgSwngiQzcI16RX2iEOabmLH60KADKCmf8k0EJag25ugBu5sZg1ctCM04Or8WjhGeaElWhdwyDKZBRKXPiGQxLd5CMHbAnLFV72ha6pFJjyl8IL9714aVW-zpINPYaxw7F3SPEfFl9QDnuHoE-kOll7yj3D9eyHPFowAMbcR0xAIJ312_0UJY1KhiPAmeBadG8wp8JY0LSE6MNDpSfpomOOk68iQ0G7qk5HIYEOu92vSPIGnFah45mRT-mODTpznl3rWAl9Vt7af6c_ZktjI7OlJJ5bngY_lW4T9yzQGns5LsquTpFHciwAhH-ZW_DHmCqfzaPwfxDKV84dotqWIdDLGsWmbuCxDiX_DOoTrsVxL5vSmfsAUfJFv5r15g90myyOVUkycxgDcoUMyMUrIkjCf1jMkFR-dbz2CB1MPtudQc2j1NyLiEWqyH4rc7f0D7Ob65tqP_MMBNDhPTddt-ekLftnt_itIpk-sjPPRuKgxLYHiWSssrQdun8jHSPhvh2eoxloytBIdYQNvcr-O7BeUo3JndJKoEdkr-8WJrxPgZ3PZt7BjWcmlX1TJwUwErzmWZXVct03z3pm4pIMOehRdmX0ryLzE5Jn-SWy36F-5yTZ3b14OSJd2e3b-NeSyFXtsjegUsq9toHZKsmxtQtywxywQrdUpsUM7xWNyDN_z57q5bWDXgf_mS0]--></g></svg>