<svg xmlns="http://www.w3.org/2000/svg" xmlns:xlink="http://www.w3.org/1999/xlink" contentStyleType="text/css" data-diagram-type="CLASS" height="620px" preserveAspectRatio="none" style="width:1860px;height:620px;background:#FFFFFF;" version="1.1" viewBox="0 0 1860 620" width="1860px" zoomAndPan="magnify"><defs><filter height="300%" id="fxgxhec16cg5" width="300%" x="-1" y="-1"><feGaussianBlur result="blurOut" stdDeviation="2"/><feColorMatrix in="blurOut" result="blurOut2" type="matrix" values="0 0 0 0 0 0 0 0 0 0 0 0 0 0 0 0 0 0 .4 0"/><feOffset dx="4" dy="4" in="blurOut2" result="blurOut3"/><feBlend in="SourceGraphic" in2="blurOut3" mode="normal"/></filter></defs><g><!--cluster RESTClient--><g class="cluster" data-entity="RESTClient" data-source-line="5" data-uid="ent0002" id="cluster_RESTClient"><rect fill="none" filter="url(#fxgxhec16cg5)" height="599" style="stroke:#A80036;stroke-width:1;" width="1839" x="7" y="7"/><rect fill="none" height="10" style="stroke:#A80036;stroke-width:1;" width="15" x="1826" y="12"/><rect fill="none" height="2" style="stroke:#A80036;stroke-width:1;" width="4" x="1824" y="14"/><rect fill="none" height="2" style="stroke:#A80036;stroke-width:1;" width="4" x="1824" y="18"/><text fill="#000000" font-family="sans-serif" font-size="14" font-weight="bold" lengthAdjust="spacing" textLength="86.0029" x="883.4985" y="32.9951">RESTClient</text></g><!--class AssetRepository--><g class="entity" data-entity="AssetRepository" data-source-line="7" data-uid="ent0003" id="entity_AssetRepository"><rect fill="#FEFECE" filter="url(#fxgxhec16cg5)" height="113.1875" style="stroke:#A80036;stroke-width:1;" width="460.7588" x="1368.5" y="428"/><ellipse cx="1537.9595" cy="444" fill="#ADD1B2" rx="11" ry="11" style="stroke:#A80036;stroke-width:1;"/><path d="M1540.9282,449.6406 Q1540.3501,449.9375 1539.7095,450.0781 Q1539.0688,450.2344 1538.3657,450.2344 Q1535.8657,450.2344 1534.5376,448.5938 Q1533.2251,446.9375 1533.2251,443.8125 Q1533.2251,440.6875 1534.5376,439.0313 Q1535.8657,437.375 1538.3657,437.375 Q1539.0688,437.375 1539.7095,437.5313 Q1540.3657,437.6875 1540.9282,437.9844 L1540.9282,440.7031 Q1540.3032,440.125 1539.7095,439.8594 Q1539.1157,439.5781 1538.4907,439.5781 Q1537.147,439.5781 1536.4595,440.6563 Q1535.772,441.7188 1535.772,443.8125 Q1535.772,445.9063 1536.4595,446.9844 Q1537.147,448.0469 1538.4907,448.0469 Q1539.1157,448.0469 1539.7095,447.7813 Q1540.3032,447.5 1540.9282,446.9219 L1540.9282,449.6406 Z " fill="#000000"/><text fill="#000000" font-family="sans-serif" font-size="14" lengthAdjust="spacing" textLength="113.3398" x="1558.4595" y="448.8467">AssetRepository</text><line style="stroke:#A80036;stroke-width:1;" x1="1369.5" x2="1828.2588" y1="460" y2="460"/><line style="stroke:#A80036;stroke-width:1;" x1="1369.5" x2="1828.2588" y1="468" y2="468"/><ellipse cx="1379.5" cy="481.6484" fill="#84BE84" rx="3" ry="3" style="stroke:#038048;stroke-width:1;"/><text fill="#000000" font-family="sans-serif" font-size="14" lengthAdjust="spacing" textLength="327.3867" x="1388.5" y="484.9951">createAas(aas_payload: jsonString): jsonString</text><ellipse cx="1379.5" cy="497.9453" fill="#84BE84" rx="3" ry="3" style="stroke:#038048;stroke-width:1;"/><text fill="#000000" font-family="sans-serif" font-size="14" lengthAdjust="spacing" textLength="232.8252" x="1388.5" y="501.292">getAas(ass_id: String): jsonString</text><ellipse cx="1379.5" cy="514.2422" fill="#84BE84" rx="3" ry="3" style="stroke:#038048;stroke-width:1;"/><text fill="#000000" font-family="sans-serif" font-size="14" lengthAdjust="spacing" textLength="434.7588" x="1388.5" y="517.5889">updateAas(ass_id: String, aas_payload: jsonString): jsonString</text><ellipse cx="1379.5" cy="530.5391" fill="#84BE84" rx="3" ry="3" style="stroke:#038048;stroke-width:1;"/><text fill="#000000" font-family="sans-serif" font-size="14" lengthAdjust="spacing" textLength="213.165" x="1388.5" y="533.8857">deleteAas(ass_id: String): void</text></g><!--class SubmodelRepository--><g class="entity" data-entity="SubmodelRepository" data-source-line="13" data-uid="ent0004" id="entity_SubmodelRepository"><rect fill="#FEFECE" filter="url(#fxgxhec16cg5)" height="210.9688" style="stroke:#A80036;stroke-width:1;" width="782.6426" x="550.5" y="379"/><ellipse cx="864.9155" cy="395" fill="#ADD1B2" rx="11" ry="11" style="stroke:#A80036;stroke-width:1;"/><path d="M867.8843,400.6406 Q867.3062,400.9375 866.6655,401.0781 Q866.0249,401.2344 865.3218,401.2344 Q862.8218,401.2344 861.4937,399.5938 Q860.1812,397.9375 860.1812,394.8125 Q860.1812,391.6875 861.4937,390.0313 Q862.8218,388.375 865.3218,388.375 Q866.0249,388.375 866.6655,388.5313 Q867.3218,388.6875 867.8843,388.9844 L867.8843,391.7031 Q867.2593,391.125 866.6655,390.8594 Q866.0718,390.5781 865.4468,390.5781 Q864.103,390.5781 863.4155,391.6563 Q862.728,392.7188 862.728,394.8125 Q862.728,396.9063 863.4155,397.9844 Q864.103,399.0469 865.4468,399.0469 Q866.0718,399.0469 866.6655,398.7813 Q867.2593,398.5 867.8843,397.9219 L867.8843,400.6406 Z " fill="#000000"/><text fill="#000000" font-family="sans-serif" font-size="14" lengthAdjust="spacing" textLength="145.3115" x="885.4155" y="399.8467">SubmodelRepository</text><line style="stroke:#A80036;stroke-width:1;" x1="551.5" x2="1332.1426" y1="411" y2="411"/><line style="stroke:#A80036;stroke-width:1;" x1="551.5" x2="1332.1426" y1="419" y2="419"/><ellipse cx="561.5" cy="432.6484" fill="#84BE84" rx="3" ry="3" style="stroke:#038048;stroke-width:1;"/><text fill="#000000" font-family="sans-serif" font-size="14" lengthAdjust="spacing" textLength="416.3701" x="570.5" y="435.9951">createSubmodel(submodel_payload: jsonString): jsonString</text><ellipse cx="561.5" cy="448.9453" fill="#84BE84" rx="3" ry="3" style="stroke:#038048;stroke-width:1;"/><text fill="#000000" font-family="sans-serif" font-size="14" lengthAdjust="spacing" textLength="521.5068" x="570.5" y="452.292">updateSubmodel(sm_id: String, submodel_payload: jsonString): jsonString</text><ellipse cx="561.5" cy="465.2422" fill="#84BE84" rx="3" ry="3" style="stroke:#038048;stroke-width:1;"/><text fill="#000000" font-family="sans-serif" font-size="14" lengthAdjust="spacing" textLength="255.7188" x="570.5" y="468.5889">deleteSubmodel(sm_id: String): void</text><ellipse cx="561.5" cy="481.5391" fill="#84BE84" rx="3" ry="3" style="stroke:#038048;stroke-width:1;"/><text fill="#000000" font-family="sans-serif" font-size="14" lengthAdjust="spacing" textLength="314.9111" x="570.5" y="484.8857">getSubmodelValue(sm_id: String): jsonString</text><ellipse cx="561.5" cy="497.8359" fill="#84BE84" rx="3" ry="3" style="stroke:#038048;stroke-width:1;"/><text fill="#000000" font-family="sans-serif" font-size="14" lengthAdjust="spacing" textLength="399.2529" x="570.5" y="501.1826">setSubmodelValue(sm_id: String, value: jsonString): void</text><text fill="#000000" font-family="sans-serif" font-size="14" lengthAdjust="spacing" textLength="4.4502" x="570.5" y="517.4795">&#160;</text><ellipse cx="561.5" cy="530.4297" fill="#84BE84" rx="3" ry="3" style="stroke:#038048;stroke-width:1;"/><text fill="#000000" font-family="sans-serif" font-size="14" lengthAdjust="spacing" textLength="539.0615" x="570.5" y="533.7764">createSubmodelElement(submodel_element_payload: jsonString): jsonString</text><ellipse cx="561.5" cy="546.7266" fill="#84BE84" rx="3" ry="3" style="stroke:#038048;stroke-width:1;"/><text fill="#000000" font-family="sans-serif" font-size="14" lengthAdjust="spacing" textLength="445.7852" x="570.5" y="550.0732">getSubmodelElement(submodel_element_id: String): jsonString</text><ellipse cx="561.5" cy="563.0234" fill="#84BE84" rx="3" ry="3" style="stroke:#038048;stroke-width:1;"/><text fill="#000000" font-family="sans-serif" font-size="14" lengthAdjust="spacing" textLength="756.6426" x="570.5" y="566.3701">updateSubmodelElement(submodel_element_id: String, submodel_element_payload: jsonString): jsonString</text><ellipse cx="561.5" cy="579.3203" fill="#84BE84" rx="3" ry="3" style="stroke:#038048;stroke-width:1;"/><text fill="#000000" font-family="sans-serif" font-size="14" lengthAdjust="spacing" textLength="426.125" x="570.5" y="582.667">deleteSubmodelElement(submodel_element_id: String): void</text></g><!--class RESTClientClass--><g class="entity" data-entity="RESTClientClass" data-source-line="25" data-uid="ent0005" id="entity_RESTClientClass"><rect fill="#FEFECE" filter="url(#fxgxhec16cg5)" height="194.6719" style="stroke:#A80036;stroke-width:1;" width="382.665" x="750.5" y="74.5"/><ellipse cx="899.3115" cy="90.5" fill="#ADD1B2" rx="11" ry="11" style="stroke:#A80036;stroke-width:1;"/><path d="M902.2803,96.1406 Q901.7021,96.4375 901.0615,96.5781 Q900.4209,96.7344 899.7178,96.7344 Q897.2178,96.7344 895.8896,95.0938 Q894.5771,93.4375 894.5771,90.3125 Q894.5771,87.1875 895.8896,85.5313 Q897.2178,83.875 899.7178,83.875 Q900.4209,83.875 901.0615,84.0313 Q901.7178,84.1875 902.2803,84.4844 L902.2803,87.2031 Q901.6553,86.625 901.0615,86.3594 Q900.4678,86.0781 899.8428,86.0781 Q898.499,86.0781 897.8115,87.1563 Q897.124,88.2188 897.124,90.3125 Q897.124,92.4063 897.8115,93.4844 Q898.499,94.5469 899.8428,94.5469 Q900.4678,94.5469 901.0615,94.2813 Q901.6553,94 902.2803,93.4219 L902.2803,96.1406 Z " fill="#000000"/><text fill="#000000" font-family="sans-serif" font-size="14" lengthAdjust="spacing" textLength="76.542" x="919.8115" y="95.3467">RESTClient</text><line style="stroke:#A80036;stroke-width:1;" x1="751.5" x2="1132.165" y1="106.5" y2="106.5"/><rect fill="none" height="6" style="stroke:#C82930;stroke-width:1;" width="6" x="758.5" y="117.1484"/><text fill="#000000" font-family="sans-serif" font-size="14" lengthAdjust="spacing" textLength="119.2734" x="770.5" y="123.4951">client: RestClient</text><rect fill="none" height="6" style="stroke:#C82930;stroke-width:1;" width="6" x="758.5" y="133.4453"/><text fill="#000000" font-family="sans-serif" font-size="14" lengthAdjust="spacing" textLength="160.9795" x="770.5" y="139.792">Session : ClientSession</text><rect fill="none" height="6" style="stroke:#C82930;stroke-width:1;" width="6" x="758.5" y="149.7422"/><text fill="#000000" font-family="sans-serif" font-size="14" lengthAdjust="spacing" textLength="156.2969" x="770.5" y="156.0889">ClientUtils : ClientUtils</text><ellipse cx="761.5" cy="169.0391" fill="none" rx="3" ry="3" style="stroke:#038048;stroke-width:1;"/><text fill="#000000" font-family="sans-serif" font-size="14" lengthAdjust="spacing" textLength="304.2402" x="770.5" y="172.3857">SubmodelRepository : SubmodelRepository</text><ellipse cx="761.5" cy="185.3359" fill="none" rx="3" ry="3" style="stroke:#038048;stroke-width:1;"/><text fill="#000000" font-family="sans-serif" font-size="14" lengthAdjust="spacing" textLength="240.2969" x="770.5" y="188.6826">AssetRepository : AssetRepository</text><line style="stroke:#A80036;stroke-width:1;" x1="751.5" x2="1132.165" y1="195.9844" y2="195.9844"/><ellipse cx="761.5" cy="209.6328" fill="#84BE84" rx="3" ry="3" style="stroke:#038048;stroke-width:1;"/><text fill="#000000" font-family="sans-serif" font-size="14" lengthAdjust="spacing" textLength="170.5566" x="770.5" y="212.9795">__aenter__(): RESTClient</text><ellipse cx="761.5" cy="225.9297" fill="#84BE84" rx="3" ry="3" style="stroke:#038048;stroke-width:1;"/><text fill="#000000" font-family="sans-serif" font-size="14" lengthAdjust="spacing" textLength="112.5742" x="770.5" y="229.2764">__aexit__(): void</text><ellipse cx="761.5" cy="242.2266" fill="#84BE84" rx="3" ry="3" style="stroke:#038048;stroke-width:1;"/><text fill="#000000" font-family="sans-serif" font-size="14" lengthAdjust="spacing" textLength="326.9287" x="770.5" y="245.5732">getAssetInformation(ass_id: String): jsonString</text><ellipse cx="761.5" cy="258.5234" fill="#84BE84" rx="3" ry="3" style="stroke:#038048;stroke-width:1;"/><text fill="#000000" font-family="sans-serif" font-size="14" lengthAdjust="spacing" textLength="356.665" x="770.5" y="261.8701">getSubmodelInformation(sm_id: String): jsonString</text></g><!--class AASEventClass--><g class="entity" data-entity="AASEventClass" data-source-line="37" data-uid="ent0006" id="entity_AASEventClass"><rect fill="#FEFECE" filter="url(#fxgxhec16cg5)" height="259.8594" style="stroke:#A80036;stroke-width:1;" width="314.6406" x="111.5" y="42"/><ellipse cx="230.4966" cy="58" fill="#ADD1B2" rx="11" ry="11" style="stroke:#A80036;stroke-width:1;"/><path d="M233.4653,63.6406 Q232.8872,63.9375 232.2466,64.0781 Q231.606,64.2344 230.9028,64.2344 Q228.4028,64.2344 227.0747,62.5938 Q225.7622,60.9375 225.7622,57.8125 Q225.7622,54.6875 227.0747,53.0313 Q228.4028,51.375 230.9028,51.375 Q231.606,51.375 232.2466,51.5313 Q232.9028,51.6875 233.4653,51.9844 L233.4653,54.7031 Q232.8403,54.125 232.2466,53.8594 Q231.6528,53.5781 231.0278,53.5781 Q229.6841,53.5781 228.9966,54.6563 Q228.3091,55.7188 228.3091,57.8125 Q228.3091,59.9063 228.9966,60.9844 Q229.6841,62.0469 231.0278,62.0469 Q231.6528,62.0469 232.2466,61.7813 Q232.8403,61.5 233.4653,60.9219 L233.4653,63.6406 Z " fill="#000000"/><text fill="#000000" font-family="sans-serif" font-size="14" lengthAdjust="spacing" textLength="68.1475" x="250.9966" y="62.8467">AASEvent</text><line style="stroke:#A80036;stroke-width:1;" x1="112.5" x2="425.1406" y1="74" y2="74"/><rect fill="none" height="6" style="stroke:#C82930;stroke-width:1;" width="6" x="119.5" y="84.6484"/><text fill="#000000" font-family="sans-serif" font-size="14" lengthAdjust="spacing" textLength="156.2969" x="131.5" y="90.9951">ClientUtils : ClientUtils</text><rect fill="none" height="6" style="stroke:#C82930;stroke-width:1;" width="6" x="119.5" y="100.9453"/><text fill="#000000" font-family="sans-serif" font-size="14" lengthAdjust="spacing" textLength="101.8008" x="131.5" y="107.292">Broker : String</text><rect fill="none" height="6" style="stroke:#C82930;stroke-width:1;" width="6" x="119.5" y="117.2422"/><text fill="#000000" font-family="sans-serif" font-size="14" lengthAdjust="spacing" textLength="60.1221" x="131.5" y="123.5889">Port : int</text><rect fill="none" height="6" style="stroke:#C82930;stroke-width:1;" width="6" x="119.5" y="133.5391"/><text fill="#000000" font-family="sans-serif" font-size="14" lengthAdjust="spacing" textLength="144.3066" x="131.5" y="139.8857">Topics : list&lt;String&gt;</text><line style="stroke:#A80036;stroke-width:1;" x1="112.5" x2="425.1406" y1="147.1875" y2="147.1875"/><ellipse cx="122.5" cy="160.8359" fill="#84BE84" rx="3" ry="3" style="stroke:#038048;stroke-width:1;"/><text fill="#000000" font-family="sans-serif" font-size="14" lengthAdjust="spacing" textLength="124.4482" x="131.5" y="164.1826">StartClient(): void</text><ellipse cx="122.5" cy="177.1328" fill="#84BE84" rx="3" ry="3" style="stroke:#038048;stroke-width:1;"/><text fill="#000000" font-family="sans-serif" font-size="14" lengthAdjust="spacing" textLength="122.0762" x="131.5" y="180.4795">StopClient(): void</text><ellipse cx="122.5" cy="193.4297" fill="#84BE84" rx="3" ry="3" style="stroke:#038048;stroke-width:1;"/><text fill="#000000" font-family="sans-serif" font-size="14" lengthAdjust="spacing" textLength="244.8018" x="131.5" y="196.7764">onAASCreated(ass_id: String): void</text><ellipse cx="122.5" cy="209.7266" fill="#84BE84" rx="3" ry="3" style="stroke:#038048;stroke-width:1;"/><text fill="#000000" font-family="sans-serif" font-size="14" lengthAdjust="spacing" textLength="248.6777" x="131.5" y="213.0732">onAASUpdated(ass_id: String): void</text><ellipse cx="122.5" cy="226.0234" fill="#84BE84" rx="3" ry="3" style="stroke:#038048;stroke-width:1;"/><text fill="#000000" font-family="sans-serif" font-size="14" lengthAdjust="spacing" textLength="243.9746" x="131.5" y="229.3701">onAASDeleted(ass_id: String): void</text><text fill="#000000" font-family="sans-serif" font-size="14" lengthAdjust="spacing" textLength="4.4502" x="131.5" y="245.667">&#160;</text><ellipse cx="122.5" cy="258.6172" fill="#84BE84" rx="3" ry="3" style="stroke:#038048;stroke-width:1;"/><text fill="#000000" font-family="sans-serif" font-size="14" lengthAdjust="spacing" textLength="284.7646" x="131.5" y="261.9639">onSubmodelCreated(sm_id: String): void</text><ellipse cx="122.5" cy="274.9141" fill="#84BE84" rx="3" ry="3" style="stroke:#038048;stroke-width:1;"/><text fill="#000000" font-family="sans-serif" font-size="14" lengthAdjust="spacing" textLength="288.6406" x="131.5" y="278.2607">onSubmodelUpdated(sm_id: String): void</text><ellipse cx="122.5" cy="291.2109" fill="#84BE84" rx="3" ry="3" style="stroke:#038048;stroke-width:1;"/><text fill="#000000" font-family="sans-serif" font-size="14" lengthAdjust="spacing" textLength="283.9375" x="131.5" y="294.5576">onSubmodelDeleted(sm_id: String): void</text></g><!--class ClientUtilsClass--><g class="entity" data-entity="ClientUtilsClass" data-source-line="55" data-uid="ent0007" id="entity_ClientUtilsClass"><rect fill="#FEFECE" filter="url(#fxgxhec16cg5)" height="194.6719" style="stroke:#A80036;stroke-width:1;" width="491.8418" x="23" y="387"/><ellipse cx="229.001" cy="403" fill="#ADD1B2" rx="11" ry="11" style="stroke:#A80036;stroke-width:1;"/><path d="M231.9697,408.6406 Q231.3916,408.9375 230.751,409.0781 Q230.1104,409.2344 229.4072,409.2344 Q226.9072,409.2344 225.5791,407.5938 Q224.2666,405.9375 224.2666,402.8125 Q224.2666,399.6875 225.5791,398.0313 Q226.9072,396.375 229.4072,396.375 Q230.1104,396.375 230.751,396.5313 Q231.4072,396.6875 231.9697,396.9844 L231.9697,399.7031 Q231.3447,399.125 230.751,398.8594 Q230.1572,398.5781 229.5322,398.5781 Q228.1885,398.5781 227.501,399.6563 Q226.8135,400.7188 226.8135,402.8125 Q226.8135,404.9063 227.501,405.9844 Q228.1885,407.0469 229.5322,407.0469 Q230.1572,407.0469 230.751,406.7813 Q231.3447,406.5 231.9697,405.9219 L231.9697,408.6406 Z " fill="#000000"/><text fill="#000000" font-family="sans-serif" font-size="14" lengthAdjust="spacing" textLength="71.3398" x="249.501" y="407.8467">ClientUtils</text><line style="stroke:#A80036;stroke-width:1;" x1="24" x2="513.8418" y1="419" y2="419"/><ellipse cx="34" cy="432.6484" fill="none" rx="3" ry="3" style="stroke:#038048;stroke-width:1;"/><text fill="#000000" font-family="sans-serif" font-size="14" lengthAdjust="spacing" textLength="217.8066" x="43" y="435.9951">ClientConfigurationPath: String</text><line style="stroke:#A80036;stroke-width:1;" x1="24" x2="513.8418" y1="443.2969" y2="443.2969"/><ellipse cx="34" cy="456.9453" fill="#84BE84" rx="3" ry="3" style="stroke:#038048;stroke-width:1;"/><text fill="#000000" font-family="sans-serif" font-size="14" lengthAdjust="spacing" textLength="145.2842" x="43" y="460.292">getClientUrl(): String</text><ellipse cx="34" cy="473.2422" fill="#84BE84" rx="3" ry="3" style="stroke:#038048;stroke-width:1;"/><text fill="#000000" font-family="sans-serif" font-size="14" lengthAdjust="spacing" textLength="130.1152" x="43" y="476.5889">getClientPort(): int</text><ellipse cx="34" cy="489.5391" fill="#84BE84" rx="3" ry="3" style="stroke:#038048;stroke-width:1;"/><text fill="#000000" font-family="sans-serif" font-size="14" lengthAdjust="spacing" textLength="300.7266" x="43" y="492.8857">getClientEndpoint(endpoint: String): String</text><ellipse cx="34" cy="505.8359" fill="#84BE84" rx="3" ry="3" style="stroke:#038048;stroke-width:1;"/><text fill="#000000" font-family="sans-serif" font-size="14" lengthAdjust="spacing" textLength="193.5732" x="43" y="509.1826">getAASJsonDirPath(): String</text><ellipse cx="34" cy="522.1328" fill="#84BE84" rx="3" ry="3" style="stroke:#038048;stroke-width:1;"/><text fill="#000000" font-family="sans-serif" font-size="14" lengthAdjust="spacing" textLength="198.502" x="43" y="525.4795">getAllAASIds(): List&lt;String&gt;</text><ellipse cx="34" cy="538.4297" fill="#84BE84" rx="3" ry="3" style="stroke:#038048;stroke-width:1;"/><text fill="#000000" font-family="sans-serif" font-size="14" lengthAdjust="spacing" textLength="195.0361" x="43" y="541.7764">getAllTopics(): List&lt;String&gt;</text><ellipse cx="34" cy="554.7266" fill="#84BE84" rx="3" ry="3" style="stroke:#038048;stroke-width:1;"/><text fill="#000000" font-family="sans-serif" font-size="14" lengthAdjust="spacing" textLength="377.4531" x="43" y="558.0732">create_aas_from_file(aas_file_path: String): jsonString</text><ellipse cx="34" cy="571.0234" fill="#84BE84" rx="3" ry="3" style="stroke:#038048;stroke-width:1;"/><text fill="#000000" font-family="sans-serif" font-size="14" lengthAdjust="spacing" textLength="465.8418" x="43" y="574.3701">create_submodel_from_file(submodel_file_path: String): jsonString</text></g><!--reverse link RESTClientClass to ClientUtilsClass--><g class="link" data-entity-1="RESTClientClass" data-entity-2="ClientUtilsClass" data-source-line="69" data-uid="lnk8" id="link_RESTClientClass_ClientUtilsClass"><path codeLine="69" d="M739.604,266.3776 C654.604,305.5976 565.24,346.83 478.27,386.95" fill="none" id="RESTClientClass-backto-ClientUtilsClass" style="stroke:#A80036;stroke-width:1;"/><polygon fill="#A80036" points="750.5,261.35,743.3761,260.2318,739.604,266.3776,746.7278,267.4958,750.5,261.35" style="stroke:#A80036;stroke-width:1;"/><text fill="#000000" font-family="sans-serif" font-size="13" lengthAdjust="spacing" textLength="8.271" x="586" y="345.0669">1</text></g><!--reverse link AASEventClass to ClientUtilsClass--><g class="link" data-entity-1="AASEventClass" data-entity-2="ClientUtilsClass" data-source-line="70" data-uid="lnk9" id="link_AASEventClass_ClientUtilsClass"><path codeLine="70" d="M269,314.43 C269,342.72 269,360.18 269,386.93" fill="none" id="AASEventClass-backto-ClientUtilsClass" style="stroke:#A80036;stroke-width:1;"/><polygon fill="#A80036" points="269,302.43,265,308.43,269,314.43,273,308.43,269,302.43" style="stroke:#A80036;stroke-width:1;"/><text fill="#000000" font-family="sans-serif" font-size="13" lengthAdjust="spacing" textLength="8.271" x="270" y="345.0669">1</text></g><!--reverse link RESTClientClass to SubmodelRepository--><g class="link" data-entity-1="RESTClientClass" data-entity-2="SubmodelRepository" data-source-line="71" data-uid="lnk10" id="link_RESTClientClass_SubmodelRepository"><path codeLine="71" d="M942,281.54 C942,316.26 942,343.56 942,378.93" fill="none" id="RESTClientClass-backto-SubmodelRepository" style="stroke:#A80036;stroke-width:1;"/><polygon fill="#A80036" points="942,269.54,938,275.54,942,281.54,946,275.54,942,269.54" style="stroke:#A80036;stroke-width:1;"/><text fill="#000000" font-family="sans-serif" font-size="13" lengthAdjust="spacing" textLength="8.271" x="943" y="345.0669">1</text></g><!--reverse link RESTClientClass to AssetRepository--><g class="link" data-entity-1="RESTClientClass" data-entity-2="AssetRepository" data-source-line="72" data-uid="lnk11" id="link_RESTClientClass_AssetRepository"><path codeLine="72" d="M1144.6491,268.768 C1257.1391,321.938 1384.81,382.27 1481.31,427.88" fill="none" id="RESTClientClass-backto-AssetRepository" style="stroke:#A80036;stroke-width:1;"/><polygon fill="#A80036" points="1133.8,263.64,1137.5152,269.8204,1144.6491,268.768,1140.9339,262.5876,1133.8,263.64" style="stroke:#A80036;stroke-width:1;"/><text fill="#000000" font-family="sans-serif" font-size="13" lengthAdjust="spacing" textLength="8.271" x="1310" y="345.0669">1</text></g><!--SRC=[bLPDZzem4BtdLrYSQ7Svz1fLbIZBOQiULh3RQ-GImxhhn977q5rL_FUExJXnd1025-oPD-FvU3C0RxmaIW8ZIKA5a7yB_ixBGq9sigXaoKfDPflrzdabE9vdX09fh-HVaX3yx0G58BCb0DCRLadWMgeF2uvaQ47ivuxi5AEQBIdCAOMieXz2qZmbVq2MMwqmXa_XfJ4xC6rj03AEy37eiShz2ntqFRdfnPm9DkG6qIV9SuixXtNO7dyN4gsYKlJ5lMfuo1pgm_GeNRAjWwAJyEt-NDR3_iBCwvvuu2ygZgo77l0FepRtv6I4KPZsqGibMmjM82NRoZ4dk8bPLvrDezmDReBMt1nmjqNJOXvcxCK9Nrczf-a2yKQQaWq3xH2DQii0k2n9IfoYlZTw9ttHN423iRScdu41IGU43JxUBMaiQRcIPHIVOohBvbY4DhyEu9rhfu_9RTq-bdkf2genfqdR9w1JQ7frDCxrjr-go-twv1lZBzssJAckmNnNyeqfuXyFD4zIQPJpfY16-2mhlZFU10VzrTbyIne0zajJLRCWgfhJoYfIXiQon6HMTeJpaSKQW5_iR4q4FzZPk0Jke7sNV30Zgwvhu0EQRE236Z68kXyqqX8WkCSSkAkLArdk-U6eBDsUg7xjzJimGPBMBfKmROgG0S1Gn212ZWJgTPbN4dLpLX-2z8QSOej-8FCVk38XNdfwAGG27tCmW9yX3MEO8-i8pFrQPEQNVwzaaUsvOFQVXpdWpcthD3IKWOTclxPkMj6uhwR7zI7UivyNYtw7K_AbXdUd_nfwoFdWXXqpwAzOWpx_1m00]--></g></svg>