<svg xmlns="http://www.w3.org/2000/svg" xmlns:xlink="http://www.w3.org/1999/xlink" contentStyleType="text/css" data-diagram-type="CLASS" height="674px" preserveAspectRatio="none" style="width:1006px;height:674px;background:#FFFFFF;" version="1.1" viewBox="0 0 1006 674" width="1006px" zoomAndPan="magnify"><defs><filter height="300%" id="f1gi3paq743gm8" width="300%" x="-1" y="-1"><feGaussianBlur result="blurOut" stdDeviation="2"/><feColorMatrix in="blurOut" result="blurOut2" type="matrix" values="0 0 0 0 0 0 0 0 0 0 0 0 0 0 0 0 0 0 .4 0"/><feOffset dx="4" dy="4" in="blurOut2" result="blurOut3"/><feBlend in="SourceGraphic" in2="blurOut3" mode="normal"/></filter></defs><g><!--cluster OrchestrationInterfaceComponent--><g class="cluster" data-entity="OrchestrationInterfaceComponent" data-source-line="4" data-uid="ent0002" id="cluster_OrchestrationInterfaceComponent"><rect fill="none" filter="url(#f1gi3paq743gm8)" height="653" style="stroke:#A80036;stroke-width:1;" width="985" x="7" y="7"/><rect fill="none" height="10" style="stroke:#A80036;stroke-width:1;" width="15" x="972" y="12"/><rect fill="none" height="2" style="stroke:#A80036;stroke-width:1;" width="4" x="970" y="14"/><rect fill="none" height="2" style="stroke:#A80036;stroke-width:1;" width="4" x="970" y="18"/><text fill="#000000" font-family="sans-serif" font-size="14" font-weight="bold" lengthAdjust="spacing" textLength="180.6191" x="409.1904" y="32.9951">OrchestrationInterface</text></g><!--class SubmodelStateExtractor--><g class="entity" data-entity="SubmodelStateExtractor" data-source-line="6" data-uid="ent0003" id="entity_SubmodelStateExtractor"><rect fill="#FEFECE" filter="url(#f1gi3paq743gm8)" height="80.5938" style="stroke:#A80036;stroke-width:1;" width="419.9277" x="23" y="248"/><ellipse cx="142.834" cy="264" fill="#ADD1B2" rx="11" ry="11" style="stroke:#A80036;stroke-width:1;"/><path d="M145.8027,269.6406 Q145.2246,269.9375 144.584,270.0781 Q143.9434,270.2344 143.2402,270.2344 Q140.7402,270.2344 139.4121,268.5938 Q138.0996,266.9375 138.0996,263.8125 Q138.0996,260.6875 139.4121,259.0313 Q140.7402,257.375 143.2402,257.375 Q143.9434,257.375 144.584,257.5313 Q145.2402,257.6875 145.8027,257.9844 L145.8027,260.7031 Q145.1777,260.125 144.584,259.8594 Q143.9902,259.5781 143.3652,259.5781 Q142.0215,259.5781 141.334,260.6563 Q140.6465,261.7188 140.6465,263.8125 Q140.6465,265.9063 141.334,266.9844 Q142.0215,268.0469 143.3652,268.0469 Q143.9902,268.0469 144.584,267.7813 Q145.1777,267.5 145.8027,266.9219 L145.8027,269.6406 Z " fill="#000000"/><text fill="#000000" font-family="sans-serif" font-size="14" lengthAdjust="spacing" textLength="171.7598" x="163.334" y="268.8467">SubmodelStateExtractor</text><line style="stroke:#A80036;stroke-width:1;" x1="24" x2="441.9277" y1="280" y2="280"/><line style="stroke:#A80036;stroke-width:1;" x1="24" x2="441.9277" y1="288" y2="288"/><ellipse cx="34" cy="301.6484" fill="#84BE84" rx="3" ry="3" style="stroke:#038048;stroke-width:1;"/><text fill="#000000" font-family="sans-serif" font-size="14" lengthAdjust="spacing" textLength="393.9277" x="43" y="304.9951">extract_state(data: jsonString): RawResourceDataModel</text><ellipse cx="34" cy="317.9453" fill="#84BE84" rx="3" ry="3" style="stroke:#038048;stroke-width:1;"/><text fill="#000000" font-family="sans-serif" font-size="14" lengthAdjust="spacing" textLength="393.3467" x="43" y="321.292">update_state(data: RawResourceDataModel): jsonString</text></g><!--class ProductionDataParser--><g class="entity" data-entity="ProductionDataParser" data-source-line="12" data-uid="ent0004" id="entity_ProductionDataParser"><rect fill="#FEFECE" filter="url(#f1gi3paq743gm8)" height="64.2969" style="stroke:#A80036;stroke-width:1;" width="497.5977" x="478" y="256.5"/><ellipse cx="646.0957" cy="272.5" fill="#ADD1B2" rx="11" ry="11" style="stroke:#A80036;stroke-width:1;"/><path d="M649.0645,278.1406 Q648.4863,278.4375 647.8457,278.5781 Q647.2051,278.7344 646.502,278.7344 Q644.002,278.7344 642.6738,277.0938 Q641.3613,275.4375 641.3613,272.3125 Q641.3613,269.1875 642.6738,267.5313 Q644.002,265.875 646.502,265.875 Q647.2051,265.875 647.8457,266.0313 Q648.502,266.1875 649.0645,266.4844 L649.0645,269.2031 Q648.4395,268.625 647.8457,268.3594 Q647.252,268.0781 646.627,268.0781 Q645.2832,268.0781 644.5957,269.1563 Q643.9082,270.2188 643.9082,272.3125 Q643.9082,274.4063 644.5957,275.4844 Q645.2832,276.5469 646.627,276.5469 Q647.252,276.5469 647.8457,276.2813 Q648.4395,276 649.0645,275.4219 L649.0645,278.1406 Z " fill="#000000"/><text fill="#000000" font-family="sans-serif" font-size="14" lengthAdjust="spacing" textLength="152.9063" x="666.5957" y="277.3467">ProductionDataParser</text><line style="stroke:#A80036;stroke-width:1;" x1="479" x2="974.5977" y1="288.5" y2="288.5"/><line style="stroke:#A80036;stroke-width:1;" x1="479" x2="974.5977" y1="296.5" y2="296.5"/><ellipse cx="489" cy="310.1484" fill="#84BE84" rx="3" ry="3" style="stroke:#038048;stroke-width:1;"/><text fill="#000000" font-family="sans-serif" font-size="14" lengthAdjust="spacing" textLength="471.5977" x="498" y="313.4951">parse_production_data(data: jsonString): RawProductionDataModel</text></g><!--class ProductionDataType--><g class="entity" data-entity="ProductionDataType" data-source-line="15" data-uid="ent0005" id="entity_ProductionDataType"><rect fill="#FEFECE" filter="url(#f1gi3paq743gm8)" height="64.2969" style="stroke:#A80036;stroke-width:1;" width="174.8027" x="392.5" y="580"/><ellipse cx="407.5" cy="596" fill="#EB937F" rx="11" ry="11" style="stroke:#A80036;stroke-width:1;"/><path d="M411.6094,602 L403.8906,602 L403.8906,589.6094 L411.6094,589.6094 L411.6094,591.7656 L406.3438,591.7656 L406.3438,594.4375 L411.1094,594.4375 L411.1094,596.5938 L406.3438,596.5938 L406.3438,599.8438 L411.6094,599.8438 L411.6094,602 Z " fill="#000000"/><text fill="#000000" font-family="sans-serif" font-size="14" lengthAdjust="spacing" textLength="142.8027" x="421.5" y="600.8467">ProductionDataType</text><line style="stroke:#A80036;stroke-width:1;" x1="393.5" x2="566.3027" y1="612" y2="612"/><text fill="#000000" font-family="sans-serif" font-size="14" lengthAdjust="spacing" textLength="44.4131" x="398.5" y="628.9951">STATE</text><line style="stroke:#A80036;stroke-width:1;" x1="393.5" x2="566.3027" y1="636.2969" y2="636.2969"/></g><!--class RawProductionDataModel--><g class="entity" data-entity="RawProductionDataModel" data-source-line="18" data-uid="ent0006" id="entity_RawProductionDataModel"><rect fill="#FEFECE" filter="url(#f1gi3paq743gm8)" height="96.8906" style="stroke:#A80036;stroke-width:1;" width="250.1846" x="355" y="406"/><ellipse cx="387.0675" cy="422" fill="#FEFECE" rx="11" ry="11" style="stroke:#A80036;stroke-width:1;"/><path d="M386.6612,417.8125 L386.6612,425.7969 L387.3175,425.7969 Q388.755,425.7969 389.3644,424.8906 Q389.9894,423.9688 389.9894,421.7969 Q389.9894,419.625 389.3644,418.7188 Q388.755,417.8125 387.3175,417.8125 L386.6612,417.8125 Z M384.2081,415.6094 L386.8331,415.6094 Q389.8644,415.6094 391.1925,417.0625 Q392.5362,418.5 392.5362,421.7969 Q392.5362,425.0938 391.1925,426.5469 Q389.8644,428 386.8331,428 L384.2081,428 L384.2081,415.6094 Z " fill="#000000"/><text fill="#000000" font-family="sans-serif" font-size="14" lengthAdjust="spacing" textLength="180.2568" x="404.8603" y="426.8467">RawProductionDataModel</text><line style="stroke:#A80036;stroke-width:1;" x1="356" x2="604.1846" y1="438" y2="438"/><ellipse cx="366" cy="451.6484" fill="none" rx="3" ry="3" style="stroke:#038048;stroke-width:1;"/><text fill="#000000" font-family="sans-serif" font-size="14" lengthAdjust="spacing" textLength="224.1846" x="375" y="454.9951">DataType : ProductionDataType</text><ellipse cx="366" cy="467.9453" fill="none" rx="3" ry="3" style="stroke:#038048;stroke-width:1;"/><text fill="#000000" font-family="sans-serif" font-size="14" lengthAdjust="spacing" textLength="73.1445" x="375" y="471.292">value: any</text><ellipse cx="366" cy="484.2422" fill="none" rx="3" ry="3" style="stroke:#038048;stroke-width:1;"/><text fill="#000000" font-family="sans-serif" font-size="14" lengthAdjust="spacing" textLength="126.4648" x="375" y="487.5889">timestamp: String</text><line style="stroke:#A80036;stroke-width:1;" x1="356" x2="604.1846" y1="494.8906" y2="494.8906"/></g><!--class OrchestrationInterface--><g class="entity" data-entity="OrchestrationInterface" data-source-line="23" data-uid="ent0007" id="entity_OrchestrationInterface"><rect fill="#FEFECE" filter="url(#f1gi3paq743gm8)" height="129.4844" style="stroke:#A80036;stroke-width:1;" width="514.7832" x="218.5" y="42"/><ellipse cx="392.355" cy="58" fill="#ADD1B2" rx="11" ry="11" style="stroke:#A80036;stroke-width:1;"/><path d="M395.3237,63.6406 Q394.7456,63.9375 394.105,64.0781 Q393.4644,64.2344 392.7612,64.2344 Q390.2612,64.2344 388.9331,62.5938 Q387.6206,60.9375 387.6206,57.8125 Q387.6206,54.6875 388.9331,53.0313 Q390.2612,51.375 392.7612,51.375 Q393.4644,51.375 394.105,51.5313 Q394.7612,51.6875 395.3237,51.9844 L395.3237,54.7031 Q394.6987,54.125 394.105,53.8594 Q393.5112,53.5781 392.8862,53.5781 Q391.5425,53.5781 390.855,54.6563 Q390.1675,55.7188 390.1675,57.8125 Q390.1675,59.9063 390.855,60.9844 Q391.5425,62.0469 392.8862,62.0469 Q393.5112,62.0469 394.105,61.7813 Q394.6987,61.5 395.3237,60.9219 L395.3237,63.6406 Z " fill="#000000"/><text fill="#000000" font-family="sans-serif" font-size="14" lengthAdjust="spacing" textLength="158.5732" x="412.855" y="62.8467">OrchestrationInterface</text><line style="stroke:#A80036;stroke-width:1;" x1="219.5" x2="732.2832" y1="74" y2="74"/><rect fill="none" height="6" style="stroke:#C82930;stroke-width:1;" width="6" x="226.5" y="84.6484"/><text fill="#000000" font-family="sans-serif" font-size="14" lengthAdjust="spacing" textLength="256.5527" x="238.5" y="90.9951">CommandBuilder : CommandBuilder</text><rect fill="none" height="6" style="stroke:#C82930;stroke-width:1;" width="6" x="226.5" y="100.9453"/><text fill="#000000" font-family="sans-serif" font-size="14" lengthAdjust="spacing" textLength="357.1367" x="238.5" y="107.292">SubmodelStateExtractor : SubmodelStateExtractor</text><rect fill="none" height="6" style="stroke:#C82930;stroke-width:1;" width="6" x="226.5" y="117.2422"/><text fill="#000000" font-family="sans-serif" font-size="14" lengthAdjust="spacing" textLength="319.4297" x="238.5" y="123.5889">ProductionDataParser : ProductionDataParser</text><line style="stroke:#A80036;stroke-width:1;" x1="219.5" x2="732.2832" y1="130.8906" y2="130.8906"/><ellipse cx="229.5" cy="144.5391" fill="#84BE84" rx="3" ry="3" style="stroke:#038048;stroke-width:1;"/><text fill="#000000" font-family="sans-serif" font-size="14" lengthAdjust="spacing" textLength="488.7832" x="238.5" y="147.8857">receive_data_from_agent(data: jsonString): RawProductionDataModel</text><ellipse cx="229.5" cy="160.8359" fill="#84BE84" rx="3" ry="3" style="stroke:#038048;stroke-width:1;"/><text fill="#000000" font-family="sans-serif" font-size="14" lengthAdjust="spacing" textLength="342.2959" x="238.5" y="164.1826">send_data_to_agent(data: jsonString): jsonString</text></g><!--reverse link OrchestrationInterface to SubmodelStateExtractor--><g class="link" data-entity-1="OrchestrationInterface" data-entity-2="SubmodelStateExtractor" data-source-line="32" data-uid="lnk8" id="link_OrchestrationInterface_SubmodelStateExtractor"><path codeLine="32" d="M380.347,178.3523 C345.797,203.9423 316.71,225.5 286.35,247.98" fill="none" id="OrchestrationInterface-backto-SubmodelStateExtractor" style="stroke:#A80036;stroke-width:1;"/><polygon fill="#A80036" points="389.99,171.21,382.7877,171.5668,380.347,178.3523,387.5492,177.9955,389.99,171.21" style="stroke:#A80036;stroke-width:1;"/><text fill="#000000" font-family="sans-serif" font-size="13" lengthAdjust="spacing" textLength="8.271" x="348" y="214.0669">1</text></g><!--reverse link OrchestrationInterface to ProductionDataParser--><g class="link" data-entity-1="OrchestrationInterface" data-entity-2="ProductionDataParser" data-source-line="33" data-uid="lnk9" id="link_OrchestrationInterface_ProductionDataParser"><path codeLine="33" d="M574.6007,178.2045 C614.9307,207.1345 651.05,233.03 683.69,256.44" fill="none" id="OrchestrationInterface-backto-ProductionDataParser" style="stroke:#A80036;stroke-width:1;"/><polygon fill="#A80036" points="564.85,171.21,567.3939,177.9575,574.6007,178.2045,572.0569,171.457,564.85,171.21" style="stroke:#A80036;stroke-width:1;"/><text fill="#000000" font-family="sans-serif" font-size="13" lengthAdjust="spacing" textLength="8.271" x="624" y="214.0669">1</text></g><!--link ProductionDataParser to RawProductionDataModel--><g class="link" data-entity-1="ProductionDataParser" data-entity-2="RawProductionDataModel" data-source-line="34" data-uid="lnk10" id="link_ProductionDataParser_RawProductionDataModel"><path codeLine="34" d="M680.25,320.54 C644.03,344.59 593.21,378.33 551.83,405.81" fill="none" id="ProductionDataParser-RawProductionDataModel" style="stroke:#A80036;stroke-width:1;"/><text fill="#000000" font-family="sans-serif" font-size="13" lengthAdjust="spacing" textLength="8.271" x="619" y="372.0669">1</text></g><!--link SubmodelStateExtractor to RawProductionDataModel--><g class="link" data-entity-1="SubmodelStateExtractor" data-entity-2="RawProductionDataModel" data-source-line="35" data-uid="lnk11" id="link_SubmodelStateExtractor_RawProductionDataModel"><path codeLine="35" d="M292.79,329.2 C327.63,352.33 371.78,381.64 408.45,406" fill="none" id="SubmodelStateExtractor-RawProductionDataModel" style="stroke:#A80036;stroke-width:1;"/><text fill="#000000" font-family="sans-serif" font-size="13" lengthAdjust="spacing" textLength="8.271" x="357" y="372.0669">1</text></g><!--link RawProductionDataModel to ProductionDataType--><g class="link" data-entity-1="RawProductionDataModel" data-entity-2="ProductionDataType" data-source-line="36" data-uid="lnk12" id="link_RawProductionDataModel_ProductionDataType"><path codeLine="36" d="M480,503 C480,528.01 480,557.96 480,579.98" fill="none" id="RawProductionDataModel-ProductionDataType" style="stroke:#A80036;stroke-width:1;"/><text fill="#000000" font-family="sans-serif" font-size="13" lengthAdjust="spacing" textLength="8.271" x="481" y="546.0669">1</text></g><!--SRC=[bLJBReCm4BpdArOvDOrooDMtFdBeeMeKSaTRiqbfiOriauUg_7jj4YWGkm-VqCxECBiUC1-v1AqCmGYBGkr5ViZbTWJ0bIYL96bX_ABv6nchqUPAFabBUeESne06mj13o_qSEQdwy0ADWN5IlGgLKP5OjBGuE2QtIjTQOSX9G7kcGETwQdpJJOOM6RmR9HEhdUy9WnNkLsHKfJazElJPA_OKgjAng2SGuaowket0QJISPwbLLd4_lMSkKHiwJnC21hEKlfYMRMFgtKHcwilrfZer3oGhCNIqFfOKyEFBFJV9-cwzk5BqNYw3XZtKqc6eAp-5zgKiuAJRkCEY8WOeZzsgpOMB6OgImV16UjVnxwXsNCx0vLQWpEwhlCZSRR51eTCPoIgB01rcC1SiM6wpvXQWYLE-epeYwKOhaUBMVM3_JulJCYIpiv1LSPchz9yQFv5Dtiv-sClyTsvaCmqp23jQ97tVn8Ydlr0Z3LTcBycU-mtvVyGN]--></g></svg>