<svg xmlns="http://www.w3.org/2000/svg" xmlns:xlink="http://www.w3.org/1999/xlink" contentStyleType="text/css" data-diagram-type="CLASS" height="1965px" preserveAspectRatio="none" style="width:1881px;height:1965px;background:#FFFFFF;" version="1.1" viewBox="0 0 1881 1965" width="1881px" zoomAndPan="magnify"><defs/><g><!--cluster Production Agent Shell--><g class="cluster" data-entity="Production Agent Shell" data-source-line="4" data-uid="ent0002" id="cluster_Production Agent Shell"><path d="M8.5,6 L191.5479,6 A3.75,3.75 0 0 1 194.0479,8.5 L201.0479,28.2969 L1871.5,28.2969 A2.5,2.5 0 0 1 1874,30.7969 L1874,1955.5 A2.5,2.5 0 0 1 1871.5,1958 L8.5,1958 A2.5,2.5 0 0 1 6,1955.5 L6,8.5 A2.5,2.5 0 0 1 8.5,6" fill="none" style="stroke:#000000;stroke-width:1.5;"/><line style="stroke:#000000;stroke-width:1.5;" x1="6" x2="201.0479" y1="28.2969" y2="28.2969"/><text fill="#000000" font-family="sans-serif" font-size="14" font-weight="bold" lengthAdjust="spacing" textLength="182.0479" x="10" y="20.9951">Production Agent Shell</text></g><!--cluster <<List{Submodel}>> \nSubmodels--><g class="cluster" data-entity="..List.Submodel... .nSubmodels" data-source-line="14" data-uid="ent0004" id="cluster_..List.Submodel... .nSubmodels"><path d="M32.5,49 L183.7334,49 A3.75,3.75 0 0 1 186.2334,51.5 L193.2334,87.5938 L1847.5,87.5938 A2.5,2.5 0 0 1 1850,90.0938 L1850,1777.5 A2.5,2.5 0 0 1 1847.5,1780 L32.5,1780 A2.5,2.5 0 0 1 30,1777.5 L30,51.5 A2.5,2.5 0 0 1 32.5,49" fill="none" style="stroke:#000000;stroke-width:1.5;"/><line style="stroke:#000000;stroke-width:1.5;" x1="30" x2="193.2334" y1="87.5938" y2="87.5938"/><text fill="#000000" font-family="sans-serif" font-size="14" font-weight="bold" lengthAdjust="spacing" textLength="145.3594" x="34" y="63.9951">&#171;List{Submodel}&#187;</text><text fill="#000000" font-family="sans-serif" font-size="14" font-weight="bold" lengthAdjust="spacing" textLength="86.9258" x="65.6538" y="80.292">Submodels</text></g><!--cluster <<Submodel>>\n ProcessPlan--><g class="cluster" data-entity="..Submodel...n ProcessPlan" data-source-line="15" data-uid="ent0005" id="cluster_..Submodel...n ProcessPlan"><path d="M182.5,108 L284.0908,108 A3.75,3.75 0 0 1 286.5908,110.5 L293.5908,146.5938 L1823.5,146.5938 A2.5,2.5 0 0 1 1826,149.0938 L1826,680.5 A2.5,2.5 0 0 1 1823.5,683 L182.5,683 A2.5,2.5 0 0 1 180,680.5 L180,110.5 A2.5,2.5 0 0 1 182.5,108" fill="none" style="stroke:#000000;stroke-width:1.5;"/><line style="stroke:#000000;stroke-width:1.5;" x1="180" x2="293.5908" y1="146.5938" y2="146.5938"/><text fill="#000000" font-family="sans-serif" font-size="14" font-weight="bold" lengthAdjust="spacing" textLength="96.6807" x="185.9551" y="122.9951">&#171;Submodel&#187;</text><text fill="#000000" font-family="sans-serif" font-size="14" font-weight="bold" lengthAdjust="spacing" textLength="95.7168" x="188.874" y="139.292">ProcessPlan</text></g><!--cluster <<Submodel>>\n Services Catalog--><g class="cluster" data-entity="..Submodel...n Services Catalog" data-source-line="73" data-uid="ent0013" id="cluster_..Submodel...n Services Catalog"><path d="M182.5,707 L320.082,707 A3.75,3.75 0 0 1 322.582,709.5 L329.582,745.5938 L577.5,745.5938 A2.5,2.5 0 0 1 580,748.0938 L580,917.5 A2.5,2.5 0 0 1 577.5,920 L182.5,920 A2.5,2.5 0 0 1 180,917.5 L180,709.5 A2.5,2.5 0 0 1 182.5,707" fill="none" style="stroke:#000000;stroke-width:1.5;"/><line style="stroke:#000000;stroke-width:1.5;" x1="180" x2="329.582" y1="745.5938" y2="745.5938"/><text fill="#000000" font-family="sans-serif" font-size="14" font-weight="bold" lengthAdjust="spacing" textLength="96.6807" x="203.9507" y="721.9951">&#171;Submodel&#187;</text><text fill="#000000" font-family="sans-serif" font-size="14" font-weight="bold" lengthAdjust="spacing" textLength="131.708" x="188.874" y="738.292">Services Catalog</text></g><!--cluster <<Submodel>>\n ExcutionState and Tracking--><g class="cluster" data-entity="..Submodel...n ExcutionState and Tracking" data-source-line="83" data-uid="ent0015" id="cluster_..Submodel...n ExcutionState and Tracking"><path d="M56.5,944 L280.2012,944 A3.75,3.75 0 0 1 282.7012,946.5 L289.7012,982.5938 L1395.5,982.5938 A2.5,2.5 0 0 1 1398,985.0938 L1398,1516.5 A2.5,2.5 0 0 1 1395.5,1519 L56.5,1519 A2.5,2.5 0 0 1 54,1516.5 L54,946.5 A2.5,2.5 0 0 1 56.5,944" fill="none" style="stroke:#000000;stroke-width:1.5;"/><line style="stroke:#000000;stroke-width:1.5;" x1="54" x2="289.7012" y1="982.5938" y2="982.5938"/><text fill="#000000" font-family="sans-serif" font-size="14" font-weight="bold" lengthAdjust="spacing" textLength="96.6807" x="121.0103" y="958.9951">&#171;Submodel&#187;</text><text fill="#000000" font-family="sans-serif" font-size="14" font-weight="bold" lengthAdjust="spacing" textLength="217.8271" x="62.874" y="975.292">ExcutionState and Tracking</text></g><!--cluster <<Submodel>>\n Interface and Endpoitns--><g class="cluster" data-entity="..Submodel...n Interface and Endpoitns" data-source-line="125" data-uid="ent0021" id="cluster_..Submodel...n Interface and Endpoitns"><path d="M165,1543 L360.6396,1543 A3.75,3.75 0 0 1 363.1396,1545.5 L370.1396,1581.5938 L595,1581.5938 A2.5,2.5 0 0 1 597.5,1584.0938 L597.5,1753.5 A2.5,2.5 0 0 1 595,1756 L165,1756 A2.5,2.5 0 0 1 162.5,1753.5 L162.5,1545.5 A2.5,2.5 0 0 1 165,1543" fill="none" style="stroke:#000000;stroke-width:1.5;"/><line style="stroke:#000000;stroke-width:1.5;" x1="162.5" x2="370.1396" y1="1581.5938" y2="1581.5938"/><text fill="#000000" font-family="sans-serif" font-size="14" font-weight="bold" lengthAdjust="spacing" textLength="96.6807" x="215.4795" y="1557.9951">&#171;Submodel&#187;</text><text fill="#000000" font-family="sans-serif" font-size="14" font-weight="bold" lengthAdjust="spacing" textLength="189.7656" x="171.374" y="1574.292">Interface and Endpoitns</text></g><!--class Header--><g class="entity" data-entity="Header" data-source-line="6" data-uid="ent0003" id="entity_Header"><rect fill="#F1F1F1" height="145.7813" rx="2.5" ry="2.5" style="stroke:#181818;stroke-width:0.5;" width="345.9014" x="207" y="1796"/><ellipse cx="350.2129" cy="1812" fill="#ADD1B2" rx="11" ry="11" style="stroke:#181818;stroke-width:1;"/><path d="M354.3223,1818 L346.6035,1818 L346.6035,1805.6094 L354.3223,1805.6094 L354.3223,1807.7656 L349.0566,1807.7656 L349.0566,1810.4375 L353.8223,1810.4375 L353.8223,1812.5938 L349.0566,1812.5938 L349.0566,1815.8438 L354.3223,1815.8438 L354.3223,1818 Z " fill="#000000"/><text fill="#000000" font-family="sans-serif" font-size="14" lengthAdjust="spacing" textLength="50.9756" x="370.7129" y="1816.8467">Header</text><line style="stroke:#181818;stroke-width:0.5;" x1="208" x2="551.9014" y1="1828" y2="1828"/><ellipse cx="218" cy="1841.6484" fill="#000000" rx="3" ry="3" style="stroke:#000000;stroke-width:1;"/><text fill="#000000" font-family="sans-serif" font-size="14" lengthAdjust="spacing" textLength="105.7451" x="227" y="1844.9951">idShort : String</text><ellipse cx="218" cy="1857.9453" fill="#000000" rx="3" ry="3" style="stroke:#000000;stroke-width:1;"/><text fill="#000000" font-family="sans-serif" font-size="14" lengthAdjust="spacing" textLength="68.1748" x="227" y="1861.292">id : String</text><ellipse cx="218" cy="1874.2422" fill="#000000" rx="3" ry="3" style="stroke:#000000;stroke-width:1;"/><text fill="#000000" font-family="sans-serif" font-size="14" lengthAdjust="spacing" textLength="319.9014" x="227" y="1877.5889">assetInformation : Dictionary&lt;String, String&gt;</text><ellipse cx="218" cy="1890.5391" fill="#000000" rx="3" ry="3" style="stroke:#000000;stroke-width:1;"/><text fill="#000000" font-family="sans-serif" font-size="14" lengthAdjust="spacing" textLength="123.498" x="227" y="1893.8857">assetKind : String</text><ellipse cx="218" cy="1906.8359" fill="#000000" rx="3" ry="3" style="stroke:#000000;stroke-width:1;"/><text fill="#000000" font-family="sans-serif" font-size="14" lengthAdjust="spacing" textLength="149.3789" x="227" y="1910.1826">globalAssetId : String</text><ellipse cx="218" cy="1923.1328" fill="#000000" rx="3" ry="3" style="stroke:#000000;stroke-width:1;"/><text fill="#000000" font-family="sans-serif" font-size="14" lengthAdjust="spacing" textLength="127.0049" x="227" y="1926.4795">assetType : String</text><line style="stroke:#181818;stroke-width:0.5;" x1="208" x2="551.9014" y1="1933.7813" y2="1933.7813"/></g><!--class Nodes--><g class="entity" data-entity="Nodes" data-source-line="16" data-uid="ent0006" id="entity_Nodes"><rect fill="#F1F1F1" height="145.7813" rx="2.5" ry="2.5" style="stroke:#181818;stroke-width:0.5;" width="361.6377" x="199" y="521"/><ellipse cx="353.6528" cy="537" fill="#ADD1B2" rx="11" ry="11" style="stroke:#181818;stroke-width:1;"/><path d="M357.7622,543 L350.0435,543 L350.0435,530.6094 L357.7622,530.6094 L357.7622,532.7656 L352.4966,532.7656 L352.4966,535.4375 L357.2622,535.4375 L357.2622,537.5938 L352.4966,537.5938 L352.4966,540.8438 L357.7622,540.8438 L357.7622,543 Z " fill="#000000"/><text fill="#000000" font-family="sans-serif" font-size="14" lengthAdjust="spacing" textLength="43.832" x="374.1528" y="541.8467">Nodes</text><line style="stroke:#181818;stroke-width:0.5;" x1="200" x2="559.6377" y1="553" y2="553"/><ellipse cx="210" cy="566.6484" fill="#000000" rx="3" ry="3" style="stroke:#000000;stroke-width:1;"/><text fill="#000000" font-family="sans-serif" font-size="14" lengthAdjust="spacing" textLength="176.0732" x="219" y="569.9951">idShort : String : "Nodes"</text><ellipse cx="210" cy="582.9453" fill="#000000" rx="3" ry="3" style="stroke:#000000;stroke-width:1;"/><text fill="#000000" font-family="sans-serif" font-size="14" lengthAdjust="spacing" textLength="68.1748" x="219" y="586.292">id : String</text><ellipse cx="210" cy="599.2422" fill="#000000" rx="3" ry="3" style="stroke:#000000;stroke-width:1;"/><text fill="#000000" font-family="sans-serif" font-size="14" lengthAdjust="spacing" textLength="171.1992" x="219" y="602.5889">kind : String : "Instance"</text><ellipse cx="210" cy="615.5391" fill="#000000" rx="3" ry="3" style="stroke:#000000;stroke-width:1;"/><text fill="#000000" font-family="sans-serif" font-size="14" lengthAdjust="spacing" textLength="335.6377" x="219" y="618.8857">category : String : "Collection&lt;OPERATIONAL&gt;"</text><ellipse cx="210" cy="631.8359" fill="#000000" rx="3" ry="3" style="stroke:#000000;stroke-width:1;"/><text fill="#000000" font-family="sans-serif" font-size="14" lengthAdjust="spacing" textLength="189.9912" x="219" y="635.1826">value : List&lt;ProcessNode&gt;</text><ellipse cx="210" cy="648.1328" fill="#000000" rx="3" ry="3" style="stroke:#000000;stroke-width:1;"/><text fill="#000000" font-family="sans-serif" font-size="14" lengthAdjust="spacing" textLength="292.6055" x="219" y="651.4795">valueType : String : "List&lt;ProcessNode&gt;"</text><line style="stroke:#181818;stroke-width:0.5;" x1="200" x2="559.6377" y1="658.7813" y2="658.7813"/></g><!--class Edges--><g class="entity" data-entity="Edges" data-source-line="24" data-uid="ent0007" id="entity_Edges"><rect fill="#F1F1F1" height="145.7813" rx="2.5" ry="2.5" style="stroke:#181818;stroke-width:0.5;" width="361.6377" x="199" y="340"/><ellipse cx="354.3057" cy="356" fill="#ADD1B2" rx="11" ry="11" style="stroke:#181818;stroke-width:1;"/><path d="M358.415,362 L350.6963,362 L350.6963,349.6094 L358.415,349.6094 L358.415,351.7656 L353.1494,351.7656 L353.1494,354.4375 L357.915,354.4375 L357.915,356.5938 L353.1494,356.5938 L353.1494,359.8438 L358.415,359.8438 L358.415,362 Z " fill="#000000"/><text fill="#000000" font-family="sans-serif" font-size="14" lengthAdjust="spacing" textLength="42.5264" x="374.8057" y="360.8467">Edges</text><line style="stroke:#181818;stroke-width:0.5;" x1="200" x2="559.6377" y1="372" y2="372"/><ellipse cx="210" cy="385.6484" fill="#000000" rx="3" ry="3" style="stroke:#000000;stroke-width:1;"/><text fill="#000000" font-family="sans-serif" font-size="14" lengthAdjust="spacing" textLength="174.7676" x="219" y="388.9951">idShort : String : "Edges"</text><ellipse cx="210" cy="401.9453" fill="#000000" rx="3" ry="3" style="stroke:#000000;stroke-width:1;"/><text fill="#000000" font-family="sans-serif" font-size="14" lengthAdjust="spacing" textLength="68.1748" x="219" y="405.292">id : String</text><ellipse cx="210" cy="418.2422" fill="#000000" rx="3" ry="3" style="stroke:#000000;stroke-width:1;"/><text fill="#000000" font-family="sans-serif" font-size="14" lengthAdjust="spacing" textLength="171.1992" x="219" y="421.5889">kind : String : "Instance"</text><ellipse cx="210" cy="434.5391" fill="#000000" rx="3" ry="3" style="stroke:#000000;stroke-width:1;"/><text fill="#000000" font-family="sans-serif" font-size="14" lengthAdjust="spacing" textLength="335.6377" x="219" y="437.8857">category : String : "Collection&lt;OPERATIONAL&gt;"</text><ellipse cx="210" cy="450.8359" fill="#000000" rx="3" ry="3" style="stroke:#000000;stroke-width:1;"/><text fill="#000000" font-family="sans-serif" font-size="14" lengthAdjust="spacing" textLength="188.6855" x="219" y="454.1826">value : List&lt;ProcessEdge&gt;</text><ellipse cx="210" cy="467.1328" fill="#000000" rx="3" ry="3" style="stroke:#000000;stroke-width:1;"/><text fill="#000000" font-family="sans-serif" font-size="14" lengthAdjust="spacing" textLength="291.2998" x="219" y="470.4795">valueType : String : "List&lt;ProcessEdge&gt;"</text><line style="stroke:#181818;stroke-width:0.5;" x1="200" x2="559.6377" y1="477.7813" y2="477.7813"/></g><!--class EntryAndExit--><g class="entity" data-entity="EntryAndExit" data-source-line="32" data-uid="ent0008" id="entity_EntryAndExit"><rect fill="#F1F1F1" height="145.7813" rx="2.5" ry="2.5" style="stroke:#181818;stroke-width:0.5;" width="368.2002" x="196" y="159"/><ellipse cx="326.3511" cy="175" fill="#ADD1B2" rx="11" ry="11" style="stroke:#181818;stroke-width:1;"/><path d="M330.4604,181 L322.7417,181 L322.7417,168.6094 L330.4604,168.6094 L330.4604,170.7656 L325.1948,170.7656 L325.1948,173.4375 L329.9604,173.4375 L329.9604,175.5938 L325.1948,175.5938 L325.1948,178.8438 L330.4604,178.8438 L330.4604,181 Z " fill="#000000"/><text fill="#000000" font-family="sans-serif" font-size="14" lengthAdjust="spacing" textLength="98.998" x="346.8511" y="179.8467">Entry and Exit</text><line style="stroke:#181818;stroke-width:0.5;" x1="197" x2="563.2002" y1="191" y2="191"/><ellipse cx="207" cy="204.6484" fill="#000000" rx="3" ry="3" style="stroke:#000000;stroke-width:1;"/><text fill="#000000" font-family="sans-serif" font-size="14" lengthAdjust="spacing" textLength="231.2393" x="216" y="207.9951">idShort : String : "Entry and Exit"</text><ellipse cx="207" cy="220.9453" fill="#000000" rx="3" ry="3" style="stroke:#000000;stroke-width:1;"/><text fill="#000000" font-family="sans-serif" font-size="14" lengthAdjust="spacing" textLength="68.1748" x="216" y="224.292">id : String</text><ellipse cx="207" cy="237.2422" fill="#000000" rx="3" ry="3" style="stroke:#000000;stroke-width:1;"/><text fill="#000000" font-family="sans-serif" font-size="14" lengthAdjust="spacing" textLength="171.1992" x="216" y="240.5889">kind : String : "Instance"</text><ellipse cx="207" cy="253.5391" fill="#000000" rx="3" ry="3" style="stroke:#000000;stroke-width:1;"/><text fill="#000000" font-family="sans-serif" font-size="14" lengthAdjust="spacing" textLength="341.1543" x="216" y="256.8857">category : String : "Collection&lt;PARARAMETER&gt;"</text><ellipse cx="207" cy="269.8359" fill="#000000" rx="3" ry="3" style="stroke:#000000;stroke-width:1;"/><text fill="#000000" font-family="sans-serif" font-size="14" lengthAdjust="spacing" textLength="239.5859" x="216" y="273.1826">value : Dictionary&lt;String, String&gt;</text><ellipse cx="207" cy="286.1328" fill="#000000" rx="3" ry="3" style="stroke:#000000;stroke-width:1;"/><text fill="#000000" font-family="sans-serif" font-size="14" lengthAdjust="spacing" textLength="342.2002" x="216" y="289.4795">valueType : String : "Dictionary&lt;String, String&gt;"</text><line style="stroke:#181818;stroke-width:0.5;" x1="197" x2="563.2002" y1="296.7813" y2="296.7813"/></g><!--class RequiredInputAndOutput--><g class="entity" data-entity="RequiredInputAndOutput" data-source-line="40" data-uid="ent0009" id="entity_RequiredInputAndOutput"><rect fill="#F1F1F1" height="145.7813" rx="2.5" ry="2.5" style="stroke:#181818;stroke-width:0.5;" width="368.2002" x="882" y="521"/><ellipse cx="963.6348" cy="537" fill="#ADD1B2" rx="11" ry="11" style="stroke:#181818;stroke-width:1;"/><path d="M967.7441,543 L960.0254,543 L960.0254,530.6094 L967.7441,530.6094 L967.7441,532.7656 L962.4785,532.7656 L962.4785,535.4375 L967.2441,535.4375 L967.2441,537.5938 L962.4785,537.5938 L962.4785,540.8438 L967.7441,540.8438 L967.7441,543 Z " fill="#000000"/><text fill="#000000" font-family="sans-serif" font-size="14" lengthAdjust="spacing" textLength="196.4307" x="984.1348" y="541.8467">Requiered Input and Output</text><line style="stroke:#181818;stroke-width:0.5;" x1="883" x2="1249.2002" y1="553" y2="553"/><ellipse cx="893" cy="566.6484" fill="#000000" rx="3" ry="3" style="stroke:#000000;stroke-width:1;"/><text fill="#000000" font-family="sans-serif" font-size="14" lengthAdjust="spacing" textLength="328.6719" x="902" y="569.9951">idShort : String : "Requiered Input and Output"</text><ellipse cx="893" cy="582.9453" fill="#000000" rx="3" ry="3" style="stroke:#000000;stroke-width:1;"/><text fill="#000000" font-family="sans-serif" font-size="14" lengthAdjust="spacing" textLength="68.1748" x="902" y="586.292">id : String</text><ellipse cx="893" cy="599.2422" fill="#000000" rx="3" ry="3" style="stroke:#000000;stroke-width:1;"/><text fill="#000000" font-family="sans-serif" font-size="14" lengthAdjust="spacing" textLength="171.1992" x="902" y="602.5889">kind : String : "Instance"</text><ellipse cx="893" cy="615.5391" fill="#000000" rx="3" ry="3" style="stroke:#000000;stroke-width:1;"/><text fill="#000000" font-family="sans-serif" font-size="14" lengthAdjust="spacing" textLength="341.1543" x="902" y="618.8857">category : String : "Collection&lt;PARARAMETER&gt;"</text><ellipse cx="893" cy="631.8359" fill="#000000" rx="3" ry="3" style="stroke:#000000;stroke-width:1;"/><text fill="#000000" font-family="sans-serif" font-size="14" lengthAdjust="spacing" textLength="239.5859" x="902" y="635.1826">value : Dictionary&lt;String, String&gt;</text><ellipse cx="893" cy="648.1328" fill="#000000" rx="3" ry="3" style="stroke:#000000;stroke-width:1;"/><text fill="#000000" font-family="sans-serif" font-size="14" lengthAdjust="spacing" textLength="342.2002" x="902" y="651.4795">valueType : String : "Dictionary&lt;String, String&gt;"</text><line style="stroke:#181818;stroke-width:0.5;" x1="883" x2="1249.2002" y1="658.7813" y2="658.7813"/></g><!--class Preconditions--><g class="entity" data-entity="Preconditions" data-source-line="48" data-uid="ent0010" id="entity_Preconditions"><rect fill="#F1F1F1" height="145.7813" rx="2.5" ry="2.5" style="stroke:#181818;stroke-width:0.5;" width="368.2002" x="882" y="340"/><ellipse cx="1014.4326" cy="356" fill="#ADD1B2" rx="11" ry="11" style="stroke:#181818;stroke-width:1;"/><path d="M1018.542,362 L1010.8232,362 L1010.8232,349.6094 L1018.542,349.6094 L1018.542,351.7656 L1013.2764,351.7656 L1013.2764,354.4375 L1018.042,354.4375 L1018.042,356.5938 L1013.2764,356.5938 L1013.2764,359.8438 L1018.542,359.8438 L1018.542,362 Z " fill="#000000"/><text fill="#000000" font-family="sans-serif" font-size="14" lengthAdjust="spacing" textLength="94.835" x="1034.9326" y="360.8467">Preconditions</text><line style="stroke:#181818;stroke-width:0.5;" x1="883" x2="1249.2002" y1="372" y2="372"/><ellipse cx="893" cy="385.6484" fill="#000000" rx="3" ry="3" style="stroke:#000000;stroke-width:1;"/><text fill="#000000" font-family="sans-serif" font-size="14" lengthAdjust="spacing" textLength="227.0762" x="902" y="388.9951">idShort : String : "Preconditions"</text><ellipse cx="893" cy="401.9453" fill="#000000" rx="3" ry="3" style="stroke:#000000;stroke-width:1;"/><text fill="#000000" font-family="sans-serif" font-size="14" lengthAdjust="spacing" textLength="68.1748" x="902" y="405.292">id : String</text><ellipse cx="893" cy="418.2422" fill="#000000" rx="3" ry="3" style="stroke:#000000;stroke-width:1;"/><text fill="#000000" font-family="sans-serif" font-size="14" lengthAdjust="spacing" textLength="171.1992" x="902" y="421.5889">kind : String : "Instance"</text><ellipse cx="893" cy="434.5391" fill="#000000" rx="3" ry="3" style="stroke:#000000;stroke-width:1;"/><text fill="#000000" font-family="sans-serif" font-size="14" lengthAdjust="spacing" textLength="341.1543" x="902" y="437.8857">category : String : "Collection&lt;PARARAMETER&gt;"</text><ellipse cx="893" cy="450.8359" fill="#000000" rx="3" ry="3" style="stroke:#000000;stroke-width:1;"/><text fill="#000000" font-family="sans-serif" font-size="14" lengthAdjust="spacing" textLength="239.5859" x="902" y="454.1826">value : Dictionary&lt;String, String&gt;</text><ellipse cx="893" cy="467.1328" fill="#000000" rx="3" ry="3" style="stroke:#000000;stroke-width:1;"/><text fill="#000000" font-family="sans-serif" font-size="14" lengthAdjust="spacing" textLength="342.2002" x="902" y="470.4795">valueType : String : "Dictionary&lt;String, String&gt;"</text><line style="stroke:#181818;stroke-width:0.5;" x1="883" x2="1249.2002" y1="477.7813" y2="477.7813"/></g><!--class Postconditions--><g class="entity" data-entity="Postconditions" data-source-line="56" data-uid="ent0011" id="entity_Postconditions"><rect fill="#F1F1F1" height="145.7813" rx="2.5" ry="2.5" style="stroke:#181818;stroke-width:0.5;" width="368.2002" x="882" y="159"/><ellipse cx="1010.9429" cy="175" fill="#ADD1B2" rx="11" ry="11" style="stroke:#181818;stroke-width:1;"/><path d="M1015.0522,181 L1007.3335,181 L1007.3335,168.6094 L1015.0522,168.6094 L1015.0522,170.7656 L1009.7866,170.7656 L1009.7866,173.4375 L1014.5522,173.4375 L1014.5522,175.5938 L1009.7866,175.5938 L1009.7866,178.8438 L1015.0522,178.8438 L1015.0522,181 Z " fill="#000000"/><text fill="#000000" font-family="sans-serif" font-size="14" lengthAdjust="spacing" textLength="101.8145" x="1031.4429" y="179.8467">Postconditions</text><line style="stroke:#181818;stroke-width:0.5;" x1="883" x2="1249.2002" y1="191" y2="191"/><ellipse cx="893" cy="204.6484" fill="#000000" rx="3" ry="3" style="stroke:#000000;stroke-width:1;"/><text fill="#000000" font-family="sans-serif" font-size="14" lengthAdjust="spacing" textLength="234.0557" x="902" y="207.9951">idShort : String : "Postconditions"</text><ellipse cx="893" cy="220.9453" fill="#000000" rx="3" ry="3" style="stroke:#000000;stroke-width:1;"/><text fill="#000000" font-family="sans-serif" font-size="14" lengthAdjust="spacing" textLength="68.1748" x="902" y="224.292">id : String</text><ellipse cx="893" cy="237.2422" fill="#000000" rx="3" ry="3" style="stroke:#000000;stroke-width:1;"/><text fill="#000000" font-family="sans-serif" font-size="14" lengthAdjust="spacing" textLength="171.1992" x="902" y="240.5889">kind : String : "Instance"</text><ellipse cx="893" cy="253.5391" fill="#000000" rx="3" ry="3" style="stroke:#000000;stroke-width:1;"/><text fill="#000000" font-family="sans-serif" font-size="14" lengthAdjust="spacing" textLength="341.1543" x="902" y="256.8857">category : String : "Collection&lt;PARARAMETER&gt;"</text><ellipse cx="893" cy="269.8359" fill="#000000" rx="3" ry="3" style="stroke:#000000;stroke-width:1;"/><text fill="#000000" font-family="sans-serif" font-size="14" lengthAdjust="spacing" textLength="239.5859" x="902" y="273.1826">value : Dictionary&lt;String, String&gt;</text><ellipse cx="893" cy="286.1328" fill="#000000" rx="3" ry="3" style="stroke:#000000;stroke-width:1;"/><text fill="#000000" font-family="sans-serif" font-size="14" lengthAdjust="spacing" textLength="342.2002" x="902" y="289.4795">valueType : String : "Dictionary&lt;String, String&gt;"</text><line style="stroke:#181818;stroke-width:0.5;" x1="883" x2="1249.2002" y1="296.7813" y2="296.7813"/></g><!--class RequiredCapabilities--><g class="entity" data-entity="RequiredCapabilities" data-source-line="64" data-uid="ent0012" id="entity_RequiredCapabilities"><rect fill="#F1F1F1" height="145.7813" rx="2.5" ry="2.5" style="stroke:#181818;stroke-width:0.5;" width="368.2002" x="1442" y="521"/><ellipse cx="1542.8643" cy="537" fill="#ADD1B2" rx="11" ry="11" style="stroke:#181818;stroke-width:1;"/><path d="M1546.9736,543 L1539.2549,543 L1539.2549,530.6094 L1546.9736,530.6094 L1546.9736,532.7656 L1541.708,532.7656 L1541.708,535.4375 L1546.4736,535.4375 L1546.4736,537.5938 L1541.708,537.5938 L1541.708,540.8438 L1546.9736,540.8438 L1546.9736,543 Z " fill="#000000"/><text fill="#000000" font-family="sans-serif" font-size="14" lengthAdjust="spacing" textLength="157.9717" x="1563.3643" y="541.8467">Requiered Capabilities</text><line style="stroke:#181818;stroke-width:0.5;" x1="1443" x2="1809.2002" y1="553" y2="553"/><ellipse cx="1453" cy="566.6484" fill="#000000" rx="3" ry="3" style="stroke:#000000;stroke-width:1;"/><text fill="#000000" font-family="sans-serif" font-size="14" lengthAdjust="spacing" textLength="290.2129" x="1462" y="569.9951">idShort : String : "Requiered Capabilities"</text><ellipse cx="1453" cy="582.9453" fill="#000000" rx="3" ry="3" style="stroke:#000000;stroke-width:1;"/><text fill="#000000" font-family="sans-serif" font-size="14" lengthAdjust="spacing" textLength="68.1748" x="1462" y="586.292">id : String</text><ellipse cx="1453" cy="599.2422" fill="#000000" rx="3" ry="3" style="stroke:#000000;stroke-width:1;"/><text fill="#000000" font-family="sans-serif" font-size="14" lengthAdjust="spacing" textLength="171.1992" x="1462" y="602.5889">kind : String : "Instance"</text><ellipse cx="1453" cy="615.5391" fill="#000000" rx="3" ry="3" style="stroke:#000000;stroke-width:1;"/><text fill="#000000" font-family="sans-serif" font-size="14" lengthAdjust="spacing" textLength="341.1543" x="1462" y="618.8857">category : String : "Collection&lt;PARARAMETER&gt;"</text><ellipse cx="1453" cy="631.8359" fill="#000000" rx="3" ry="3" style="stroke:#000000;stroke-width:1;"/><text fill="#000000" font-family="sans-serif" font-size="14" lengthAdjust="spacing" textLength="239.5859" x="1462" y="635.1826">value : Dictionary&lt;String, String&gt;</text><ellipse cx="1453" cy="648.1328" fill="#000000" rx="3" ry="3" style="stroke:#000000;stroke-width:1;"/><text fill="#000000" font-family="sans-serif" font-size="14" lengthAdjust="spacing" textLength="342.2002" x="1462" y="651.4795">valueType : String : "Dictionary&lt;String, String&gt;"</text><line style="stroke:#181818;stroke-width:0.5;" x1="1443" x2="1809.2002" y1="658.7813" y2="658.7813"/></g><!--class Services--><g class="entity" data-entity="Services" data-source-line="74" data-uid="ent0014" id="entity_Services"><rect fill="#F1F1F1" height="145.7813" rx="2.5" ry="2.5" style="stroke:#181818;stroke-width:0.5;" width="368.2002" x="196" y="758"/><ellipse cx="346.3325" cy="774" fill="#ADD1B2" rx="11" ry="11" style="stroke:#181818;stroke-width:1;"/><path d="M350.4419,780 L342.7231,780 L342.7231,767.6094 L350.4419,767.6094 L350.4419,769.7656 L345.1763,769.7656 L345.1763,772.4375 L349.9419,772.4375 L349.9419,774.5938 L345.1763,774.5938 L345.1763,777.8438 L350.4419,777.8438 L350.4419,780 Z " fill="#000000"/><text fill="#000000" font-family="sans-serif" font-size="14" lengthAdjust="spacing" textLength="59.0352" x="366.8325" y="778.8467">Services</text><line style="stroke:#181818;stroke-width:0.5;" x1="197" x2="563.2002" y1="790" y2="790"/><ellipse cx="207" cy="803.6484" fill="#000000" rx="3" ry="3" style="stroke:#000000;stroke-width:1;"/><text fill="#000000" font-family="sans-serif" font-size="14" lengthAdjust="spacing" textLength="191.2764" x="216" y="806.9951">idShort : String : "Services"</text><ellipse cx="207" cy="819.9453" fill="#000000" rx="3" ry="3" style="stroke:#000000;stroke-width:1;"/><text fill="#000000" font-family="sans-serif" font-size="14" lengthAdjust="spacing" textLength="68.1748" x="216" y="823.292">id : String</text><ellipse cx="207" cy="836.2422" fill="#000000" rx="3" ry="3" style="stroke:#000000;stroke-width:1;"/><text fill="#000000" font-family="sans-serif" font-size="14" lengthAdjust="spacing" textLength="171.1992" x="216" y="839.5889">kind : String : "Instance"</text><ellipse cx="207" cy="852.5391" fill="#000000" rx="3" ry="3" style="stroke:#000000;stroke-width:1;"/><text fill="#000000" font-family="sans-serif" font-size="14" lengthAdjust="spacing" textLength="341.1543" x="216" y="855.8857">category : String : "Collection&lt;PARARAMETER&gt;"</text><ellipse cx="207" cy="868.8359" fill="#000000" rx="3" ry="3" style="stroke:#000000;stroke-width:1;"/><text fill="#000000" font-family="sans-serif" font-size="14" lengthAdjust="spacing" textLength="239.5859" x="216" y="872.1826">value : Dictionary&lt;String, String&gt;</text><ellipse cx="207" cy="885.1328" fill="#000000" rx="3" ry="3" style="stroke:#000000;stroke-width:1;"/><text fill="#000000" font-family="sans-serif" font-size="14" lengthAdjust="spacing" textLength="342.2002" x="216" y="888.4795">valueType : String : "Dictionary&lt;String, String&gt;"</text><line style="stroke:#181818;stroke-width:0.5;" x1="197" x2="563.2002" y1="895.7813" y2="895.7813"/></g><!--class CurrentNode--><g class="entity" data-entity="CurrentNode" data-source-line="84" data-uid="ent0016" id="entity_CurrentNode"><rect fill="#F1F1F1" height="145.7813" rx="2.5" ry="2.5" style="stroke:#181818;stroke-width:0.5;" width="252.3652" x="254" y="1357"/><ellipse cx="328.8706" cy="1373" fill="#ADD1B2" rx="11" ry="11" style="stroke:#181818;stroke-width:1;"/><path d="M332.98,1379 L325.2612,1379 L325.2612,1366.6094 L332.98,1366.6094 L332.98,1368.7656 L327.7144,1368.7656 L327.7144,1371.4375 L332.48,1371.4375 L332.48,1373.5938 L327.7144,1373.5938 L327.7144,1376.8438 L332.98,1376.8438 L332.98,1379 Z " fill="#000000"/><text fill="#000000" font-family="sans-serif" font-size="14" lengthAdjust="spacing" textLength="94.124" x="349.3706" y="1377.8467">Current Node</text><line style="stroke:#181818;stroke-width:0.5;" x1="255" x2="505.3652" y1="1389" y2="1389"/><ellipse cx="265" cy="1402.6484" fill="#000000" rx="3" ry="3" style="stroke:#000000;stroke-width:1;"/><text fill="#000000" font-family="sans-serif" font-size="14" lengthAdjust="spacing" textLength="226.3652" x="274" y="1405.9951">idShort : String : "Current Node"</text><ellipse cx="265" cy="1418.9453" fill="#000000" rx="3" ry="3" style="stroke:#000000;stroke-width:1;"/><text fill="#000000" font-family="sans-serif" font-size="14" lengthAdjust="spacing" textLength="68.1748" x="274" y="1422.292">id : String</text><ellipse cx="265" cy="1435.2422" fill="#000000" rx="3" ry="3" style="stroke:#000000;stroke-width:1;"/><text fill="#000000" font-family="sans-serif" font-size="14" lengthAdjust="spacing" textLength="171.1992" x="274" y="1438.5889">kind : String : "Instance"</text><ellipse cx="265" cy="1451.5391" fill="#000000" rx="3" ry="3" style="stroke:#000000;stroke-width:1;"/><text fill="#000000" font-family="sans-serif" font-size="14" lengthAdjust="spacing" textLength="212.6045" x="274" y="1454.8857">category : String : "VARIABLE"</text><ellipse cx="265" cy="1467.8359" fill="#000000" rx="3" ry="3" style="stroke:#000000;stroke-width:1;"/><text fill="#000000" font-family="sans-serif" font-size="14" lengthAdjust="spacing" textLength="187.4893" x="274" y="1471.1826">value : String : "NodeID_1"</text><ellipse cx="265" cy="1484.1328" fill="#000000" rx="3" ry="3" style="stroke:#000000;stroke-width:1;"/><text fill="#000000" font-family="sans-serif" font-size="14" lengthAdjust="spacing" textLength="196.2529" x="274" y="1487.4795">valueType : String : "String"</text><line style="stroke:#181818;stroke-width:0.5;" x1="255" x2="505.3652" y1="1494.7813" y2="1494.7813"/></g><!--class TokenPosition--><g class="entity" data-entity="TokenPosition" data-source-line="92" data-uid="ent0017" id="entity_TokenPosition"><rect fill="#F1F1F1" height="145.7813" rx="2.5" ry="2.5" style="stroke:#181818;stroke-width:0.5;" width="290.1611" x="235" y="1176"/><ellipse cx="324.7456" cy="1192" fill="#ADD1B2" rx="11" ry="11" style="stroke:#181818;stroke-width:1;"/><path d="M328.855,1198 L321.1362,1198 L321.1362,1185.6094 L328.855,1185.6094 L328.855,1187.7656 L323.5894,1187.7656 L323.5894,1190.4375 L328.355,1190.4375 L328.355,1192.5938 L323.5894,1192.5938 L323.5894,1195.8438 L328.855,1195.8438 L328.855,1198 Z " fill="#000000"/><text fill="#000000" font-family="sans-serif" font-size="14" lengthAdjust="spacing" textLength="102.1699" x="345.2456" y="1196.8467">Token Position</text><line style="stroke:#181818;stroke-width:0.5;" x1="236" x2="524.1611" y1="1208" y2="1208"/><ellipse cx="246" cy="1221.6484" fill="#000000" rx="3" ry="3" style="stroke:#000000;stroke-width:1;"/><text fill="#000000" font-family="sans-serif" font-size="14" lengthAdjust="spacing" textLength="234.4111" x="255" y="1224.9951">idShort : String : "Token Position"</text><ellipse cx="246" cy="1237.9453" fill="#000000" rx="3" ry="3" style="stroke:#000000;stroke-width:1;"/><text fill="#000000" font-family="sans-serif" font-size="14" lengthAdjust="spacing" textLength="68.1748" x="255" y="1241.292">id : String</text><ellipse cx="246" cy="1254.2422" fill="#000000" rx="3" ry="3" style="stroke:#000000;stroke-width:1;"/><text fill="#000000" font-family="sans-serif" font-size="14" lengthAdjust="spacing" textLength="171.1992" x="255" y="1257.5889">kind : String : "Instance"</text><ellipse cx="246" cy="1270.5391" fill="#000000" rx="3" ry="3" style="stroke:#000000;stroke-width:1;"/><text fill="#000000" font-family="sans-serif" font-size="14" lengthAdjust="spacing" textLength="212.6045" x="255" y="1273.8857">category : String : "VARIABLE"</text><ellipse cx="246" cy="1286.8359" fill="#000000" rx="3" ry="3" style="stroke:#000000;stroke-width:1;"/><text fill="#000000" font-family="sans-serif" font-size="14" lengthAdjust="spacing" textLength="264.1611" x="255" y="1290.1826">value : String : "Position in NodeID_1"</text><ellipse cx="246" cy="1303.1328" fill="#000000" rx="3" ry="3" style="stroke:#000000;stroke-width:1;"/><text fill="#000000" font-family="sans-serif" font-size="14" lengthAdjust="spacing" textLength="196.2529" x="255" y="1306.4795">valueType : String : "String"</text><line style="stroke:#181818;stroke-width:0.5;" x1="236" x2="524.1611" y1="1313.7813" y2="1313.7813"/></g><!--class Timestamps--><g class="entity" data-entity="Timestamps" data-source-line="100" data-uid="ent0018" id="entity_Timestamps"><rect fill="#F1F1F1" height="145.7813" rx="2.5" ry="2.5" style="stroke:#181818;stroke-width:0.5;" width="619.7559" x="70" y="995"/><ellipse cx="332.6914" cy="1011" fill="#ADD1B2" rx="11" ry="11" style="stroke:#181818;stroke-width:1;"/><path d="M336.8008,1017 L329.082,1017 L329.082,1004.6094 L336.8008,1004.6094 L336.8008,1006.7656 L331.5352,1006.7656 L331.5352,1009.4375 L336.3008,1009.4375 L336.3008,1011.5938 L331.5352,1011.5938 L331.5352,1014.8438 L336.8008,1014.8438 L336.8008,1017 Z " fill="#000000"/><text fill="#000000" font-family="sans-serif" font-size="14" lengthAdjust="spacing" textLength="85.873" x="353.1914" y="1015.8467">Timestamps</text><line style="stroke:#181818;stroke-width:0.5;" x1="71" x2="688.7559" y1="1027" y2="1027"/><ellipse cx="81" cy="1040.6484" fill="#000000" rx="3" ry="3" style="stroke:#000000;stroke-width:1;"/><text fill="#000000" font-family="sans-serif" font-size="14" lengthAdjust="spacing" textLength="218.1143" x="90" y="1043.9951">idShort : String : "Timestamps"</text><ellipse cx="81" cy="1056.9453" fill="#000000" rx="3" ry="3" style="stroke:#000000;stroke-width:1;"/><text fill="#000000" font-family="sans-serif" font-size="14" lengthAdjust="spacing" textLength="68.1748" x="90" y="1060.292">id : String</text><ellipse cx="81" cy="1073.2422" fill="#000000" rx="3" ry="3" style="stroke:#000000;stroke-width:1;"/><text fill="#000000" font-family="sans-serif" font-size="14" lengthAdjust="spacing" textLength="171.1992" x="90" y="1076.5889">kind : String : "Instance"</text><ellipse cx="81" cy="1089.5391" fill="#000000" rx="3" ry="3" style="stroke:#000000;stroke-width:1;"/><text fill="#000000" font-family="sans-serif" font-size="14" lengthAdjust="spacing" textLength="217.2324" x="90" y="1092.8857">category : String : "Parameter"</text><ellipse cx="81" cy="1105.8359" fill="#000000" rx="3" ry="3" style="stroke:#000000;stroke-width:1;"/><text fill="#000000" font-family="sans-serif" font-size="14" lengthAdjust="spacing" textLength="593.7559" x="90" y="1109.1826">value : String : "2023-10-01T12:00:00Z:NodeID_1;2023-10-01T12:05:00Z:NodeID_2"</text><ellipse cx="81" cy="1122.1328" fill="#000000" rx="3" ry="3" style="stroke:#000000;stroke-width:1;"/><text fill="#000000" font-family="sans-serif" font-size="14" lengthAdjust="spacing" textLength="196.2529" x="90" y="1125.4795">valueType : String : "String"</text><line style="stroke:#181818;stroke-width:0.5;" x1="71" x2="688.7559" y1="1132.7813" y2="1132.7813"/></g><!--class StepStatus--><g class="entity" data-entity="StepStatus" data-source-line="108" data-uid="ent0019" id="entity_StepStatus"><rect fill="#F1F1F1" height="145.7813" rx="2.5" ry="2.5" style="stroke:#181818;stroke-width:0.5;" width="444.9609" x="843.5" y="1357"/><ellipse cx="1024.0063" cy="1373" fill="#ADD1B2" rx="11" ry="11" style="stroke:#181818;stroke-width:1;"/><path d="M1028.1157,1379 L1020.397,1379 L1020.397,1366.6094 L1028.1157,1366.6094 L1028.1157,1368.7656 L1022.8501,1368.7656 L1022.8501,1371.4375 L1027.6157,1371.4375 L1027.6157,1373.5938 L1022.8501,1373.5938 L1022.8501,1376.8438 L1028.1157,1376.8438 L1028.1157,1379 Z " fill="#000000"/><text fill="#000000" font-family="sans-serif" font-size="14" lengthAdjust="spacing" textLength="75.4482" x="1044.5063" y="1377.8467">Step Staus</text><line style="stroke:#181818;stroke-width:0.5;" x1="844.5" x2="1287.4609" y1="1389" y2="1389"/><ellipse cx="854.5" cy="1402.6484" fill="#000000" rx="3" ry="3" style="stroke:#000000;stroke-width:1;"/><text fill="#000000" font-family="sans-serif" font-size="14" lengthAdjust="spacing" textLength="207.6895" x="863.5" y="1405.9951">idShort : String : "Step Staus"</text><ellipse cx="854.5" cy="1418.9453" fill="#000000" rx="3" ry="3" style="stroke:#000000;stroke-width:1;"/><text fill="#000000" font-family="sans-serif" font-size="14" lengthAdjust="spacing" textLength="68.1748" x="863.5" y="1422.292">id : String</text><ellipse cx="854.5" cy="1435.2422" fill="#000000" rx="3" ry="3" style="stroke:#000000;stroke-width:1;"/><text fill="#000000" font-family="sans-serif" font-size="14" lengthAdjust="spacing" textLength="171.1992" x="863.5" y="1438.5889">kind : String : "Instance"</text><ellipse cx="854.5" cy="1451.5391" fill="#000000" rx="3" ry="3" style="stroke:#000000;stroke-width:1;"/><text fill="#000000" font-family="sans-serif" font-size="14" lengthAdjust="spacing" textLength="217.2324" x="863.5" y="1454.8857">category : String : "Parameter"</text><ellipse cx="854.5" cy="1467.8359" fill="#000000" rx="3" ry="3" style="stroke:#000000;stroke-width:1;"/><text fill="#000000" font-family="sans-serif" font-size="14" lengthAdjust="spacing" textLength="418.9609" x="863.5" y="1471.1826">value : String : "NodeID_1:Completed;NodeID_2:InProgress"</text><ellipse cx="854.5" cy="1484.1328" fill="#000000" rx="3" ry="3" style="stroke:#000000;stroke-width:1;"/><text fill="#000000" font-family="sans-serif" font-size="14" lengthAdjust="spacing" textLength="196.2529" x="863.5" y="1487.4795">valueType : String : "String"</text><line style="stroke:#181818;stroke-width:0.5;" x1="844.5" x2="1287.4609" y1="1494.7813" y2="1494.7813"/></g><!--class MeasuredParameters--><g class="entity" data-entity="MeasuredParameters" data-source-line="116" data-uid="ent0020" id="entity_MeasuredParameters"><rect fill="#F1F1F1" height="145.7813" rx="2.5" ry="2.5" style="stroke:#181818;stroke-width:0.5;" width="632.3477" x="750" y="1176"/><ellipse cx="980.46" cy="1192" fill="#ADD1B2" rx="11" ry="11" style="stroke:#181818;stroke-width:1;"/><path d="M984.5693,1198 L976.8506,1198 L976.8506,1185.6094 L984.5693,1185.6094 L984.5693,1187.7656 L979.3037,1187.7656 L979.3037,1190.4375 L984.0693,1190.4375 L984.0693,1192.5938 L979.3037,1192.5938 L979.3037,1195.8438 L984.5693,1195.8438 L984.5693,1198 Z " fill="#000000"/><text fill="#000000" font-family="sans-serif" font-size="14" lengthAdjust="spacing" textLength="162.9277" x="1000.96" y="1196.8467">Measuread parameters</text><line style="stroke:#181818;stroke-width:0.5;" x1="751" x2="1381.3477" y1="1208" y2="1208"/><ellipse cx="761" cy="1221.6484" fill="#000000" rx="3" ry="3" style="stroke:#000000;stroke-width:1;"/><text fill="#000000" font-family="sans-serif" font-size="14" lengthAdjust="spacing" textLength="286.5898" x="770" y="1224.9951">idShort : String : "Measured parameters"</text><ellipse cx="761" cy="1237.9453" fill="#000000" rx="3" ry="3" style="stroke:#000000;stroke-width:1;"/><text fill="#000000" font-family="sans-serif" font-size="14" lengthAdjust="spacing" textLength="68.1748" x="770" y="1241.292">id : String</text><ellipse cx="761" cy="1254.2422" fill="#000000" rx="3" ry="3" style="stroke:#000000;stroke-width:1;"/><text fill="#000000" font-family="sans-serif" font-size="14" lengthAdjust="spacing" textLength="171.1992" x="770" y="1257.5889">kind : String : "Instance"</text><ellipse cx="761" cy="1270.5391" fill="#000000" rx="3" ry="3" style="stroke:#000000;stroke-width:1;"/><text fill="#000000" font-family="sans-serif" font-size="14" lengthAdjust="spacing" textLength="217.2324" x="770" y="1273.8857">category : String : "Parameter"</text><ellipse cx="761" cy="1286.8359" fill="#000000" rx="3" ry="3" style="stroke:#000000;stroke-width:1;"/><text fill="#000000" font-family="sans-serif" font-size="14" lengthAdjust="spacing" textLength="606.3477" x="770" y="1290.1826">value : String : "NodeID_1:Depth=5cm,Rpm=3000;NodeID_2:Depth=3cm,Rpm=2500"</text><ellipse cx="761" cy="1303.1328" fill="#000000" rx="3" ry="3" style="stroke:#000000;stroke-width:1;"/><text fill="#000000" font-family="sans-serif" font-size="14" lengthAdjust="spacing" textLength="196.2529" x="770" y="1306.4795">valueType : String : "String"</text><line style="stroke:#181818;stroke-width:0.5;" x1="751" x2="1381.3477" y1="1313.7813" y2="1313.7813"/></g><!--class SkillCallEndpoints--><g class="entity" data-entity="SkillCallEndpoints" data-source-line="126" data-uid="ent0022" id="entity_SkillCallEndpoints"><rect fill="#F1F1F1" height="145.7813" rx="2.5" ry="2.5" style="stroke:#181818;stroke-width:0.5;" width="402.9131" x="178.5" y="1594"/><ellipse cx="311.2813" cy="1610" fill="#ADD1B2" rx="11" ry="11" style="stroke:#181818;stroke-width:1;"/><path d="M315.3906,1616 L307.6719,1616 L307.6719,1603.6094 L315.3906,1603.6094 L315.3906,1605.7656 L310.125,1605.7656 L310.125,1608.4375 L314.8906,1608.4375 L314.8906,1610.5938 L310.125,1610.5938 L310.125,1613.8438 L315.3906,1613.8438 L315.3906,1616 Z " fill="#000000"/><text fill="#000000" font-family="sans-serif" font-size="14" lengthAdjust="spacing" textLength="128.8506" x="331.7813" y="1614.8467">SkillCall Endpoints</text><line style="stroke:#181818;stroke-width:0.5;" x1="179.5" x2="580.4131" y1="1626" y2="1626"/><ellipse cx="189.5" cy="1639.6484" fill="#000000" rx="3" ry="3" style="stroke:#000000;stroke-width:1;"/><text fill="#000000" font-family="sans-serif" font-size="14" lengthAdjust="spacing" textLength="261.0918" x="198.5" y="1642.9951">idShort : String : "SkillCall Endpoints"</text><ellipse cx="189.5" cy="1655.9453" fill="#000000" rx="3" ry="3" style="stroke:#000000;stroke-width:1;"/><text fill="#000000" font-family="sans-serif" font-size="14" lengthAdjust="spacing" textLength="68.1748" x="198.5" y="1659.292">id : String</text><ellipse cx="189.5" cy="1672.2422" fill="#000000" rx="3" ry="3" style="stroke:#000000;stroke-width:1;"/><text fill="#000000" font-family="sans-serif" font-size="14" lengthAdjust="spacing" textLength="171.1992" x="198.5" y="1675.5889">kind : String : "Instance"</text><ellipse cx="189.5" cy="1688.5391" fill="#000000" rx="3" ry="3" style="stroke:#000000;stroke-width:1;"/><text fill="#000000" font-family="sans-serif" font-size="14" lengthAdjust="spacing" textLength="217.2324" x="198.5" y="1691.8857">category : String : "Parameter"</text><ellipse cx="189.5" cy="1704.8359" fill="#000000" rx="3" ry="3" style="stroke:#000000;stroke-width:1;"/><text fill="#000000" font-family="sans-serif" font-size="14" lengthAdjust="spacing" textLength="376.9131" x="198.5" y="1708.1826">value : String : "http://production-agent.local/skillcall"</text><ellipse cx="189.5" cy="1721.1328" fill="#000000" rx="3" ry="3" style="stroke:#000000;stroke-width:1;"/><text fill="#000000" font-family="sans-serif" font-size="14" lengthAdjust="spacing" textLength="196.2529" x="198.5" y="1724.4795">valueType : String : "String"</text><line style="stroke:#181818;stroke-width:0.5;" x1="179.5" x2="580.4131" y1="1731.7813" y2="1731.7813"/></g><!--SRC=[vPXTJzim58Rl-okiN4umqY9kIgcKbKYBnaVLLBkOa2QJcDIgOsUEmwYc_lSTEqaRjwKPQ0W4V4ZEEU_h73-D7RkOCV4xfG-K9vrEXgCvJWXonbB4HQIeuCXB25Sed1767FIdmyYTGaeWIPEPGZ6LnCWw286CgWLolX8S4-aWdAEo2Iu4FvyGZSEPa0hrKQYalc4TtepWF2Sgu7T2fjWKqKVdrDm7oyMWb1vKbc7JyutohSuI9cunyqoNk-yqNMIacLZ2_mh5O711S_KdB6vJ4HEs70xH3Q-lSgSSN4DTfuR36uw0OqJoVCmmTqeADQKhqEG6acbLZ7PHWaQbRaZiSUZOl3bqxGbuhZ2FoDeMOKKI8HUMR2GOAp_3mVNOdtZJuFhAknYkNVUO5HgFnZ2e1gJh6TeA2wBkU4jVThcqCFXnKc4mhHOCfVhjOD3rF0M3qU_4m1NKWw5q_u6gaeSEUJpMWJOijlkb-Ooz2VnU-bD_ieDFoqHz7DJZnbt49kHNGOaaCGfuLYWp-kj2GTFGCsd8cYHGB5Cj7FVq-I6OZc4n5pocsb9EIYlIGizsVmnW8bURnAnG6pBR_y4cxWXd-9Oo67pr2gWdRJFnprFMwkqzaroYVJkEaCXx2kyQuA4m4yd6jgDE6zuhxNx6Ay_xfBhStl5PHFs7gD3-K47vvfqmbI05luEGJNTKIAbtotgxOmXN0NtT0jcolWZexzuayBvS-DjaxNrcSFwpwxGWBLkxflTKp0dNgw1Pqmm44weZBHWsxAy6ObKkvUW_GA4fWTBIh9ntwyis6clVYv0OOubJek2qjWT5p-qT7tRTGxSxxVRwhWj_F_erazEDx4apsti-iL2H38Iug5OgkDJphsXTgzQ-roDMm-cFH9enKCUdDP5-mE4ia4Wu33mVpYN1UI7XR0rhLbLEYQbAnAigst3LXcP7Ru3RESdKxEmaIWycMNfsxBhk6c2PEwvolHFNVIh8VOjzmA76EnoL2xtFuqnGnUjZ_lhnd5F6HfYnIi9LzPpMyLMuxNdTqT7hVG0pfRB-qL6s-lRd4EjlVpup4M5sbEjQeS6U11mPuijEvoy0]--></g></svg>