<svg xmlns="http://www.w3.org/2000/svg" xmlns:xlink="http://www.w3.org/1999/xlink" contentStyleType="text/css" data-diagram-type="CLASS" height="893px" preserveAspectRatio="none" style="width:1291px;height:893px;background:#FFFFFF;" version="1.1" viewBox="0 0 1291 893" width="1291px" zoomAndPan="magnify"><defs><filter height="300%" id="f1fqhky08yd7lk" width="300%" x="-1" y="-1"><feGaussianBlur result="blurOut" stdDeviation="2"/><feColorMatrix in="blurOut" result="blurOut2" type="matrix" values="0 0 0 0 0 0 0 0 0 0 0 0 0 0 0 0 0 0 .4 0"/><feOffset dx="4" dy="4" in="blurOut2" result="blurOut3"/><feBlend in="SourceGraphic" in2="blurOut3" mode="normal"/></filter></defs><g><!--cluster DataTranslator--><g class="cluster" data-entity="DataTranslator" data-source-line="5" data-uid="ent0002" id="cluster_DataTranslator"><rect fill="none" filter="url(#f1fqhky08yd7lk)" height="872" style="stroke:#A80036;stroke-width:1;" width="1270" x="7" y="7"/><rect fill="none" height="10" style="stroke:#A80036;stroke-width:1;" width="15" x="1257" y="12"/><rect fill="none" height="2" style="stroke:#A80036;stroke-width:1;" width="4" x="1255" y="14"/><rect fill="none" height="2" style="stroke:#A80036;stroke-width:1;" width="4" x="1255" y="18"/><text fill="#000000" font-family="sans-serif" font-size="14" font-weight="bold" lengthAdjust="spacing" textLength="118.8701" x="582.5649" y="32.9951">DataTranslator</text></g><!--class AASDataTypes--><g class="entity" data-entity="AASDataTypes" data-source-line="7" data-uid="ent0003" id="entity_AASDataTypes"><rect fill="#FEFECE" filter="url(#f1fqhky08yd7lk)" height="80.5938" style="stroke:#A80036;stroke-width:1;" width="135.0996" x="624.5" y="647.5"/><ellipse cx="639.5" cy="663.5" fill="#EB937F" rx="11" ry="11" style="stroke:#A80036;stroke-width:1;"/><path d="M643.6094,669.5 L635.8906,669.5 L635.8906,657.1094 L643.6094,657.1094 L643.6094,659.2656 L638.3438,659.2656 L638.3438,661.9375 L643.1094,661.9375 L643.1094,664.0938 L638.3438,664.0938 L638.3438,667.3438 L643.6094,667.3438 L643.6094,669.5 Z " fill="#000000"/><text fill="#000000" font-family="sans-serif" font-size="14" lengthAdjust="spacing" textLength="103.0996" x="653.5" y="668.3467">AASDataTypes</text><line style="stroke:#A80036;stroke-width:1;" x1="625.5" x2="758.5996" y1="679.5" y2="679.5"/><text fill="#000000" font-family="sans-serif" font-size="14" lengthAdjust="spacing" textLength="44.4131" x="630.5" y="696.4951">STATE</text><text fill="#000000" font-family="sans-serif" font-size="14" lengthAdjust="spacing" textLength="75.7832" x="630.5" y="712.792">COMMAND</text><line style="stroke:#A80036;stroke-width:1;" x1="625.5" x2="758.5996" y1="720.0938" y2="720.0938"/></g><g class="entity" data-entity="GMN4" data-source-line="12" data-uid="ent0005" id="entity_GMN4"><path d="M584,792 L584,862.5313 A0,0 0 0 0 584,862.5313 L1126.0474,862.5313 A0,0 0 0 0 1126.0474,862.5313 L1126.0474,802 L1116.0474,792 L818.05,792 L739.15,728.77 L810.05,792 L584,792 A0,0 0 0 0 584,792" fill="#90EE90" filter="url(#f1fqhky08yd7lk)" style="stroke:#A80036;stroke-width:1;"/><path d="M1116.0474,792 L1116.0474,802 L1126.0474,802 L1116.0474,792" fill="#90EE90" style="stroke:#A80036;stroke-width:1;"/><text fill="#000000" font-family="sans-serif" font-size="13" lengthAdjust="spacing" textLength="436.4268" x="590" y="809.0669">The Submodels mainly have 2 types of data the concern the Agent</text><text fill="#000000" font-family="sans-serif" font-size="13" lengthAdjust="spacing" textLength="275.3042" x="590" y="824.1997">- STATE: e.g Current State, Historical Data</text><text fill="#000000" font-family="sans-serif" font-size="13" lengthAdjust="spacing" textLength="138.8359" x="590" y="839.3325">- COMMAND: e.g Skill</text><text fill="#000000" font-family="sans-serif" font-size="13" lengthAdjust="spacing" textLength="521.0474" x="590" y="854.4653">so this enum defines those two types to be used in the OrchestrationDataModel</text></g><!--class AASDataModel--><g class="entity" data-entity="AASDataModel" data-source-line="18" data-uid="ent0007" id="entity_AASDataModel"><rect fill="#FEFECE" filter="url(#f1fqhky08yd7lk)" height="96.8906" style="stroke:#A80036;stroke-width:1;" width="208.0752" x="668" y="471"/><ellipse cx="716.0361" cy="487" fill="#FEFECE" rx="11" ry="11" style="stroke:#A80036;stroke-width:1;"/><path d="M715.6299,482.8125 L715.6299,490.7969 L716.2861,490.7969 Q717.7236,490.7969 718.333,489.8906 Q718.958,488.9688 718.958,486.7969 Q718.958,484.625 718.333,483.7188 Q717.7236,482.8125 716.2861,482.8125 L715.6299,482.8125 Z M713.1768,480.6094 L715.8018,480.6094 Q718.833,480.6094 720.1611,482.0625 Q721.5049,483.5 721.5049,486.7969 Q721.5049,490.0938 720.1611,491.5469 Q718.833,493 715.8018,493 L713.1768,493 L713.1768,480.6094 Z " fill="#000000"/><text fill="#000000" font-family="sans-serif" font-size="14" lengthAdjust="spacing" textLength="103.5029" x="736.5361" y="491.8467">AASDataModel</text><line style="stroke:#A80036;stroke-width:1;" x1="669" x2="875.0752" y1="503" y2="503"/><ellipse cx="679" cy="516.6484" fill="none" rx="3" ry="3" style="stroke:#038048;stroke-width:1;"/><text fill="#000000" font-family="sans-serif" font-size="14" lengthAdjust="spacing" textLength="182.0752" x="688" y="519.9951">data_type: AASDataTypes</text><ellipse cx="679" cy="532.9453" fill="none" rx="3" ry="3" style="stroke:#038048;stroke-width:1;"/><text fill="#000000" font-family="sans-serif" font-size="14" lengthAdjust="spacing" textLength="73.1445" x="688" y="536.292">value: any</text><ellipse cx="679" cy="549.2422" fill="none" rx="3" ry="3" style="stroke:#038048;stroke-width:1;"/><text fill="#000000" font-family="sans-serif" font-size="14" lengthAdjust="spacing" textLength="126.4648" x="688" y="552.5889">timestamp: String</text><line style="stroke:#A80036;stroke-width:1;" x1="669" x2="875.0752" y1="559.8906" y2="559.8906"/></g><g class="entity" data-entity="GMN8" data-source-line="24" data-uid="ent0009" id="entity_GMN8"><path d="M795,645 L795,730.6641 A0,0 0 0 0 795,730.6641 L1261.2437,730.6641 A0,0 0 0 0 1261.2437,730.6641 L1261.2437,655 L1251.2437,645 L967.34,645 L845.36,568.21 L959.34,645 L795,645 A0,0 0 0 0 795,645" fill="#90EE90" filter="url(#f1fqhky08yd7lk)" style="stroke:#A80036;stroke-width:1;"/><path d="M1251.2437,645 L1251.2437,655 L1261.2437,655 L1251.2437,645" fill="#90EE90" style="stroke:#A80036;stroke-width:1;"/><text fill="#000000" font-family="sans-serif" font-size="13" lengthAdjust="spacing" textLength="201.9126" x="801" y="662.0669">Represents a generic AAS data</text><text fill="#000000" font-family="sans-serif" font-size="13" lengthAdjust="spacing" textLength="305.7603" x="801" y="677.1997">model with a data type, value, and timestamp.</text><text fill="#000000" font-family="sans-serif" font-size="13" lengthAdjust="spacing" textLength="341.4531" x="801" y="692.3325">where if the data type is command then the value is</text><text fill="#000000" font-family="sans-serif" font-size="13" lengthAdjust="spacing" textLength="445.2437" x="801" y="707.4653">ASL string that contains a command to be executed by the resource</text><text fill="#000000" font-family="sans-serif" font-size="13" lengthAdjust="spacing" textLength="285.3462" x="801" y="722.5981">agent e.g "Drill at 3000 rpm for 5cm depth"</text></g><!--class SubmodelTypes--><g class="entity" data-entity="SubmodelTypes" data-source-line="31" data-uid="ent0011" id="entity_SubmodelTypes"><rect fill="#FEFECE" filter="url(#f1fqhky08yd7lk)" height="64.2969" style="stroke:#A80036;stroke-width:1;" width="143.8701" x="23" y="656"/><ellipse cx="38" cy="672" fill="#EB937F" rx="11" ry="11" style="stroke:#A80036;stroke-width:1;"/><path d="M42.1094,678 L34.3906,678 L34.3906,665.6094 L42.1094,665.6094 L42.1094,667.7656 L36.8438,667.7656 L36.8438,670.4375 L41.6094,670.4375 L41.6094,672.5938 L36.8438,672.5938 L36.8438,675.8438 L42.1094,675.8438 L42.1094,678 Z " fill="#000000"/><text fill="#000000" font-family="sans-serif" font-size="14" lengthAdjust="spacing" textLength="111.8701" x="52" y="676.8467">SubmodelTypes</text><line style="stroke:#A80036;stroke-width:1;" x1="24" x2="165.8701" y1="688" y2="688"/><text fill="#000000" font-family="sans-serif" font-size="14" lengthAdjust="spacing" textLength="44.4131" x="29" y="704.9951">STATE</text><line style="stroke:#A80036;stroke-width:1;" x1="24" x2="165.8701" y1="712.2969" y2="712.2969"/></g><g class="entity" data-entity="GMN12" data-source-line="35" data-uid="ent0013" id="entity_GMN12"><path d="M23,800 L23,855.3984 A0,0 0 0 0 23,855.3984 L549.1846,855.3984 A0,0 0 0 0 549.1846,855.3984 L549.1846,810 L539.1846,800 L252.95,800 L138.34,720.2 L244.95,800 L23,800 A0,0 0 0 0 23,800" fill="#90EE90" filter="url(#f1fqhky08yd7lk)" style="stroke:#A80036;stroke-width:1;"/><path d="M539.1846,800 L539.1846,810 L549.1846,810 L539.1846,800" fill="#90EE90" style="stroke:#A80036;stroke-width:1;"/><text fill="#000000" font-family="sans-serif" font-size="13" lengthAdjust="spacing" textLength="386.6611" x="29" y="817.0669">Those three Types define the mapping of the submodel id /</text><text fill="#000000" font-family="sans-serif" font-size="13" lengthAdjust="spacing" textLength="137.6934" x="29" y="832.1997">submodelElement id.</text><text fill="#000000" font-family="sans-serif" font-size="13" lengthAdjust="spacing" textLength="505.1846" x="29" y="847.3325">e.g data from real asset is State data --&gt; map to submodel id "Current State"</text></g><!--class ProductionDataModel--><g class="entity" data-entity="ProductionDataModel" data-source-line="39" data-uid="ent0015" id="entity_ProductionDataModel"><rect fill="#FEFECE" filter="url(#f1fqhky08yd7lk)" height="96.8906" style="stroke:#A80036;stroke-width:1;" width="182.5" x="194" y="471"/><ellipse cx="209" cy="487" fill="#FEFECE" rx="11" ry="11" style="stroke:#A80036;stroke-width:1;"/><path d="M208.5938,482.8125 L208.5938,490.7969 L209.25,490.7969 Q210.6875,490.7969 211.2969,489.8906 Q211.9219,488.9688 211.9219,486.7969 Q211.9219,484.625 211.2969,483.7188 Q210.6875,482.8125 209.25,482.8125 L208.5938,482.8125 Z M206.1406,480.6094 L208.7656,480.6094 Q211.7969,480.6094 213.125,482.0625 Q214.4688,483.5 214.4688,486.7969 Q214.4688,490.0938 213.125,491.5469 Q211.7969,493 208.7656,493 L206.1406,493 L206.1406,480.6094 Z " fill="#000000"/><text fill="#000000" font-family="sans-serif" font-size="14" lengthAdjust="spacing" textLength="150.5" x="223" y="491.8467">ProductionDataModel</text><line style="stroke:#A80036;stroke-width:1;" x1="195" x2="375.5" y1="503" y2="503"/><ellipse cx="205" cy="516.6484" fill="none" rx="3" ry="3" style="stroke:#038048;stroke-width:1;"/><text fill="#000000" font-family="sans-serif" font-size="14" lengthAdjust="spacing" textLength="143.8213" x="214" y="519.9951">submodel_id : String</text><ellipse cx="205" cy="532.9453" fill="none" rx="3" ry="3" style="stroke:#038048;stroke-width:1;"/><text fill="#000000" font-family="sans-serif" font-size="14" lengthAdjust="spacing" textLength="73.1445" x="214" y="536.292">value: any</text><ellipse cx="205" cy="549.2422" fill="none" rx="3" ry="3" style="stroke:#038048;stroke-width:1;"/><text fill="#000000" font-family="sans-serif" font-size="14" lengthAdjust="spacing" textLength="126.4648" x="214" y="552.5889">timestamp: String</text><line style="stroke:#A80036;stroke-width:1;" x1="195" x2="375.5" y1="559.8906" y2="559.8906"/></g><g class="entity" data-entity="GMN16" data-source-line="45" data-uid="ent0017" id="entity_GMN16"><path d="M202.5,668 L202.5,708.2656 A0,0 0 0 0 202.5,708.2656 L589.1948,708.2656 A0,0 0 0 0 589.1948,708.2656 L589.1948,678 L579.1948,668 L387.13,668 L316.81,568.21 L379.13,668 L202.5,668 A0,0 0 0 0 202.5,668" fill="#90EE90" filter="url(#f1fqhky08yd7lk)" style="stroke:#A80036;stroke-width:1;"/><path d="M579.1948,668 L579.1948,678 L589.1948,678 L579.1948,668" fill="#90EE90" style="stroke:#A80036;stroke-width:1;"/><text fill="#000000" font-family="sans-serif" font-size="13" lengthAdjust="spacing" textLength="361.5625" x="208.5" y="685.0669">Represents a generic submodel/submodelElement data</text><text fill="#000000" font-family="sans-serif" font-size="13" lengthAdjust="spacing" textLength="325.0254" x="216.7646" y="700.1997">model with a submodel ID, value, and timestamp.</text></g><!--class DataParser--><g class="entity" data-entity="DataParser" data-source-line="49" data-uid="ent0019" id="entity_DataParser"><rect fill="#FEFECE" filter="url(#f1fqhky08yd7lk)" height="64.2969" style="stroke:#A80036;stroke-width:1;" width="222.0615" x="411" y="487.5"/><ellipse cx="478.8467" cy="503.5" fill="#A9DCDF" rx="11" ry="11" style="stroke:#A80036;stroke-width:1;"/><path d="M478.9561,498.8438 L477.7998,503.9219 L480.1279,503.9219 L478.9561,498.8438 Z M477.4717,496.6094 L480.4561,496.6094 L483.8154,509 L481.3623,509 L480.5967,505.9375 L477.3154,505.9375 L476.5654,509 L474.1279,509 L477.4717,496.6094 Z " fill="#000000"/><text fill="#000000" font-family="sans-serif" font-size="14" font-style="italic" lengthAdjust="spacing" textLength="77.8682" x="499.3467" y="508.3467">DataParser</text><line style="stroke:#A80036;stroke-width:1;" x1="412" x2="632.0615" y1="519.5" y2="519.5"/><line style="stroke:#A80036;stroke-width:1;" x1="412" x2="632.0615" y1="527.5" y2="527.5"/><ellipse cx="422" cy="541.1484" fill="#84BE84" rx="3" ry="3" style="stroke:#038048;stroke-width:1;"/><text fill="#000000" font-family="sans-serif" font-size="14" lengthAdjust="spacing" textLength="196.0615" x="431" y="544.4951">parse(data: jsonString): any</text></g><!--class AASDataModelToProductionDataParser--><g class="entity" data-entity="AASDataModelToProductionDataParser" data-source-line="53" data-uid="ent0020" id="entity_AASDataModelToProductionDataParser"><rect fill="#FEFECE" filter="url(#f1fqhky08yd7lk)" height="145.7813" style="stroke:#A80036;stroke-width:1;" width="340.6172" x="170.5" y="248"/><ellipse cx="201.2909" cy="264" fill="#ADD1B2" rx="11" ry="11" style="stroke:#A80036;stroke-width:1;"/><path d="M204.2596,269.6406 Q203.6815,269.9375 203.0409,270.0781 Q202.4002,270.2344 201.6971,270.2344 Q199.1971,270.2344 197.869,268.5938 Q196.5565,266.9375 196.5565,263.8125 Q196.5565,260.6875 197.869,259.0313 Q199.1971,257.375 201.6971,257.375 Q202.4002,257.375 203.0409,257.5313 Q203.6971,257.6875 204.2596,257.9844 L204.2596,260.7031 Q203.6346,260.125 203.0409,259.8594 Q202.4471,259.5781 201.8221,259.5781 Q200.4784,259.5781 199.7909,260.6563 Q199.1034,261.7188 199.1034,263.8125 Q199.1034,265.9063 199.7909,266.9844 Q200.4784,268.0469 201.8221,268.0469 Q202.4471,268.0469 203.0409,267.7813 Q203.6346,267.5 204.2596,266.9219 L204.2596,269.6406 Z " fill="#000000"/><text fill="#000000" font-family="sans-serif" font-size="14" lengthAdjust="spacing" textLength="273.5264" x="218.8" y="268.8467">AASDataModelToProductionDataParser</text><line style="stroke:#A80036;stroke-width:1;" x1="171.5" x2="510.1172" y1="280" y2="280"/><rect fill="none" height="6" style="stroke:#C82930;stroke-width:1;" width="6" x="178.5" y="290.6484"/><text fill="#000000" font-family="sans-serif" font-size="14" lengthAdjust="spacing" textLength="314.6172" x="190.5" y="296.9951">ProductionDataModel : ProductionDataModel</text><rect fill="none" height="6" style="stroke:#C82930;stroke-width:1;" width="6" x="178.5" y="306.9453"/><text fill="#000000" font-family="sans-serif" font-size="14" lengthAdjust="spacing" textLength="237.3574" x="190.5" y="313.292">SubmodelTypes : SubmodelTypes</text><line style="stroke:#A80036;stroke-width:1;" x1="171.5" x2="510.1172" y1="320.5938" y2="320.5938"/><ellipse cx="181.5" cy="334.2422" fill="#84BE84" rx="3" ry="3" style="stroke:#038048;stroke-width:1;"/><text fill="#000000" font-family="sans-serif" font-size="14" lengthAdjust="spacing" textLength="129.623" x="190.5" y="337.5889">parse(): jsonString</text><rect fill="#F24D5C" height="6" style="stroke:#C82930;stroke-width:1;" width="6" x="178.5" y="347.5391"/><text fill="#000000" font-family="sans-serif" font-size="14" lengthAdjust="spacing" textLength="196.4238" x="190.5" y="353.8857">parse_submodel_id(): String</text><rect fill="#F24D5C" height="6" style="stroke:#C82930;stroke-width:1;" width="6" x="178.5" y="363.8359"/><text fill="#000000" font-family="sans-serif" font-size="14" lengthAdjust="spacing" textLength="130.1973" x="190.5" y="370.1826">parse_value(): any</text><rect fill="#F24D5C" height="6" style="stroke:#C82930;stroke-width:1;" width="6" x="178.5" y="380.1328"/><text fill="#000000" font-family="sans-serif" font-size="14" lengthAdjust="spacing" textLength="183.5176" x="190.5" y="386.4795">parse_timestamp(): String</text></g><!--class ProductionDataModelToAASDataModelParser--><g class="entity" data-entity="ProductionDataModelToAASDataModelParser" data-source-line="61" data-uid="ent0021" id="entity_ProductionDataModelToAASDataModelParser"><rect fill="#FEFECE" filter="url(#f1fqhky08yd7lk)" height="129.4844" style="stroke:#A80036;stroke-width:1;" width="347.5605" x="547" y="256.5"/><ellipse cx="562" cy="272.5" fill="#ADD1B2" rx="11" ry="11" style="stroke:#A80036;stroke-width:1;"/><path d="M564.9688,278.1406 Q564.3906,278.4375 563.75,278.5781 Q563.1094,278.7344 562.4063,278.7344 Q559.9063,278.7344 558.5781,277.0938 Q557.2656,275.4375 557.2656,272.3125 Q557.2656,269.1875 558.5781,267.5313 Q559.9063,265.875 562.4063,265.875 Q563.1094,265.875 563.75,266.0313 Q564.4063,266.1875 564.9688,266.4844 L564.9688,269.2031 Q564.3438,268.625 563.75,268.3594 Q563.1563,268.0781 562.5313,268.0781 Q561.1875,268.0781 560.5,269.1563 Q559.8125,270.2188 559.8125,272.3125 Q559.8125,274.4063 560.5,275.4844 Q561.1875,276.5469 562.5313,276.5469 Q563.1563,276.5469 563.75,276.2813 Q564.3438,276 564.9688,275.4219 L564.9688,278.1406 Z " fill="#000000"/><text fill="#000000" font-family="sans-serif" font-size="14" lengthAdjust="spacing" textLength="315.5605" x="576" y="277.3467">ProductionDataModelToAASDataModelParser</text><line style="stroke:#A80036;stroke-width:1;" x1="548" x2="893.5605" y1="288.5" y2="288.5"/><rect fill="none" height="6" style="stroke:#C82930;stroke-width:1;" width="6" x="555" y="299.1484"/><text fill="#000000" font-family="sans-serif" font-size="14" lengthAdjust="spacing" textLength="220.623" x="567" y="305.4951">AASDataModel : AASDataModel</text><line style="stroke:#A80036;stroke-width:1;" x1="548" x2="893.5605" y1="312.7969" y2="312.7969"/><ellipse cx="558" cy="326.4453" fill="#84BE84" rx="3" ry="3" style="stroke:#038048;stroke-width:1;"/><text fill="#000000" font-family="sans-serif" font-size="14" lengthAdjust="spacing" textLength="129.623" x="567" y="329.792">parse(): jsonString</text><rect fill="#F24D5C" height="6" style="stroke:#C82930;stroke-width:1;" width="6" x="555" y="339.7422"/><text fill="#000000" font-family="sans-serif" font-size="14" lengthAdjust="spacing" textLength="239.1279" x="567" y="346.0889">parse_data_type(): AASDataTypes</text><rect fill="#F24D5C" height="6" style="stroke:#C82930;stroke-width:1;" width="6" x="555" y="356.0391"/><text fill="#000000" font-family="sans-serif" font-size="14" lengthAdjust="spacing" textLength="130.1973" x="567" y="362.3857">parse_value(): any</text><rect fill="#F24D5C" height="6" style="stroke:#C82930;stroke-width:1;" width="6" x="555" y="372.3359"/><text fill="#000000" font-family="sans-serif" font-size="14" lengthAdjust="spacing" textLength="183.5176" x="567" y="378.6826">parse_timestamp(): String</text></g><!--class DataTranslatorClass--><g class="entity" data-entity="DataTranslatorClass" data-source-line="69" data-uid="ent0022" id="entity_DataTranslatorClass"><rect fill="#FEFECE" filter="url(#f1fqhky08yd7lk)" height="129.4844" style="stroke:#A80036;stroke-width:1;" width="670.7383" x="385.5" y="42"/><ellipse cx="664.2388" cy="58" fill="#ADD1B2" rx="11" ry="11" style="stroke:#A80036;stroke-width:1;"/><path d="M667.2075,63.6406 Q666.6294,63.9375 665.9888,64.0781 Q665.3481,64.2344 664.645,64.2344 Q662.145,64.2344 660.8169,62.5938 Q659.5044,60.9375 659.5044,57.8125 Q659.5044,54.6875 660.8169,53.0313 Q662.145,51.375 664.645,51.375 Q665.3481,51.375 665.9888,51.5313 Q666.645,51.6875 667.2075,51.9844 L667.2075,54.7031 Q666.5825,54.125 665.9888,53.8594 Q665.395,53.5781 664.77,53.5781 Q663.4263,53.5781 662.7388,54.6563 Q662.0513,55.7188 662.0513,57.8125 Q662.0513,59.9063 662.7388,60.9844 Q663.4263,62.0469 664.77,62.0469 Q665.395,62.0469 665.9888,61.7813 Q666.5825,61.5 667.2075,60.9219 L667.2075,63.6406 Z " fill="#000000"/><text fill="#000000" font-family="sans-serif" font-size="14" lengthAdjust="spacing" textLength="104.7607" x="684.7388" y="62.8467">DataTranslator</text><line style="stroke:#A80036;stroke-width:1;" x1="386.5" x2="1055.2383" y1="74" y2="74"/><rect fill="none" height="6" style="stroke:#C82930;stroke-width:1;" width="6" x="393.5" y="84.6484"/><text fill="#000000" font-family="sans-serif" font-size="14" lengthAdjust="spacing" textLength="348.8926" x="405.5" y="90.9951">DataTranslatorConfiguration : DataTranslatorUtils</text><rect fill="none" height="6" style="stroke:#C82930;stroke-width:1;" width="6" x="393.5" y="100.9453"/><text fill="#000000" font-family="sans-serif" font-size="14" lengthAdjust="spacing" textLength="560.6699" x="405.5" y="107.292">AASDataModelToProductionDataParser : AASDataModelToProductionDataParser</text><rect fill="none" height="6" style="stroke:#C82930;stroke-width:1;" width="6" x="393.5" y="117.2422"/><text fill="#000000" font-family="sans-serif" font-size="14" lengthAdjust="spacing" textLength="644.7383" x="405.5" y="123.5889">ProductionDataModelToAASDataModelParser : ProductionDataModelToAASDataModelParser</text><line style="stroke:#A80036;stroke-width:1;" x1="386.5" x2="1055.2383" y1="130.8906" y2="130.8906"/><ellipse cx="396.5" cy="144.5391" fill="#84BE84" rx="3" ry="3" style="stroke:#038048;stroke-width:1;"/><text fill="#000000" font-family="sans-serif" font-size="14" lengthAdjust="spacing" textLength="430.6025" x="405.5" y="147.8857">translate_aas_to_production(aas_data: jsonString): jsonString</text><ellipse cx="396.5" cy="160.8359" fill="#84BE84" rx="3" ry="3" style="stroke:#038048;stroke-width:1;"/><text fill="#000000" font-family="sans-serif" font-size="14" lengthAdjust="spacing" textLength="467.3184" x="405.5" y="164.1826">translate_production_to_aas(resource_data: jsonString): jsonString</text></g><!--class DataTranslatorUtils--><g class="entity" data-entity="DataTranslatorUtils" data-source-line="77" data-uid="ent0023" id="entity_DataTranslatorUtils"><rect fill="#FEFECE" filter="url(#f1fqhky08yd7lk)" height="80.5938" style="stroke:#A80036;stroke-width:1;" width="308.0371" x="930" y="280.5"/><ellipse cx="1011.9834" cy="296.5" fill="#ADD1B2" rx="11" ry="11" style="stroke:#A80036;stroke-width:1;"/><path d="M1014.9521,302.1406 Q1014.374,302.4375 1013.7334,302.5781 Q1013.0928,302.7344 1012.3896,302.7344 Q1009.8896,302.7344 1008.5615,301.0938 Q1007.249,299.4375 1007.249,296.3125 Q1007.249,293.1875 1008.5615,291.5313 Q1009.8896,289.875 1012.3896,289.875 Q1013.0928,289.875 1013.7334,290.0313 Q1014.3896,290.1875 1014.9521,290.4844 L1014.9521,293.2031 Q1014.3271,292.625 1013.7334,292.3594 Q1013.1396,292.0781 1012.5146,292.0781 Q1011.1709,292.0781 1010.4834,293.1563 Q1009.7959,294.2188 1009.7959,296.3125 Q1009.7959,298.4063 1010.4834,299.4844 Q1011.1709,300.5469 1012.5146,300.5469 Q1013.1396,300.5469 1013.7334,300.2813 Q1014.3271,300 1014.9521,299.4219 L1014.9521,302.1406 Z " fill="#000000"/><text fill="#000000" font-family="sans-serif" font-size="14" lengthAdjust="spacing" textLength="135.5703" x="1032.4834" y="301.3467">DataTranslatorUtils</text><line style="stroke:#A80036;stroke-width:1;" x1="931" x2="1237.0371" y1="312.5" y2="312.5"/><ellipse cx="941" cy="326.1484" fill="none" rx="3" ry="3" style="stroke:#038048;stroke-width:1;"/><text fill="#000000" font-family="sans-serif" font-size="14" lengthAdjust="spacing" textLength="282.0371" x="950" y="329.4951">DataTranslatorConfigurationPath: String</text><line style="stroke:#A80036;stroke-width:1;" x1="931" x2="1237.0371" y1="336.7969" y2="336.7969"/><ellipse cx="941" cy="350.4453" fill="#84BE84" rx="3" ry="3" style="stroke:#038048;stroke-width:1;"/><text fill="#000000" font-family="sans-serif" font-size="14" lengthAdjust="spacing" textLength="263.1631" x="950" y="353.792">getDataTranslatorConfig(): jsonString</text></g><!--reverse link DataTranslatorClass to DataTranslatorUtils--><g class="link" data-entity-1="DataTranslatorClass" data-entity-2="DataTranslatorUtils" data-source-line="82" data-uid="lnk24" id="link_DataTranslatorClass_DataTranslatorUtils"><path codeLine="82" d="M840.2662,177.3222 C900.8262,212.7722 963.95,249.72 1016.27,280.35" fill="none" id="DataTranslatorClass-backto-DataTranslatorUtils" style="stroke:#A80036;stroke-width:1;"/><polygon fill="#A80036" points="829.91,171.26,833.0674,177.7431,840.2662,177.3222,837.1088,170.839,829.91,171.26" style="stroke:#A80036;stroke-width:1;"/><text fill="#000000" font-family="sans-serif" font-size="13" lengthAdjust="spacing" textLength="8.271" x="903" y="214.0669">1</text></g><!--reverse link DataTranslatorClass to AASDataModelToProductionDataParser--><g class="link" data-entity-1="DataTranslatorClass" data-entity-2="AASDataModelToProductionDataParser" data-source-line="83" data-uid="lnk25" id="link_DataTranslatorClass_AASDataModelToProductionDataParser"><path codeLine="83" d="M596.7667,176.9676 C553.5867,201.1176 514.58,222.93 470.08,247.82" fill="none" id="DataTranslatorClass-backto-AASDataModelToProductionDataParser" style="stroke:#A80036;stroke-width:1;"/><polygon fill="#A80036" points="607.24,171.11,600.0509,170.5477,596.7667,176.9676,603.9559,177.5299,607.24,171.11" style="stroke:#A80036;stroke-width:1;"/><text fill="#000000" font-family="sans-serif" font-size="13" lengthAdjust="spacing" textLength="8.271" x="554" y="214.0669">1</text></g><!--reverse link DataTranslatorClass to ProductionDataModelToAASDataModelParser--><g class="link" data-entity-1="DataTranslatorClass" data-entity-2="ProductionDataModelToAASDataModelParser" data-source-line="84" data-uid="lnk26" id="link_DataTranslatorClass_ProductionDataModelToAASDataModelParser"><path codeLine="84" d="M721,183.26 C721,210.15 721,229.4 721,256.29" fill="none" id="DataTranslatorClass-backto-ProductionDataModelToAASDataModelParser" style="stroke:#A80036;stroke-width:1;"/><polygon fill="#A80036" points="721,171.26,717,177.26,721,183.26,725,177.26,721,171.26" style="stroke:#A80036;stroke-width:1;"/><text fill="#000000" font-family="sans-serif" font-size="13" lengthAdjust="spacing" textLength="8.271" x="722" y="214.0669">1</text></g><!--link AASDataModelToProductionDataParser to DataParser--><g class="link" data-entity-1="AASDataModelToProductionDataParser" data-entity-2="DataParser" data-source-line="85" data-uid="lnk27" id="link_AASDataModelToProductionDataParser_DataParser"><path codeLine="85" d="M407.37,394.05 C436.93,426.15 458.0066,449.0191 481.0566,474.0491" fill="none" id="AASDataModelToProductionDataParser-to-DataParser" style="stroke:#A80036;stroke-width:1;stroke-dasharray:7,7;"/><polygon fill="none" points="493.25,487.29,485.4702,469.9847,476.6429,478.1136,493.25,487.29" style="stroke:#A80036;stroke-width:1;"/></g><!--link ProductionDataModelToAASDataModelParser to DataParser--><g class="link" data-entity-1="ProductionDataModelToAASDataModelParser" data-entity-2="DataParser" data-source-line="86" data-uid="lnk28" id="link_ProductionDataModelToAASDataModelParser_DataParser"><path codeLine="86" d="M656.67,385.53 C622.14,419.61 593.9465,447.4512 566.3365,474.7212" fill="none" id="ProductionDataModelToAASDataModelParser-to-DataParser" style="stroke:#A80036;stroke-width:1;stroke-dasharray:7,7;"/><polygon fill="none" points="553.53,487.37,570.5528,478.99,562.1203,470.4523,553.53,487.37" style="stroke:#A80036;stroke-width:1;"/></g><!--link AASDataModel to AASDataTypes--><g class="link" data-entity-1="AASDataModel" data-entity-2="AASDataTypes" data-source-line="87" data-uid="lnk29" id="link_AASDataModel_AASDataTypes"><path codeLine="87" d="M749.08,568.21 C737.02,593.29 722.43,623.67 711.01,647.43" fill="none" id="AASDataModel-AASDataTypes" style="stroke:#A80036;stroke-width:1;"/><text fill="#000000" font-family="sans-serif" font-size="13" lengthAdjust="spacing" textLength="8.271" x="735" y="611.0669">1</text></g><!--link ProductionDataModel to SubmodelTypes--><g class="link" data-entity-1="ProductionDataModel" data-entity-2="SubmodelTypes" data-source-line="88" data-uid="lnk30" id="link_ProductionDataModel_SubmodelTypes"><path codeLine="88" d="M230.55,568.21 C198.42,596.37 158.68,631.2 130.55,655.85" fill="none" id="ProductionDataModel-SubmodelTypes" style="stroke:#A80036;stroke-width:1;"/><text fill="#000000" font-family="sans-serif" font-size="13" lengthAdjust="spacing" textLength="8.271" x="196" y="611.0669">1</text></g><!--link AASDataModelToProductionDataParser to ProductionDataModel--><g class="link" data-entity-1="AASDataModelToProductionDataParser" data-entity-2="ProductionDataModel" data-source-line="89" data-uid="lnk31" id="link_AASDataModelToProductionDataParser_ProductionDataModel"><path codeLine="89" d="M320.47,394.05 C313.16,419.68 305.13,447.88 298.55,470.94" fill="none" id="AASDataModelToProductionDataParser-ProductionDataModel" style="stroke:#A80036;stroke-width:1;"/><text fill="#000000" font-family="sans-serif" font-size="13" lengthAdjust="spacing" textLength="8.271" x="312" y="437.0669">1</text></g><!--link ProductionDataModelToAASDataModelParser to AASDataModel--><g class="link" data-entity-1="ProductionDataModelToAASDataModelParser" data-entity-2="AASDataModel" data-source-line="90" data-uid="lnk32" id="link_ProductionDataModelToAASDataModelParser_AASDataModel"><path codeLine="90" d="M737.49,385.53 C744.68,413.22 752.96,445.14 759.61,470.77" fill="none" id="ProductionDataModelToAASDataModelParser-AASDataModel" style="stroke:#A80036;stroke-width:1;"/><text fill="#000000" font-family="sans-serif" font-size="13" lengthAdjust="spacing" textLength="8.271" x="752" y="437.0669">1</text></g><!--SRC=[fLLBRzf04BxdLupeXRGnILhruaCa52ArKjD4XPxHOYzu6zjhxQv3KCj_x-mi-CL278K3u7dFDz-CzPF8GKdDuOobgLnduaNagxCpW4XcXSnvRc0mOORD5CjroenK0s0QsYBuQpq0U5vcC1YFfwJU55oJSLE0fa2VwMmykzlzltsuln__dD3JbhvpQJWif34o0xbiH_YGYbLYLehpd6nd2OTfkSXap5CD6HDvke64FNFu38OyC4ACxc3GCf9vn5LE_yShx8zY1AwU4FXe1RUbKhRngM66Ny0teR574R6KsjxPxsfs7jCdaQQaq18Z2-sWYFbIv9ZV91PXivQxUeo41OTIynY4g-H1HGdNHZ4ZP6wptDjkTg3618U3sFPncpAjAvp9ieap2IgSFv7Bt2OEMpXM-cUMbgXZ-QOI6P5XDImhGWH1MKQyDXgNj3kQNxnGN2EM6XWWs1nXj1vk76H2OuErC0cQk2bXTHUkgWkiAgwh6P77Ek6AWrWIS9K78EZ8sOmS4kvWfI2e8R_nz0TewWPrp5Wc62IBBQrofC7m5nwL1eUps50KR46MAk8KXLdEqD074uLJ1upqvUhg2bIHmH9tuMja1r-OPE0PdzkGFLlh5Mb9F3lYXRxjTBWMHBe41U0i71sffOmLXGL2EXJrBXA862uTZtUIkvHdjc4HE_1juuJvKc4HYkDI81cviV3JlZXj4DpO71RGPkn1QxKw07Ne_QXaN4QjVI2eFF86sVVPvfYjHTxtCzsNk1VXzpLTTa6jjw2p1nLctoUdDg45dMFdmXwH2CbD8Df27vdIN3KWAgnWQ7E7y4VBtFLzNkEoTLnr8PhxFPDj33gX0oz4eKzQURGv7BQVEoMVD-kj8f1ktfYxjVFQ4933yoO1zgeAs8xpje64fusPRC9p04VhDeQjnpUqLjrlQ-MvuEzghz7Vw-zvjvbrVnsjp9TYLRft6BRRrlus8jLUP8wmAknXT8futjc4VItFwWknQu7F6TDp8-T55M5e9Pv5EXXbCqhjReDXXE7-_T8ZrFRul0ZWGMFFJqpdaPdau3gkkF6v37rLq8-F71-3m3Tu1Fxwf4ylGfmEqPy3BawFbAFHlnleqArl6fzlwo3KNU-Ft_Mn1DQsUobxDn4SkylNR-edEBXdrX-fy1y0]--></g></svg>