<svg xmlns="http://www.w3.org/2000/svg" xmlns:xlink="http://www.w3.org/1999/xlink" contentStyleType="text/css" data-diagram-type="CLASS" height="320px" preserveAspectRatio="none" style="width:1569px;height:320px;background:#FFFFFF;" version="1.1" viewBox="0 0 1569 320" width="1569px" zoomAndPan="magnify"><defs><filter height="300%" id="fop5pt6fwp2j2" width="300%" x="-1" y="-1"><feGaussianBlur result="blurOut" stdDeviation="2"/><feColorMatrix in="blurOut" result="blurOut2" type="matrix" values="0 0 0 0 0 0 0 0 0 0 0 0 0 0 0 0 0 0 .4 0"/><feOffset dx="4" dy="4" in="blurOut2" result="blurOut3"/><feBlend in="SourceGraphic" in2="blurOut3" mode="normal"/></filter></defs><g><!--cluster BehaviorCore--><g class="cluster" data-entity="BehaviorCore" data-source-line="6" data-uid="ent0002" id="cluster_BehaviorCore"><polygon fill="none" filter="url(#fop5pt6fwp2j2)" points="16,6,116.876,6,123.876,28.2969,1552,28.2969,1552,311,16,311,16,6" style="stroke:#000000;stroke-width:1.5;"/><line style="stroke:#000000;stroke-width:1.5;" x1="16" x2="123.876" y1="28.2969" y2="28.2969"/><text fill="#000000" font-family="sans-serif" font-size="14" lengthAdjust="spacing" textLength="94.876" x="20" y="20.9951">BehaviorCore</text></g><!--class OneShotBehavior--><g class="entity" data-entity="OneShotBehavior" data-source-line="8" data-uid="ent0003" id="entity_OneShotBehavior"><rect fill="#FEFECE" filter="url(#fop5pt6fwp2j2)" height="96.8906" style="stroke:#A80036;stroke-width:1;" width="154.4863" x="878" y="41"/><ellipse cx="893" cy="57" fill="#A9DCDF" rx="11" ry="11" style="stroke:#A80036;stroke-width:1;"/><path d="M893.1094,52.3438 L891.9531,57.4219 L894.2813,57.4219 L893.1094,52.3438 Z M891.625,50.1094 L894.6094,50.1094 L897.9688,62.5 L895.5156,62.5 L894.75,59.4375 L891.4688,59.4375 L890.7188,62.5 L888.2813,62.5 L891.625,50.1094 Z " fill="#000000"/><text fill="#000000" font-family="sans-serif" font-size="14" font-style="italic" lengthAdjust="spacing" textLength="122.4863" x="907" y="61.8467">OneShotBehavior</text><line style="stroke:#A80036;stroke-width:1;" x1="879" x2="1031.4863" y1="73" y2="73"/><line style="stroke:#A80036;stroke-width:1;" x1="879" x2="1031.4863" y1="81" y2="81"/><ellipse cx="889" cy="94.6484" fill="#84BE84" rx="3" ry="3" style="stroke:#038048;stroke-width:1;"/><text fill="#000000" font-family="sans-serif" font-size="14" lengthAdjust="spacing" textLength="77.6699" x="898" y="97.9951">run() : void</text><ellipse cx="889" cy="110.9453" fill="#84BE84" rx="3" ry="3" style="stroke:#038048;stroke-width:1;"/><text fill="#000000" font-family="sans-serif" font-size="14" lengthAdjust="spacing" textLength="111.2139" x="898" y="114.292">on_start() : void</text><ellipse cx="889" cy="127.2422" fill="#84BE84" rx="3" ry="3" style="stroke:#038048;stroke-width:1;"/><text fill="#000000" font-family="sans-serif" font-size="14" lengthAdjust="spacing" textLength="104.9795" x="898" y="130.5889">on_end() : void</text></g><!--class CyclicBehavior--><g class="entity" data-entity="CyclicBehavior" data-source-line="13" data-uid="ent0004" id="entity_CyclicBehavior"><rect fill="#FEFECE" filter="url(#fop5pt6fwp2j2)" height="96.8906" style="stroke:#A80036;stroke-width:1;" width="137.2139" x="110.5" y="41"/><ellipse cx="126.3161" cy="57" fill="#A9DCDF" rx="11" ry="11" style="stroke:#A80036;stroke-width:1;"/><path d="M126.4254,52.3438 L125.2692,57.4219 L127.5973,57.4219 L126.4254,52.3438 Z M124.9411,50.1094 L127.9254,50.1094 L131.2848,62.5 L128.8317,62.5 L128.0661,59.4375 L124.7848,59.4375 L124.0348,62.5 L121.5973,62.5 L124.9411,50.1094 Z " fill="#000000"/><text fill="#000000" font-family="sans-serif" font-size="14" font-style="italic" lengthAdjust="spacing" textLength="103.4004" x="140.4974" y="61.8467">CyclicBehavior</text><line style="stroke:#A80036;stroke-width:1;" x1="111.5" x2="246.7139" y1="73" y2="73"/><line style="stroke:#A80036;stroke-width:1;" x1="111.5" x2="246.7139" y1="81" y2="81"/><ellipse cx="121.5" cy="94.6484" fill="#84BE84" rx="3" ry="3" style="stroke:#038048;stroke-width:1;"/><text fill="#000000" font-family="sans-serif" font-size="14" lengthAdjust="spacing" textLength="77.6699" x="130.5" y="97.9951">run() : void</text><ellipse cx="121.5" cy="110.9453" fill="#84BE84" rx="3" ry="3" style="stroke:#038048;stroke-width:1;"/><text fill="#000000" font-family="sans-serif" font-size="14" lengthAdjust="spacing" textLength="111.2139" x="130.5" y="114.292">on_start() : void</text><ellipse cx="121.5" cy="127.2422" fill="#84BE84" rx="3" ry="3" style="stroke:#038048;stroke-width:1;"/><text fill="#000000" font-family="sans-serif" font-size="14" lengthAdjust="spacing" textLength="104.9795" x="130.5" y="130.5889">on_end() : void</text></g><!--class ResourceProposalEvaluationBehavior--><g class="entity" data-entity="ResourceProposalEvaluationBehavior" data-source-line="19" data-uid="ent0005" id="entity_ResourceProposalEvaluationBehavior"><rect fill="#FEFECE" filter="url(#fop5pt6fwp2j2)" height="96.8906" style="stroke:#A80036;stroke-width:1;" width="293.1533" x="32.5" y="198"/><ellipse cx="47.5" cy="214" fill="#ADD1B2" rx="11" ry="11" style="stroke:#A80036;stroke-width:1;"/><path d="M50.4688,219.6406 Q49.8906,219.9375 49.25,220.0781 Q48.6094,220.2344 47.9063,220.2344 Q45.4063,220.2344 44.0781,218.5938 Q42.7656,216.9375 42.7656,213.8125 Q42.7656,210.6875 44.0781,209.0313 Q45.4063,207.375 47.9063,207.375 Q48.6094,207.375 49.25,207.5313 Q49.9063,207.6875 50.4688,207.9844 L50.4688,210.7031 Q49.8438,210.125 49.25,209.8594 Q48.6563,209.5781 48.0313,209.5781 Q46.6875,209.5781 46,210.6563 Q45.3125,211.7188 45.3125,213.8125 Q45.3125,215.9063 46,216.9844 Q46.6875,218.0469 48.0313,218.0469 Q48.6563,218.0469 49.25,217.7813 Q49.8438,217.5 50.4688,216.9219 L50.4688,219.6406 Z " fill="#000000"/><text fill="#000000" font-family="sans-serif" font-size="14" lengthAdjust="spacing" textLength="261.1533" x="61.5" y="218.8467">ResourceProposalEvaluationBehavior</text><line style="stroke:#A80036;stroke-width:1;" x1="33.5" x2="324.6533" y1="230" y2="230"/><line style="stroke:#A80036;stroke-width:1;" x1="33.5" x2="324.6533" y1="238" y2="238"/><ellipse cx="43.5" cy="251.6484" fill="#84BE84" rx="3" ry="3" style="stroke:#038048;stroke-width:1;"/><text fill="#000000" font-family="sans-serif" font-size="14" lengthAdjust="spacing" textLength="77.6699" x="52.5" y="254.9951">run() : void</text><ellipse cx="43.5" cy="267.9453" fill="#84BE84" rx="3" ry="3" style="stroke:#038048;stroke-width:1;"/><text fill="#000000" font-family="sans-serif" font-size="14" lengthAdjust="spacing" textLength="111.2139" x="52.5" y="271.292">on_start() : void</text><ellipse cx="43.5" cy="284.2422" fill="#84BE84" rx="3" ry="3" style="stroke:#038048;stroke-width:1;"/><text fill="#000000" font-family="sans-serif" font-size="14" lengthAdjust="spacing" textLength="104.9795" x="52.5" y="287.5889">on_end() : void</text></g><!--class ResourceDeclineProposalBehavior--><g class="entity" data-entity="ResourceDeclineProposalBehavior" data-source-line="24" data-uid="ent0006" id="entity_ResourceDeclineProposalBehavior"><rect fill="#FEFECE" filter="url(#fop5pt6fwp2j2)" height="96.8906" style="stroke:#A80036;stroke-width:1;" width="271.6406" x="361" y="198"/><ellipse cx="376" cy="214" fill="#ADD1B2" rx="11" ry="11" style="stroke:#A80036;stroke-width:1;"/><path d="M378.9688,219.6406 Q378.3906,219.9375 377.75,220.0781 Q377.1094,220.2344 376.4063,220.2344 Q373.9063,220.2344 372.5781,218.5938 Q371.2656,216.9375 371.2656,213.8125 Q371.2656,210.6875 372.5781,209.0313 Q373.9063,207.375 376.4063,207.375 Q377.1094,207.375 377.75,207.5313 Q378.4063,207.6875 378.9688,207.9844 L378.9688,210.7031 Q378.3438,210.125 377.75,209.8594 Q377.1563,209.5781 376.5313,209.5781 Q375.1875,209.5781 374.5,210.6563 Q373.8125,211.7188 373.8125,213.8125 Q373.8125,215.9063 374.5,216.9844 Q375.1875,218.0469 376.5313,218.0469 Q377.1563,218.0469 377.75,217.7813 Q378.3438,217.5 378.9688,216.9219 L378.9688,219.6406 Z " fill="#000000"/><text fill="#000000" font-family="sans-serif" font-size="14" lengthAdjust="spacing" textLength="239.6406" x="390" y="218.8467">ResourceDeclineProposalBehavior</text><line style="stroke:#A80036;stroke-width:1;" x1="362" x2="631.6406" y1="230" y2="230"/><line style="stroke:#A80036;stroke-width:1;" x1="362" x2="631.6406" y1="238" y2="238"/><ellipse cx="372" cy="251.6484" fill="#84BE84" rx="3" ry="3" style="stroke:#038048;stroke-width:1;"/><text fill="#000000" font-family="sans-serif" font-size="14" lengthAdjust="spacing" textLength="77.6699" x="381" y="254.9951">run() : void</text><ellipse cx="372" cy="267.9453" fill="#84BE84" rx="3" ry="3" style="stroke:#038048;stroke-width:1;"/><text fill="#000000" font-family="sans-serif" font-size="14" lengthAdjust="spacing" textLength="111.2139" x="381" y="271.292">on_start() : void</text><ellipse cx="372" cy="284.2422" fill="#84BE84" rx="3" ry="3" style="stroke:#038048;stroke-width:1;"/><text fill="#000000" font-family="sans-serif" font-size="14" lengthAdjust="spacing" textLength="104.9795" x="381" y="287.5889">on_end() : void</text></g><!--class ResourceAcceptProposalBehavior--><g class="entity" data-entity="ResourceAcceptProposalBehavior" data-source-line="29" data-uid="ent0007" id="entity_ResourceAcceptProposalBehavior"><rect fill="#FEFECE" filter="url(#fop5pt6fwp2j2)" height="96.8906" style="stroke:#A80036;stroke-width:1;" width="267.2451" x="668.5" y="198"/><ellipse cx="683.5" cy="214" fill="#ADD1B2" rx="11" ry="11" style="stroke:#A80036;stroke-width:1;"/><path d="M686.4688,219.6406 Q685.8906,219.9375 685.25,220.0781 Q684.6094,220.2344 683.9063,220.2344 Q681.4063,220.2344 680.0781,218.5938 Q678.7656,216.9375 678.7656,213.8125 Q678.7656,210.6875 680.0781,209.0313 Q681.4063,207.375 683.9063,207.375 Q684.6094,207.375 685.25,207.5313 Q685.9063,207.6875 686.4688,207.9844 L686.4688,210.7031 Q685.8438,210.125 685.25,209.8594 Q684.6563,209.5781 684.0313,209.5781 Q682.6875,209.5781 682,210.6563 Q681.3125,211.7188 681.3125,213.8125 Q681.3125,215.9063 682,216.9844 Q682.6875,218.0469 684.0313,218.0469 Q684.6563,218.0469 685.25,217.7813 Q685.8438,217.5 686.4688,216.9219 L686.4688,219.6406 Z " fill="#000000"/><text fill="#000000" font-family="sans-serif" font-size="14" lengthAdjust="spacing" textLength="235.2451" x="697.5" y="218.8467">ResourceAcceptProposalBehavior</text><line style="stroke:#A80036;stroke-width:1;" x1="669.5" x2="934.7451" y1="230" y2="230"/><line style="stroke:#A80036;stroke-width:1;" x1="669.5" x2="934.7451" y1="238" y2="238"/><ellipse cx="679.5" cy="251.6484" fill="#84BE84" rx="3" ry="3" style="stroke:#038048;stroke-width:1;"/><text fill="#000000" font-family="sans-serif" font-size="14" lengthAdjust="spacing" textLength="77.6699" x="688.5" y="254.9951">run() : void</text><ellipse cx="679.5" cy="267.9453" fill="#84BE84" rx="3" ry="3" style="stroke:#038048;stroke-width:1;"/><text fill="#000000" font-family="sans-serif" font-size="14" lengthAdjust="spacing" textLength="111.2139" x="688.5" y="271.292">on_start() : void</text><ellipse cx="679.5" cy="284.2422" fill="#84BE84" rx="3" ry="3" style="stroke:#038048;stroke-width:1;"/><text fill="#000000" font-family="sans-serif" font-size="14" lengthAdjust="spacing" textLength="104.9795" x="688.5" y="287.5889">on_end() : void</text></g><!--class ResourceExecuteOnAssetBehavior--><g class="entity" data-entity="ResourceExecuteOnAssetBehavior" data-source-line="34" data-uid="ent0008" id="entity_ResourceExecuteOnAssetBehavior"><rect fill="#FEFECE" filter="url(#fop5pt6fwp2j2)" height="96.8906" style="stroke:#A80036;stroke-width:1;" width="273.8828" x="971" y="198"/><ellipse cx="986" cy="214" fill="#ADD1B2" rx="11" ry="11" style="stroke:#A80036;stroke-width:1;"/><path d="M988.9688,219.6406 Q988.3906,219.9375 987.75,220.0781 Q987.1094,220.2344 986.4063,220.2344 Q983.9063,220.2344 982.5781,218.5938 Q981.2656,216.9375 981.2656,213.8125 Q981.2656,210.6875 982.5781,209.0313 Q983.9063,207.375 986.4063,207.375 Q987.1094,207.375 987.75,207.5313 Q988.4063,207.6875 988.9688,207.9844 L988.9688,210.7031 Q988.3438,210.125 987.75,209.8594 Q987.1563,209.5781 986.5313,209.5781 Q985.1875,209.5781 984.5,210.6563 Q983.8125,211.7188 983.8125,213.8125 Q983.8125,215.9063 984.5,216.9844 Q985.1875,218.0469 986.5313,218.0469 Q987.1563,218.0469 987.75,217.7813 Q988.3438,217.5 988.9688,216.9219 L988.9688,219.6406 Z " fill="#000000"/><text fill="#000000" font-family="sans-serif" font-size="14" lengthAdjust="spacing" textLength="241.8828" x="1000" y="218.8467">ResourceExecuteOnAssetBehavior</text><line style="stroke:#A80036;stroke-width:1;" x1="972" x2="1243.8828" y1="230" y2="230"/><line style="stroke:#A80036;stroke-width:1;" x1="972" x2="1243.8828" y1="238" y2="238"/><ellipse cx="982" cy="251.6484" fill="#84BE84" rx="3" ry="3" style="stroke:#038048;stroke-width:1;"/><text fill="#000000" font-family="sans-serif" font-size="14" lengthAdjust="spacing" textLength="77.6699" x="991" y="254.9951">run() : void</text><ellipse cx="982" cy="267.9453" fill="#84BE84" rx="3" ry="3" style="stroke:#038048;stroke-width:1;"/><text fill="#000000" font-family="sans-serif" font-size="14" lengthAdjust="spacing" textLength="111.2139" x="991" y="271.292">on_start() : void</text><ellipse cx="982" cy="284.2422" fill="#84BE84" rx="3" ry="3" style="stroke:#038048;stroke-width:1;"/><text fill="#000000" font-family="sans-serif" font-size="14" lengthAdjust="spacing" textLength="104.9795" x="991" y="287.5889">on_end() : void</text></g><!--class ResourceGetAssetDataBehavior--><g class="entity" data-entity="ResourceGetAssetDataBehavior" data-source-line="39" data-uid="ent0009" id="entity_ResourceGetAssetDataBehavior"><rect fill="#FEFECE" filter="url(#fop5pt6fwp2j2)" height="96.8906" style="stroke:#A80036;stroke-width:1;" width="255.9521" x="1280" y="198"/><ellipse cx="1295" cy="214" fill="#ADD1B2" rx="11" ry="11" style="stroke:#A80036;stroke-width:1;"/><path d="M1297.9688,219.6406 Q1297.3906,219.9375 1296.75,220.0781 Q1296.1094,220.2344 1295.4063,220.2344 Q1292.9063,220.2344 1291.5781,218.5938 Q1290.2656,216.9375 1290.2656,213.8125 Q1290.2656,210.6875 1291.5781,209.0313 Q1292.9063,207.375 1295.4063,207.375 Q1296.1094,207.375 1296.75,207.5313 Q1297.4063,207.6875 1297.9688,207.9844 L1297.9688,210.7031 Q1297.3438,210.125 1296.75,209.8594 Q1296.1563,209.5781 1295.5313,209.5781 Q1294.1875,209.5781 1293.5,210.6563 Q1292.8125,211.7188 1292.8125,213.8125 Q1292.8125,215.9063 1293.5,216.9844 Q1294.1875,218.0469 1295.5313,218.0469 Q1296.1563,218.0469 1296.75,217.7813 Q1297.3438,217.5 1297.9688,216.9219 L1297.9688,219.6406 Z " fill="#000000"/><text fill="#000000" font-family="sans-serif" font-size="14" lengthAdjust="spacing" textLength="223.9521" x="1309" y="218.8467">ResourceGetAssetDataBehavior</text><line style="stroke:#A80036;stroke-width:1;" x1="1281" x2="1534.9521" y1="230" y2="230"/><line style="stroke:#A80036;stroke-width:1;" x1="1281" x2="1534.9521" y1="238" y2="238"/><ellipse cx="1291" cy="251.6484" fill="#84BE84" rx="3" ry="3" style="stroke:#038048;stroke-width:1;"/><text fill="#000000" font-family="sans-serif" font-size="14" lengthAdjust="spacing" textLength="77.6699" x="1300" y="254.9951">run() : void</text><ellipse cx="1291" cy="267.9453" fill="#84BE84" rx="3" ry="3" style="stroke:#038048;stroke-width:1;"/><text fill="#000000" font-family="sans-serif" font-size="14" lengthAdjust="spacing" textLength="111.2139" x="1300" y="271.292">on_start() : void</text><ellipse cx="1291" cy="284.2422" fill="#84BE84" rx="3" ry="3" style="stroke:#038048;stroke-width:1;"/><text fill="#000000" font-family="sans-serif" font-size="14" lengthAdjust="spacing" textLength="104.9795" x="1300" y="287.5889">on_end() : void</text></g><!--reverse link CyclicBehavior to ResourceProposalEvaluationBehavior--><g class="link" data-entity-1="CyclicBehavior" data-entity-2="ResourceProposalEvaluationBehavior" data-source-line="45" data-uid="lnk10" id="link_CyclicBehavior_ResourceProposalEvaluationBehavior"><path codeLine="45" d="M179,156.27 C179,175.22 179,178.96 179,197.89" fill="none" id="CyclicBehavior-backto-ResourceProposalEvaluationBehavior" style="stroke:#A80036;stroke-width:1;"/><polygon fill="none" points="179,138.27,173,156.27,185,156.27,179,138.27" style="stroke:#A80036;stroke-width:1;"/></g><!--reverse link OneShotBehavior to ResourceDeclineProposalBehavior--><g class="link" data-entity-1="OneShotBehavior" data-entity-2="ResourceDeclineProposalBehavior" data-source-line="46" data-uid="lnk11" id="link_OneShotBehavior_ResourceDeclineProposalBehavior"><path codeLine="46" d="M860.77,122.3903 C794.11,144.9503 713.25,172.31 633.4,199.34" fill="none" id="OneShotBehavior-backto-ResourceDeclineProposalBehavior" style="stroke:#A80036;stroke-width:1;"/><polygon fill="none" points="877.82,116.62,858.8465,116.707,862.6934,128.0737,877.82,116.62" style="stroke:#A80036;stroke-width:1;"/></g><!--reverse link OneShotBehavior to ResourceAcceptProposalBehavior--><g class="link" data-entity-1="OneShotBehavior" data-entity-2="ResourceAcceptProposalBehavior" data-source-line="47" data-uid="lnk12" id="link_OneShotBehavior_ResourceAcceptProposalBehavior"><path codeLine="47" d="M895.2034,151.0788 C876.4934,170.0288 867.68,178.96 849,197.89" fill="none" id="OneShotBehavior-backto-ResourceAcceptProposalBehavior" style="stroke:#A80036;stroke-width:1;"/><polygon fill="none" points="907.85,138.27,890.9339,146.8633,899.473,155.2943,907.85,138.27" style="stroke:#A80036;stroke-width:1;"/></g><!--reverse link OneShotBehavior to ResourceExecuteOnAssetBehavior--><g class="link" data-entity-1="OneShotBehavior" data-entity-2="ResourceExecuteOnAssetBehavior" data-source-line="48" data-uid="lnk13" id="link_OneShotBehavior_ResourceExecuteOnAssetBehavior"><path codeLine="48" d="M1014.7966,151.0788 C1033.5066,170.0288 1042.32,178.96 1061,197.89" fill="none" id="OneShotBehavior-backto-ResourceExecuteOnAssetBehavior" style="stroke:#A80036;stroke-width:1;"/><polygon fill="none" points="1002.15,138.27,1010.527,155.2943,1019.0661,146.8633,1002.15,138.27" style="stroke:#A80036;stroke-width:1;"/></g><!--reverse link OneShotBehavior to ResourceGetAssetDataBehavior--><g class="link" data-entity-1="OneShotBehavior" data-entity-2="ResourceGetAssetDataBehavior" data-source-line="49" data-uid="lnk14" id="link_OneShotBehavior_ResourceGetAssetDataBehavior"><path codeLine="49" d="M1049.1311,122.706 C1116.9511,145.906 1199.98,174.32 1279.82,201.64" fill="none" id="OneShotBehavior-backto-ResourceGetAssetDataBehavior" style="stroke:#A80036;stroke-width:1;"/><polygon fill="none" points="1032.1,116.88,1047.1891,128.383,1051.0731,117.029,1032.1,116.88" style="stroke:#A80036;stroke-width:1;"/></g><!--SRC=[jPF1IWCn48RlUOfXJuhq1SHBROl7YZw0ZEdGXiRCafbTAzLtDqWLTvcw7dOXvF3p__mVaudiGuBCGk0SniYlB-4GqjQv6lqUjmJLBUsm3PmNdAc2etC0-2oQqIluY29GhHCzxbY_dHMWG4yxbXZ05UGcNLp2DRGSDYU9qvCePZLqIflVweVHlNZpCVXETLSQhRcSK-S32JVPqttccWNZgiNOe0PE7OvXssXiFR0bbGcadsAJwendAgIvzrJhdqIsPIgWrO5yexHESn5I4yYsJ0LqH_hLiqH54ySoZ0HJhkwlWPltsUmV6ro2lP_UJPxPig6OlGf3AVkzXbBMM9qhCt6V]--></g></svg>