<svg xmlns="http://www.w3.org/2000/svg" xmlns:xlink="http://www.w3.org/1999/xlink" contentStyleType="text/css" data-diagram-type="CLASS" height="1784px" preserveAspectRatio="none" style="width:1183px;height:1784px;background:#FFFFFF;" version="1.1" viewBox="0 0 1183 1784" width="1183px" zoomAndPan="magnify"><defs/><g><!--cluster Resource Agent Shell--><g class="cluster" data-entity="Resource Agent Shell" data-source-line="3" data-uid="ent0002" id="cluster_Resource Agent Shell"><path d="M8.5,6 L178.293,6 A3.75,3.75 0 0 1 180.793,8.5 L187.793,28.2969 L1173.5,28.2969 A2.5,2.5 0 0 1 1176,30.7969 L1176,1774.5 A2.5,2.5 0 0 1 1173.5,1777 L8.5,1777 A2.5,2.5 0 0 1 6,1774.5 L6,8.5 A2.5,2.5 0 0 1 8.5,6" fill="none" style="stroke:#000000;stroke-width:1.5;"/><line style="stroke:#000000;stroke-width:1.5;" x1="6" x2="187.793" y1="28.2969" y2="28.2969"/><text fill="#000000" font-family="sans-serif" font-size="14" font-weight="bold" lengthAdjust="spacing" textLength="168.793" x="10" y="20.9951">Resource Agent Shell</text></g><!--cluster <<List{Submodel}>> \nSubmodels--><g class="cluster" data-entity="..List.Submodel... .nSubmodels" data-source-line="13" data-uid="ent0004" id="cluster_..List.Submodel... .nSubmodels"><path d="M32.5,49 L183.7334,49 A3.75,3.75 0 0 1 186.2334,51.5 L193.2334,87.5938 L1149.5,87.5938 A2.5,2.5 0 0 1 1152,90.0938 L1152,1596.5 A2.5,2.5 0 0 1 1149.5,1599 L32.5,1599 A2.5,2.5 0 0 1 30,1596.5 L30,51.5 A2.5,2.5 0 0 1 32.5,49" fill="none" style="stroke:#000000;stroke-width:1.5;"/><line style="stroke:#000000;stroke-width:1.5;" x1="30" x2="193.2334" y1="87.5938" y2="87.5938"/><text fill="#000000" font-family="sans-serif" font-size="14" font-weight="bold" lengthAdjust="spacing" textLength="145.3594" x="34" y="63.9951">&#171;List{Submodel}&#187;</text><text fill="#000000" font-family="sans-serif" font-size="14" font-weight="bold" lengthAdjust="spacing" textLength="86.9258" x="65.6538" y="80.292">Submodels</text></g><!--cluster <<Submodel>>\nOperational State--><g class="cluster" data-entity="..Submodel...nOperational State" data-source-line="14" data-uid="ent0005" id="cluster_..Submodel...nOperational State"><path d="M89.5,108 L230.876,108 A3.75,3.75 0 0 1 233.376,110.5 L240.376,146.5938 L685.5,146.5938 A2.5,2.5 0 0 1 688,149.0938 L688,499.5 A2.5,2.5 0 0 1 685.5,502 L89.5,502 A2.5,2.5 0 0 1 87,499.5 L87,110.5 A2.5,2.5 0 0 1 89.5,108" fill="none" style="stroke:#000000;stroke-width:1.5;"/><line style="stroke:#000000;stroke-width:1.5;" x1="87" x2="240.376" y1="146.5938" y2="146.5938"/><text fill="#000000" font-family="sans-serif" font-size="14" font-weight="bold" lengthAdjust="spacing" textLength="96.6807" x="112.8477" y="122.9951">&#171;Submodel&#187;</text><text fill="#000000" font-family="sans-serif" font-size="14" font-weight="bold" lengthAdjust="spacing" textLength="140.376" x="91" y="139.292">Operational State</text></g><!--cluster <<Submodel>> \nKnowledge--><g class="cluster" data-entity="..Submodel.. .nKnowledge" data-source-line="33" data-uid="ent0008" id="cluster_..Submodel.. .nKnowledge"><path d="M56.5,526 L159.0547,526 A3.75,3.75 0 0 1 161.5547,528.5 L168.5547,564.5938 L718.5,564.5938 A2.5,2.5 0 0 1 721,567.0938 L721,917.5 A2.5,2.5 0 0 1 718.5,920 L56.5,920 A2.5,2.5 0 0 1 54,917.5 L54,528.5 A2.5,2.5 0 0 1 56.5,526" fill="none" style="stroke:#000000;stroke-width:1.5;"/><line style="stroke:#000000;stroke-width:1.5;" x1="54" x2="168.5547" y1="564.5938" y2="564.5938"/><text fill="#000000" font-family="sans-serif" font-size="14" font-weight="bold" lengthAdjust="spacing" textLength="96.6807" x="58" y="540.9951">&#171;Submodel&#187;</text><text fill="#000000" font-family="sans-serif" font-size="14" font-weight="bold" lengthAdjust="spacing" textLength="87.1992" x="65.1777" y="557.292">Knowledge</text></g><!--cluster <<Submodel>> \nCapability--><g class="cluster" data-entity="..Submodel.. .nCapability" data-source-line="51" data-uid="ent0011" id="cluster_..Submodel.. .nCapability"><path d="M205,944 L307.5547,944 A3.75,3.75 0 0 1 310.0547,946.5 L317.0547,982.5938 L1125.5,982.5938 A2.5,2.5 0 0 1 1128,985.0938 L1128,1335.5 A2.5,2.5 0 0 1 1125.5,1338 L205,1338 A2.5,2.5 0 0 1 202.5,1335.5 L202.5,946.5 A2.5,2.5 0 0 1 205,944" fill="none" style="stroke:#000000;stroke-width:1.5;"/><line style="stroke:#000000;stroke-width:1.5;" x1="202.5" x2="317.0547" y1="982.5938" y2="982.5938"/><text fill="#000000" font-family="sans-serif" font-size="14" font-weight="bold" lengthAdjust="spacing" textLength="96.6807" x="206.5" y="958.9951">&#171;Submodel&#187;</text><text fill="#000000" font-family="sans-serif" font-size="14" font-weight="bold" lengthAdjust="spacing" textLength="79.4268" x="217.564" y="975.292">Capability</text></g><!--cluster <<Submodel>> \nInteraction and Scheduling--><g class="cluster" data-entity="..Submodel.. .nInteraction and Scheduling" data-source-line="77" data-uid="ent0015" id="cluster_..Submodel.. .nInteraction and Scheduling"><path d="M252.5,1362 L467.1914,1362 A3.75,3.75 0 0 1 469.6914,1364.5 L476.6914,1400.5938 L522.5,1400.5938 A2.5,2.5 0 0 1 525,1403.0938 L525,1572.5 A2.5,2.5 0 0 1 522.5,1575 L252.5,1575 A2.5,2.5 0 0 1 250,1572.5 L250,1364.5 A2.5,2.5 0 0 1 252.5,1362" fill="none" style="stroke:#000000;stroke-width:1.5;"/><line style="stroke:#000000;stroke-width:1.5;" x1="250" x2="476.6914" y1="1400.5938" y2="1400.5938"/><text fill="#000000" font-family="sans-serif" font-size="14" font-weight="bold" lengthAdjust="spacing" textLength="96.6807" x="310.0684" y="1376.9951">&#171;Submodel&#187;</text><text fill="#000000" font-family="sans-serif" font-size="14" font-weight="bold" lengthAdjust="spacing" textLength="213.6914" x="254" y="1393.292">Interaction and Scheduling</text></g><!--class Header--><g class="entity" data-entity="Header" data-source-line="5" data-uid="ent0003" id="entity_Header"><rect fill="#F1F1F1" height="145.7813" rx="2.5" ry="2.5" style="stroke:#181818;stroke-width:0.5;" width="345.9014" x="214.5" y="1615"/><ellipse cx="357.7129" cy="1631" fill="#ADD1B2" rx="11" ry="11" style="stroke:#181818;stroke-width:1;"/><path d="M361.8223,1637 L354.1035,1637 L354.1035,1624.6094 L361.8223,1624.6094 L361.8223,1626.7656 L356.5566,1626.7656 L356.5566,1629.4375 L361.3223,1629.4375 L361.3223,1631.5938 L356.5566,1631.5938 L356.5566,1634.8438 L361.8223,1634.8438 L361.8223,1637 Z " fill="#000000"/><text fill="#000000" font-family="sans-serif" font-size="14" lengthAdjust="spacing" textLength="50.9756" x="378.2129" y="1635.8467">Header</text><line style="stroke:#181818;stroke-width:0.5;" x1="215.5" x2="559.4014" y1="1647" y2="1647"/><ellipse cx="225.5" cy="1660.6484" fill="#000000" rx="3" ry="3" style="stroke:#000000;stroke-width:1;"/><text fill="#000000" font-family="sans-serif" font-size="14" lengthAdjust="spacing" textLength="105.7451" x="234.5" y="1663.9951">idShort : String</text><ellipse cx="225.5" cy="1676.9453" fill="#000000" rx="3" ry="3" style="stroke:#000000;stroke-width:1;"/><text fill="#000000" font-family="sans-serif" font-size="14" lengthAdjust="spacing" textLength="68.1748" x="234.5" y="1680.292">id : String</text><ellipse cx="225.5" cy="1693.2422" fill="#000000" rx="3" ry="3" style="stroke:#000000;stroke-width:1;"/><text fill="#000000" font-family="sans-serif" font-size="14" lengthAdjust="spacing" textLength="319.9014" x="234.5" y="1696.5889">assetInformation : Dictionary&lt;String, String&gt;</text><ellipse cx="225.5" cy="1709.5391" fill="#000000" rx="3" ry="3" style="stroke:#000000;stroke-width:1;"/><text fill="#000000" font-family="sans-serif" font-size="14" lengthAdjust="spacing" textLength="123.498" x="234.5" y="1712.8857">assetKind : String</text><ellipse cx="225.5" cy="1725.8359" fill="#000000" rx="3" ry="3" style="stroke:#000000;stroke-width:1;"/><text fill="#000000" font-family="sans-serif" font-size="14" lengthAdjust="spacing" textLength="149.3789" x="234.5" y="1729.1826">globalAssetId : String</text><ellipse cx="225.5" cy="1742.1328" fill="#000000" rx="3" ry="3" style="stroke:#000000;stroke-width:1;"/><text fill="#000000" font-family="sans-serif" font-size="14" lengthAdjust="spacing" textLength="127.0049" x="234.5" y="1745.4795">assetType : String</text><line style="stroke:#181818;stroke-width:0.5;" x1="215.5" x2="559.4014" y1="1752.7813" y2="1752.7813"/></g><!--class CurrentState--><g class="entity" data-entity="CurrentState" data-source-line="15" data-uid="ent0006" id="entity_CurrentState"><rect fill="#F1F1F1" height="145.7813" rx="2.5" ry="2.5" style="stroke:#181818;stroke-width:0.5;" width="252.8848" x="261" y="159"/><ellipse cx="335.8706" cy="175" fill="#ADD1B2" rx="11" ry="11" style="stroke:#181818;stroke-width:1;"/><path d="M339.98,181 L332.2612,181 L332.2612,168.6094 L339.98,168.6094 L339.98,170.7656 L334.7144,170.7656 L334.7144,173.4375 L339.48,173.4375 L339.48,175.5938 L334.7144,175.5938 L334.7144,178.8438 L339.98,178.8438 L339.98,181 Z " fill="#000000"/><text fill="#000000" font-family="sans-serif" font-size="14" lengthAdjust="spacing" textLength="94.6436" x="356.3706" y="179.8467">Current State</text><line style="stroke:#181818;stroke-width:0.5;" x1="262" x2="512.8848" y1="191" y2="191"/><ellipse cx="272" cy="204.6484" fill="#000000" rx="3" ry="3" style="stroke:#000000;stroke-width:1;"/><text fill="#000000" font-family="sans-serif" font-size="14" lengthAdjust="spacing" textLength="226.8848" x="281" y="207.9951">idShort : String : "Current State"</text><ellipse cx="272" cy="220.9453" fill="#000000" rx="3" ry="3" style="stroke:#000000;stroke-width:1;"/><text fill="#000000" font-family="sans-serif" font-size="14" lengthAdjust="spacing" textLength="68.1748" x="281" y="224.292">id : String</text><ellipse cx="272" cy="237.2422" fill="#000000" rx="3" ry="3" style="stroke:#000000;stroke-width:1;"/><text fill="#000000" font-family="sans-serif" font-size="14" lengthAdjust="spacing" textLength="171.1992" x="281" y="240.5889">kind : String : "Instance"</text><ellipse cx="272" cy="253.5391" fill="#000000" rx="3" ry="3" style="stroke:#000000;stroke-width:1;"/><text fill="#000000" font-family="sans-serif" font-size="14" lengthAdjust="spacing" textLength="212.6045" x="281" y="256.8857">category : String : "VARIABLE"</text><ellipse cx="272" cy="269.8359" fill="#000000" rx="3" ry="3" style="stroke:#000000;stroke-width:1;"/><text fill="#000000" font-family="sans-serif" font-size="14" lengthAdjust="spacing" textLength="145.6533" x="281" y="273.1826">value : String : "Idle"</text><ellipse cx="272" cy="286.1328" fill="#000000" rx="3" ry="3" style="stroke:#000000;stroke-width:1;"/><text fill="#000000" font-family="sans-serif" font-size="14" lengthAdjust="spacing" textLength="196.2529" x="281" y="289.4795">valueType : String : "String"</text><line style="stroke:#181818;stroke-width:0.5;" x1="262" x2="512.8848" y1="296.7813" y2="296.7813"/></g><!--class HistoricalData--><g class="entity" data-entity="HistoricalData" data-source-line="23" data-uid="ent0007" id="entity_HistoricalData"><rect fill="#F1F1F1" height="145.7813" rx="2.5" ry="2.5" style="stroke:#181818;stroke-width:0.5;" width="568.5615" x="103" y="340"/><ellipse cx="332.25" cy="356" fill="#ADD1B2" rx="11" ry="11" style="stroke:#181818;stroke-width:1;"/><path d="M336.3594,362 L328.6406,362 L328.6406,349.6094 L336.3594,349.6094 L336.3594,351.7656 L331.0938,351.7656 L331.0938,354.4375 L335.8594,354.4375 L335.8594,356.5938 L331.0938,356.5938 L331.0938,359.8438 L336.3594,359.8438 L336.3594,362 Z " fill="#000000"/><text fill="#000000" font-family="sans-serif" font-size="14" lengthAdjust="spacing" textLength="101.5615" x="352.75" y="360.8467">Historical data</text><line style="stroke:#181818;stroke-width:0.5;" x1="104" x2="670.5615" y1="372" y2="372"/><ellipse cx="114" cy="385.6484" fill="#000000" rx="3" ry="3" style="stroke:#000000;stroke-width:1;"/><text fill="#000000" font-family="sans-serif" font-size="14" lengthAdjust="spacing" textLength="233.8027" x="123" y="388.9951">idShort : String : "Historical data"</text><ellipse cx="114" cy="401.9453" fill="#000000" rx="3" ry="3" style="stroke:#000000;stroke-width:1;"/><text fill="#000000" font-family="sans-serif" font-size="14" lengthAdjust="spacing" textLength="68.1748" x="123" y="405.292">id : String</text><ellipse cx="114" cy="418.2422" fill="#000000" rx="3" ry="3" style="stroke:#000000;stroke-width:1;"/><text fill="#000000" font-family="sans-serif" font-size="14" lengthAdjust="spacing" textLength="171.1992" x="123" y="421.5889">kind : String : "Instance"</text><ellipse cx="114" cy="434.5391" fill="#000000" rx="3" ry="3" style="stroke:#000000;stroke-width:1;"/><text fill="#000000" font-family="sans-serif" font-size="14" lengthAdjust="spacing" textLength="217.2324" x="123" y="437.8857">category : String : "Parameter"</text><ellipse cx="114" cy="450.8359" fill="#000000" rx="3" ry="3" style="stroke:#000000;stroke-width:1;"/><text fill="#000000" font-family="sans-serif" font-size="14" lengthAdjust="spacing" textLength="542.5615" x="123" y="454.1826">value : String : "2023-10-01T12:00:00Z:Idle;2023-10-01T12:05:00Z:Running"</text><ellipse cx="114" cy="467.1328" fill="#000000" rx="3" ry="3" style="stroke:#000000;stroke-width:1;"/><text fill="#000000" font-family="sans-serif" font-size="14" lengthAdjust="spacing" textLength="196.2529" x="123" y="470.4795">valueType : String : "String"</text><line style="stroke:#181818;stroke-width:0.5;" x1="104" x2="670.5615" y1="477.7813" y2="477.7813"/></g><!--class ResourceConstraints--><g class="entity" data-entity="ResourceConstraints" data-source-line="34" data-uid="ent0009" id="entity_ResourceConstraints"><rect fill="#F1F1F1" height="145.7813" rx="2.5" ry="2.5" style="stroke:#181818;stroke-width:0.5;" width="635.0137" x="70" y="577"/><ellipse cx="308.5229" cy="593" fill="#ADD1B2" rx="11" ry="11" style="stroke:#181818;stroke-width:1;"/><path d="M312.6323,599 L304.9136,599 L304.9136,586.6094 L312.6323,586.6094 L312.6323,588.7656 L307.3667,588.7656 L307.3667,591.4375 L312.1323,591.4375 L312.1323,593.5938 L307.3667,593.5938 L307.3667,596.8438 L312.6323,596.8438 L312.6323,599 Z " fill="#000000"/><text fill="#000000" font-family="sans-serif" font-size="14" lengthAdjust="spacing" textLength="149.4678" x="329.0229" y="597.8467">Resource Constraints</text><line style="stroke:#181818;stroke-width:0.5;" x1="71" x2="704.0137" y1="609" y2="609"/><ellipse cx="81" cy="622.6484" fill="#000000" rx="3" ry="3" style="stroke:#000000;stroke-width:1;"/><text fill="#000000" font-family="sans-serif" font-size="14" lengthAdjust="spacing" textLength="281.709" x="90" y="625.9951">idShort : String : "Resource Constraints"</text><ellipse cx="81" cy="638.9453" fill="#000000" rx="3" ry="3" style="stroke:#000000;stroke-width:1;"/><text fill="#000000" font-family="sans-serif" font-size="14" lengthAdjust="spacing" textLength="68.1748" x="90" y="642.292">id : String</text><ellipse cx="81" cy="655.2422" fill="#000000" rx="3" ry="3" style="stroke:#000000;stroke-width:1;"/><text fill="#000000" font-family="sans-serif" font-size="14" lengthAdjust="spacing" textLength="171.1992" x="90" y="658.5889">kind : String : "Instance"</text><ellipse cx="81" cy="671.5391" fill="#000000" rx="3" ry="3" style="stroke:#000000;stroke-width:1;"/><text fill="#000000" font-family="sans-serif" font-size="14" lengthAdjust="spacing" textLength="217.2324" x="90" y="674.8857">category : String : "Parameter"</text><ellipse cx="81" cy="687.8359" fill="#000000" rx="3" ry="3" style="stroke:#000000;stroke-width:1;"/><text fill="#000000" font-family="sans-serif" font-size="14" lengthAdjust="spacing" textLength="609.0137" x="90" y="691.1826">value : String : "Max Depth: 10cm;Min Depth: 1cm; Max Rpm : 5000 ;Min Rpm : 1000 "</text><ellipse cx="81" cy="704.1328" fill="#000000" rx="3" ry="3" style="stroke:#000000;stroke-width:1;"/><text fill="#000000" font-family="sans-serif" font-size="14" lengthAdjust="spacing" textLength="196.2529" x="90" y="707.4795">valueType : String : "String"</text><line style="stroke:#181818;stroke-width:0.5;" x1="71" x2="704.0137" y1="714.7813" y2="714.7813"/></g><!--class EnvironmentalConditions--><g class="entity" data-entity="EnvironmentalConditions" data-source-line="42" data-uid="ent0010" id="entity_EnvironmentalConditions"><rect fill="#F1F1F1" height="145.7813" rx="2.5" ry="2.5" style="stroke:#181818;stroke-width:0.5;" width="366.4297" x="204.5" y="758"/><ellipse cx="293.104" cy="774" fill="#ADD1B2" rx="11" ry="11" style="stroke:#181818;stroke-width:1;"/><path d="M297.2134,780 L289.4946,780 L289.4946,767.6094 L297.2134,767.6094 L297.2134,769.7656 L291.9478,769.7656 L291.9478,772.4375 L296.7134,772.4375 L296.7134,774.5938 L291.9478,774.5938 L291.9478,777.8438 L297.2134,777.8438 L297.2134,780 Z " fill="#000000"/><text fill="#000000" font-family="sans-serif" font-size="14" lengthAdjust="spacing" textLength="180.7217" x="313.604" y="778.8467">Environmental Conditions</text><line style="stroke:#181818;stroke-width:0.5;" x1="205.5" x2="569.9297" y1="790" y2="790"/><ellipse cx="215.5" cy="803.6484" fill="#000000" rx="3" ry="3" style="stroke:#000000;stroke-width:1;"/><text fill="#000000" font-family="sans-serif" font-size="14" lengthAdjust="spacing" textLength="312.9629" x="224.5" y="806.9951">idShort : String : "Environmental Conditions"</text><ellipse cx="215.5" cy="819.9453" fill="#000000" rx="3" ry="3" style="stroke:#000000;stroke-width:1;"/><text fill="#000000" font-family="sans-serif" font-size="14" lengthAdjust="spacing" textLength="68.1748" x="224.5" y="823.292">id : String</text><ellipse cx="215.5" cy="836.2422" fill="#000000" rx="3" ry="3" style="stroke:#000000;stroke-width:1;"/><text fill="#000000" font-family="sans-serif" font-size="14" lengthAdjust="spacing" textLength="171.1992" x="224.5" y="839.5889">kind : String : "Instance"</text><ellipse cx="215.5" cy="852.5391" fill="#000000" rx="3" ry="3" style="stroke:#000000;stroke-width:1;"/><text fill="#000000" font-family="sans-serif" font-size="14" lengthAdjust="spacing" textLength="217.2324" x="224.5" y="855.8857">category : String : "Parameter"</text><ellipse cx="215.5" cy="868.8359" fill="#000000" rx="3" ry="3" style="stroke:#000000;stroke-width:1;"/><text fill="#000000" font-family="sans-serif" font-size="14" lengthAdjust="spacing" textLength="340.4297" x="224.5" y="872.1826">value : String : "Max Temp: 80C;Min Temp: 10C"</text><ellipse cx="215.5" cy="885.1328" fill="#000000" rx="3" ry="3" style="stroke:#000000;stroke-width:1;"/><text fill="#000000" font-family="sans-serif" font-size="14" lengthAdjust="spacing" textLength="196.2529" x="224.5" y="888.4795">valueType : String : "String"</text><line style="stroke:#181818;stroke-width:0.5;" x1="205.5" x2="569.9297" y1="895.7813" y2="895.7813"/></g><!--class Skill--><g class="entity" data-entity="Skill" data-source-line="52" data-uid="ent0012" id="entity_Skill"><rect fill="#F1F1F1" height="145.7813" rx="2.5" ry="2.5" style="stroke:#181818;stroke-width:0.5;" width="259.9189" x="257.5" y="1176"/><ellipse cx="368.8779" cy="1192" fill="#ADD1B2" rx="11" ry="11" style="stroke:#181818;stroke-width:1;"/><path d="M372.9873,1198 L365.2686,1198 L365.2686,1185.6094 L372.9873,1185.6094 L372.9873,1187.7656 L367.7217,1187.7656 L367.7217,1190.4375 L372.4873,1190.4375 L372.4873,1192.5938 L367.7217,1192.5938 L367.7217,1195.8438 L372.9873,1195.8438 L372.9873,1198 Z " fill="#000000"/><text fill="#000000" font-family="sans-serif" font-size="14" lengthAdjust="spacing" textLength="28.6631" x="389.3779" y="1196.8467">Skill</text><line style="stroke:#181818;stroke-width:0.5;" x1="258.5" x2="516.4189" y1="1208" y2="1208"/><ellipse cx="268.5" cy="1221.6484" fill="#000000" rx="3" ry="3" style="stroke:#000000;stroke-width:1;"/><text fill="#000000" font-family="sans-serif" font-size="14" lengthAdjust="spacing" textLength="160.9043" x="277.5" y="1224.9951">idShort : String : "Skill"</text><ellipse cx="268.5" cy="1237.9453" fill="#000000" rx="3" ry="3" style="stroke:#000000;stroke-width:1;"/><text fill="#000000" font-family="sans-serif" font-size="14" lengthAdjust="spacing" textLength="68.1748" x="277.5" y="1241.292">id : String</text><ellipse cx="268.5" cy="1254.2422" fill="#000000" rx="3" ry="3" style="stroke:#000000;stroke-width:1;"/><text fill="#000000" font-family="sans-serif" font-size="14" lengthAdjust="spacing" textLength="171.1992" x="277.5" y="1257.5889">kind : String : "Instance"</text><ellipse cx="268.5" cy="1270.5391" fill="#000000" rx="3" ry="3" style="stroke:#000000;stroke-width:1;"/><text fill="#000000" font-family="sans-serif" font-size="14" lengthAdjust="spacing" textLength="217.2324" x="277.5" y="1273.8857">category : String : "Parameter"</text><ellipse cx="268.5" cy="1286.8359" fill="#000000" rx="3" ry="3" style="stroke:#000000;stroke-width:1;"/><text fill="#000000" font-family="sans-serif" font-size="14" lengthAdjust="spacing" textLength="233.9189" x="277.5" y="1290.1826">value : String : "Drilling , Moving"</text><ellipse cx="268.5" cy="1303.1328" fill="#000000" rx="3" ry="3" style="stroke:#000000;stroke-width:1;"/><text fill="#000000" font-family="sans-serif" font-size="14" lengthAdjust="spacing" textLength="196.2529" x="277.5" y="1306.4795">valueType : String : "String"</text><line style="stroke:#181818;stroke-width:0.5;" x1="258.5" x2="516.4189" y1="1313.7813" y2="1313.7813"/></g><!--class Drill--><g class="entity" data-entity="Drill" data-source-line="60" data-uid="ent0013" id="entity_Drill"><rect fill="#F1F1F1" height="145.7813" rx="2.5" ry="2.5" style="stroke:#181818;stroke-width:0.5;" width="337.9648" x="218.5" y="995"/><ellipse cx="369.1299" cy="1011" fill="#ADD1B2" rx="11" ry="11" style="stroke:#181818;stroke-width:1;"/><path d="M373.2393,1017 L365.5205,1017 L365.5205,1004.6094 L373.2393,1004.6094 L373.2393,1006.7656 L367.9736,1006.7656 L367.9736,1009.4375 L372.7393,1009.4375 L372.7393,1011.5938 L367.9736,1011.5938 L367.9736,1014.8438 L373.2393,1014.8438 L373.2393,1017 Z " fill="#000000"/><text fill="#000000" font-family="sans-serif" font-size="14" lengthAdjust="spacing" textLength="28.2051" x="389.6299" y="1015.8467">Drill</text><line style="stroke:#181818;stroke-width:0.5;" x1="219.5" x2="555.4648" y1="1027" y2="1027"/><ellipse cx="229.5" cy="1040.6484" fill="#000000" rx="3" ry="3" style="stroke:#000000;stroke-width:1;"/><text fill="#000000" font-family="sans-serif" font-size="14" lengthAdjust="spacing" textLength="160.4463" x="238.5" y="1043.9951">idShort : String : "Drill"</text><ellipse cx="229.5" cy="1056.9453" fill="#000000" rx="3" ry="3" style="stroke:#000000;stroke-width:1;"/><text fill="#000000" font-family="sans-serif" font-size="14" lengthAdjust="spacing" textLength="68.1748" x="238.5" y="1060.292">id : String</text><ellipse cx="229.5" cy="1073.2422" fill="#000000" rx="3" ry="3" style="stroke:#000000;stroke-width:1;"/><text fill="#000000" font-family="sans-serif" font-size="14" lengthAdjust="spacing" textLength="171.1992" x="238.5" y="1076.5889">kind : String : "Instance"</text><ellipse cx="229.5" cy="1089.5391" fill="#000000" rx="3" ry="3" style="stroke:#000000;stroke-width:1;"/><text fill="#000000" font-family="sans-serif" font-size="14" lengthAdjust="spacing" textLength="213.4385" x="238.5" y="1092.8857">category : String : "Operation"</text><ellipse cx="229.5" cy="1105.8359" fill="#000000" rx="3" ry="3" style="stroke:#000000;stroke-width:1;"/><text fill="#000000" font-family="sans-serif" font-size="14" lengthAdjust="spacing" textLength="311.9648" x="238.5" y="1109.1826">input : "Depth : xs:double, Rpm : xs:integer"</text><ellipse cx="229.5" cy="1122.1328" fill="#000000" rx="3" ry="3" style="stroke:#000000;stroke-width:1;"/><text fill="#000000" font-family="sans-serif" font-size="14" lengthAdjust="spacing" textLength="185.8965" x="238.5" y="1125.4795">output : "Hole : xs:double"</text><line style="stroke:#181818;stroke-width:0.5;" x1="219.5" x2="555.4648" y1="1132.7813" y2="1132.7813"/></g><!--class MoveXY--><g class="entity" data-entity="MoveXY" data-source-line="68" data-uid="ent0014" id="entity_MoveXY"><rect fill="#F1F1F1" height="145.7813" rx="2.5" ry="2.5" style="stroke:#181818;stroke-width:0.5;" width="347.002" x="765" y="1176"/><ellipse cx="906.4082" cy="1192" fill="#ADD1B2" rx="11" ry="11" style="stroke:#181818;stroke-width:1;"/><path d="M910.5176,1198 L902.7988,1198 L902.7988,1185.6094 L910.5176,1185.6094 L910.5176,1187.7656 L905.252,1187.7656 L905.252,1190.4375 L910.0176,1190.4375 L910.0176,1192.5938 L905.252,1192.5938 L905.252,1195.8438 L910.5176,1195.8438 L910.5176,1198 Z " fill="#000000"/><text fill="#000000" font-family="sans-serif" font-size="14" lengthAdjust="spacing" textLength="55.6855" x="926.9082" y="1196.8467">MoveXY</text><line style="stroke:#181818;stroke-width:0.5;" x1="766" x2="1111.002" y1="1208" y2="1208"/><ellipse cx="776" cy="1221.6484" fill="#000000" rx="3" ry="3" style="stroke:#000000;stroke-width:1;"/><text fill="#000000" font-family="sans-serif" font-size="14" lengthAdjust="spacing" textLength="169.7842" x="785" y="1224.9951">idShort : String : "Move"</text><ellipse cx="776" cy="1237.9453" fill="#000000" rx="3" ry="3" style="stroke:#000000;stroke-width:1;"/><text fill="#000000" font-family="sans-serif" font-size="14" lengthAdjust="spacing" textLength="68.1748" x="785" y="1241.292">id : String</text><ellipse cx="776" cy="1254.2422" fill="#000000" rx="3" ry="3" style="stroke:#000000;stroke-width:1;"/><text fill="#000000" font-family="sans-serif" font-size="14" lengthAdjust="spacing" textLength="171.1992" x="785" y="1257.5889">kind : String : "Instance"</text><ellipse cx="776" cy="1270.5391" fill="#000000" rx="3" ry="3" style="stroke:#000000;stroke-width:1;"/><text fill="#000000" font-family="sans-serif" font-size="14" lengthAdjust="spacing" textLength="213.4385" x="785" y="1273.8857">category : String : "Operation"</text><ellipse cx="776" cy="1286.8359" fill="#000000" rx="3" ry="3" style="stroke:#000000;stroke-width:1;"/><text fill="#000000" font-family="sans-serif" font-size="14" lengthAdjust="spacing" textLength="321.002" x="785" y="1290.1826">input : "X-Axis : xs:double, Y-Axis : xs:double"</text><ellipse cx="776" cy="1303.1328" fill="#000000" rx="3" ry="3" style="stroke:#000000;stroke-width:1;"/><text fill="#000000" font-family="sans-serif" font-size="14" lengthAdjust="spacing" textLength="209.3096" x="785" y="1306.4795">output : "Position : xs:double"</text><line style="stroke:#181818;stroke-width:0.5;" x1="766" x2="1111.002" y1="1313.7813" y2="1313.7813"/></g><!--class Endpoints--><g class="entity" data-entity="Endpoints" data-source-line="78" data-uid="ent0016" id="entity_Endpoints"><rect fill="#F1F1F1" height="145.7813" rx="2.5" ry="2.5" style="stroke:#181818;stroke-width:0.5;" width="243.2324" x="266" y="1413"/><ellipse cx="348.5645" cy="1429" fill="#ADD1B2" rx="11" ry="11" style="stroke:#181818;stroke-width:1;"/><path d="M352.6738,1435 L344.9551,1435 L344.9551,1422.6094 L352.6738,1422.6094 L352.6738,1424.7656 L347.4082,1424.7656 L347.4082,1427.4375 L352.1738,1427.4375 L352.1738,1429.5938 L347.4082,1429.5938 L347.4082,1432.8438 L352.6738,1432.8438 L352.6738,1435 Z " fill="#000000"/><text fill="#000000" font-family="sans-serif" font-size="14" lengthAdjust="spacing" textLength="69.6035" x="369.0645" y="1433.8467">Endpoints</text><line style="stroke:#181818;stroke-width:0.5;" x1="267" x2="508.2324" y1="1445" y2="1445"/><ellipse cx="277" cy="1458.6484" fill="#000000" rx="3" ry="3" style="stroke:#000000;stroke-width:1;"/><text fill="#000000" font-family="sans-serif" font-size="14" lengthAdjust="spacing" textLength="201.8447" x="286" y="1461.9951">idShort : String : "Endpoints"</text><ellipse cx="277" cy="1474.9453" fill="#000000" rx="3" ry="3" style="stroke:#000000;stroke-width:1;"/><text fill="#000000" font-family="sans-serif" font-size="14" lengthAdjust="spacing" textLength="68.1748" x="286" y="1478.292">id : String</text><ellipse cx="277" cy="1491.2422" fill="#000000" rx="3" ry="3" style="stroke:#000000;stroke-width:1;"/><text fill="#000000" font-family="sans-serif" font-size="14" lengthAdjust="spacing" textLength="171.1992" x="286" y="1494.5889">kind : String : "Instance"</text><ellipse cx="277" cy="1507.5391" fill="#000000" rx="3" ry="3" style="stroke:#000000;stroke-width:1;"/><text fill="#000000" font-family="sans-serif" font-size="14" lengthAdjust="spacing" textLength="217.2324" x="286" y="1510.8857">category : String : "Parameter"</text><ellipse cx="277" cy="1523.8359" fill="#000000" rx="3" ry="3" style="stroke:#000000;stroke-width:1;"/><text fill="#000000" font-family="sans-serif" font-size="14" lengthAdjust="spacing" textLength="93.6387" x="286" y="1527.1826">value : String</text><ellipse cx="277" cy="1540.1328" fill="#000000" rx="3" ry="3" style="stroke:#000000;stroke-width:1;"/><text fill="#000000" font-family="sans-serif" font-size="14" lengthAdjust="spacing" textLength="196.2529" x="286" y="1543.4795">valueType : String : "String"</text><line style="stroke:#181818;stroke-width:0.5;" x1="267" x2="508.2324" y1="1550.7813" y2="1550.7813"/></g><!--SRC=[pPRjQ-8m6C2_zwy8_NWug1w3mmt1qy5a6pTKZktObzW-gs5fKjBKASF__PwazbMzwzYDKoeyxsb-UPAKSYvV8xPc8dIScFelD0JYJY6HgVA134CGcioMmBbBtXmEpvfeIHGBbve4J86lcHGE8HZ6z8Qurq03K2wX2Sb4p2Bu-q9OC5jAfKcVpBGom-NcfeKc2UY9U9OgegOw-iVCZaFLvZ8BxUnI1jMS6oRsYeLSBYWVsfA7HvflOgWwjlWlG5nUth94lytIHIG3uDl1W3o9N4lStUHg2RbtC7WIFs9GTWwKum1KGvbH8XkbIbdAMG2IsrcieP9mY28AZGADyFgSS_jB5PMfCH69fi9lfFjOC9HgKmlzEPnEXjzlh-gXAyfJg9SCE1o8gV4sSPbKHcxt25tZ6aZ5VAGOK4spxYfiOpIreDGiykcSxgcY4MZS3Ny1rVDwNy-wtfdNdNTxVS_3vrVVqBjeUCwjPveAKGFsNhHRnpdQizZUDqA-SWX2SFTxjJWOHX91ACg4Jknov8wAlSMQ72ntEWjpHzTa3B5UzadNywEBEoOA7LLY_DCumj1pp_E8zMTwr-Z_flcln8efAIBKiNKHLC3CYP9XhpbBNmlqHykU5luvH76VVFD65cwcTRtHHvh_Jxq_eZ5TC8xWovCwNuZP2pEt85AtKWl6MSRf01qhV1yZTyYTN7te32cnsA8MYvLQOCaoFXrBSVasXX9ngkrhc9sCmZhf1p9TSEZiDYyQy222i0bKfdgNUYqvL3FTIclbN90mF3nQC9dOWem9_FzW7iw6QvRKoJpksOwnkPS9stss7U3J-BggRRu9GbVKVkaHYjER-Ki8KjEm-KrKdeb1B8kxfz1Q7NjvvcbiotTjmAspTNu3]--></g></svg>